font.ufo
<glyph name="six" format="1">
	<unicode hex="0036"/>
	<advance width="509"/>
	<outline>
		<contour>
			<point x="248" y="-12" type="curve" smooth="yes"/>
			<point x="379" y="-12"/>
			<point x="472" y="107"/>
			<point x="472" y="230" type="curve" smooth="yes"/>
			<point x="472" y="343"/>
			<point x="404" y="396"/>
			<point x="314" y="396" type="curve" smooth="yes"/>
			<point x="278" y="396"/>
			<point x="221" y="373"/>
			<point x="185" y="331" type="curve"/>
			<point x="172" y="232" type="line"/>
			<point x="212" y="286"/>
			<point x="250" y="302"/>
			<point x="278" y="302" type="curve" smooth="yes"/>
			<point x="322" y="302"/>
			<point x="346" y="271"/>
			<point x="346" y="218" type="curve" smooth="yes"/>
			<point x="346" y="161"/>
			<point x="314" y="90"/>
			<point x="255" y="90" type="curve" smooth="yes"/>
			<point x="209" y="90"/>
			<point x="177" y="130"/>
			<point x="177" y="201" type="curve" smooth="yes"/>
			<point x="177" y="424"/>
			<point x="262" y="537"/>
			<point x="360" y="537" type="curve" smooth="yes"/>
			<point x="396" y="537"/>
			<point x="420" y="517"/>
			<point x="439" y="487" type="curve"/>
			<point x="526" y="560" type="line"/>
			<point x="498" y="599"/>
			<point x="448" y="647"/>
			<point x="369" y="647" type="curve" smooth="yes"/>
			<point x="184" y="647"/>
			<point x="50" y="474"/>
			<point x="50" y="214" type="curve" smooth="yes"/>
			<point x="50" y="80"/>
			<point x="127" y="-12"/>
		</contour>
	</outline>
</glyph>
<glyph name="eight" format="1">
	<unicode hex="0038"/>
	<advance width="509"/>
	<outline>
		<contour>
			<point x="233" y="-12" type="curve" smooth="yes"/>
			<point x="356" y="-12"/>
			<point x="463" y="61"/>
			<point x="463" y="177" type="curve" smooth="yes"/>
			<point x="463" y="242"/>
			<point x="429" y="292"/>
			<point x="384" y="322" type="curve"/>
			<point x="384" y="326" type="line"/>
			<point x="453" y="363"/>
			<point x="498" y="419"/>
			<point x="498" y="498" type="curve" smooth="yes"/>
			<point x="498" y="602"/>
			<point x="410" y="647"/>
			<point x="325" y="647" type="curve" smooth="yes"/>
			<point x="214" y="647"/>
			<point x="119" y="578"/>
			<point x="119" y="465" type="curve" smooth="yes"/>
			<point x="119" y="414"/>
			<point x="138" y="373"/>
			<point x="174" y="336" type="curve"/>
			<point x="174" y="332" type="line"/>
			<point x="99" y="302"/>
			<point x="37" y="242"/>
			<point x="37" y="154" type="curve" smooth="yes"/>
			<point x="37" y="37"/>
			<point x="143" y="-12"/>
		</contour>
		<contour>
			<point x="322" y="365" type="curve"/>
			<point x="268" y="394"/>
			<point x="239" y="422"/>
			<point x="239" y="470" type="curve" smooth="yes"/>
			<point x="239" y="521"/>
			<point x="274" y="550"/>
			<point x="315" y="550" type="curve" smooth="yes"/>
			<point x="360" y="550"/>
			<point x="381" y="520"/>
			<point x="381" y="478" type="curve" smooth="yes"/>
			<point x="381" y="427"/>
			<point x="353" y="391"/>
		</contour>
		<contour>
			<point x="243" y="83" type="curve" smooth="yes"/>
			<point x="190" y="83"/>
			<point x="159" y="121"/>
			<point x="159" y="169" type="curve" smooth="yes"/>
			<point x="159" y="223"/>
			<point x="190" y="263"/>
			<point x="230" y="291" type="curve"/>
			<point x="294" y="255"/>
			<point x="338" y="227"/>
			<point x="338" y="176" type="curve" smooth="yes"/>
			<point x="338" y="114"/>
			<point x="292" y="83"/>
		</contour>
	</outline>
</glyph>
<glyph name="I" format="1">
	<unicode hex="0049"/>
	<advance width="294"/>
	<outline>
		<contour>
			<point x="28" y="0" type="line"/>
			<point x="166" y="0" type="line"/>
			<point x="296" y="652" type="line"/>
			<point x="159" y="652" type="line"/>
		</contour>
		<contour>
			<point name="aboveUC" x="240" y="682" type="move"/>
		</contour>
		<contour>
			<point name="ogonekUC" x="94" y="0" type="move"/>
		</contour>
		<contour>
			<point name="belowLC" x="102" y="-23" type="move"/>
		</contour>
	</outline>
</glyph>
<glyph name="asciicircum" format="1">
	<unicode hex="005E"/>
	<advance width="506"/>
	<outline>
		<contour>
			<point x="72" y="275" type="line"/>
			<point x="184" y="275" type="line"/>
			<point x="230" y="410" type="line"/>
			<point x="274" y="545" type="line"/>
			<point x="278" y="545" type="line"/>
			<point x="321" y="410" type="line"/>
			<point x="366" y="275" type="line"/>
			<point x="478" y="275" type="line"/>
			<point x="329" y="670" type="line"/>
			<point x="221" y="670" type="line"/>
		</contour>
	</outline>
</glyph>
<glyph name="o" format="1">
	<unicode hex="006F"/>
	<advance width="533"/>
	<outline>
		<contour>
			<point x="222" y="-12" type="curve" smooth="yes"/>
			<point x="359" y="-12"/>
			<point x="500" y="112"/>
			<point x="500" y="304" type="curve" smooth="yes"/>
			<point x="500" y="427"/>
			<point x="423" y="508"/>
			<point x="308" y="508" type="curve" smooth="yes"/>
			<point x="171" y="508"/>
			<point x="30" y="384"/>
			<point x="30" y="192" type="curve" smooth="yes"/>
			<point x="30" y="69"/>
			<point x="106" y="-12"/>
		</contour>
		<contour>
			<point x="237" y="98" type="curve" smooth="yes"/>
			<point x="191" y="98"/>
			<point x="168" y="135"/>
			<point x="168" y="195" type="curve" smooth="yes"/>
			<point x="168" y="311"/>
			<point x="226" y="398"/>
			<point x="292" y="398" type="curve" smooth="yes"/>
			<point x="338" y="398"/>
			<point x="362" y="362"/>
			<point x="362" y="301" type="curve" smooth="yes"/>
			<point x="362" y="185"/>
			<point x="304" y="98"/>
		</contour>
		<contour>
			<point name="hornLC" x="415" y="496" type="move"/>
		</contour>
		<contour>
			<point name="aboveLC" x="331" y="518" type="move"/>
		</contour>
		<contour>
			<point name="ogonekLC" x="216" y="0" type="move"/>
		</contour>
		<contour>
			<point name="belowLC" x="200" y="-22" type="move"/>
		</contour>
	</outline>
</glyph>
<glyph name="q" format="1">
	<unicode hex="0071"/>
	<advance width="552"/>
	<outline>
		<contour>
			<point x="292" y="-50" type="line"/>
			<point x="264" y="-184" type="line"/>
			<point x="401" y="-184" type="line"/>
			<point x="537" y="496" type="line"/>
			<point x="428" y="496" type="line"/>
			<point x="406" y="443" type="line"/>
			<point x="404" y="443" type="line"/>
			<point x="385" y="483"/>
			<point x="341" y="508"/>
			<point x="296" y="508" type="curve" smooth="yes"/>
			<point x="159" y="508"/>
			<point x="31" y="359"/>
			<point x="31" y="170" type="curve" smooth="yes"/>
			<point x="31" y="53"/>
			<point x="84" y="-12"/>
			<point x="171" y="-12" type="curve" smooth="yes"/>
			<point x="223" y="-12"/>
			<point x="282" y="18"/>
			<point x="327" y="65" type="curve"/>
			<point x="329" y="65" type="line"/>
		</contour>
		<contour>
			<point x="231" y="100" type="curve" smooth="yes"/>
			<point x="195" y="100"/>
			<point x="173" y="127"/>
			<point x="173" y="187" type="curve" smooth="yes"/>
			<point x="173" y="306"/>
			<point x="237" y="396"/>
			<point x="306" y="396" type="curve" smooth="yes"/>
			<point x="329" y="396"/>
			<point x="356" y="382"/>
			<point x="372" y="349" type="curve"/>
			<point x="337" y="173" type="line"/>
			<point x="303" y="117"/>
			<point x="262" y="100"/>
		</contour>
		<contour>
			<point name="aboveLC" x="344" y="518" type="move"/>
		</contour>
		<contour>
			<point name="belowLC" x="340" y="-218" type="move"/>
		</contour>
	</outline>
</glyph>
<glyph name="y" format="1">
	<unicode hex="0079"/>
	<advance width="499"/>
	<outline>
		<contour>
			<point x="36" y="-194" type="curve" smooth="yes"/>
			<point x="138" y="-194"/>
			<point x="202" y="-130"/>
			<point x="271" y="-11" type="curve" smooth="yes"/>
			<point x="539" y="496" type="line"/>
			<point x="406" y="496" type="line"/>
			<point x="302" y="272" type="line" smooth="yes"/>
			<point x="281" y="227"/>
			<point x="257" y="169"/>
			<point x="236" y="123" type="curve"/>
			<point x="232" y="123" type="line"/>
			<point x="231" y="170"/>
			<point x="228" y="229"/>
			<point x="223" y="272" type="curve" smooth="yes"/>
			<point x="200" y="496" type="line"/>
			<point x="64" y="496" type="line"/>
			<point x="150" y="11" type="line"/>
			<point x="138" y="-14" type="line" smooth="yes"/>
			<point x="116" y="-58"/>
			<point x="80" y="-86"/>
			<point x="44" y="-86" type="curve" smooth="yes"/>
			<point x="31" y="-86"/>
			<point x="17" y="-82"/>
			<point x="7" y="-76" type="curve"/>
			<point x="-35" y="-174" type="line"/>
			<point x="-15" y="-185"/>
			<point x="18" y="-194"/>
		</contour>
		<contour>
			<point name="aboveLC" x="297" y="518" type="move"/>
		</contour>
		<contour>
			<point name="belowLC" x="132" y="-242" type="move"/>
		</contour>
	</outline>
</glyph>
<glyph name="braceright" format="1">
	<unicode hex="007D"/>
	<advance width="331"/>
	<outline>
		<contour>
			<point x="-38" y="-152" type="line"/>
			<point x="26" y="-152" type="line" smooth="yes"/>
			<point x="114" y="-152"/>
			<point x="150" y="-118"/>
			<point x="172" y="-10" type="curve" smooth="yes"/>
			<point x="186" y="60"/>
			<point x="184" y="99"/>
			<point x="196" y="161" type="curve" smooth="yes"/>
			<point x="204" y="196"/>
			<point x="228" y="236"/>
			<point x="294" y="238" type="curve"/>
			<point x="312" y="318" type="line"/>
			<point x="257" y="320"/>
			<point x="242" y="348"/>
			<point x="242" y="377" type="curve" smooth="yes"/>
			<point x="242" y="425"/>
			<point x="293" y="543"/>
			<point x="293" y="621" type="curve" smooth="yes"/>
			<point x="293" y="678"/>
			<point x="267" y="708"/>
			<point x="197" y="708" type="curve" smooth="yes"/>
			<point x="135" y="708" type="line"/>
			<point x="121" y="635" type="line"/>
			<point x="138" y="635" type="line" smooth="yes"/>
			<point x="171" y="635"/>
			<point x="180" y="624"/>
			<point x="180" y="596" type="curve" smooth="yes"/>
			<point x="180" y="540"/>
			<point x="134" y="421"/>
			<point x="134" y="354" type="curve" smooth="yes"/>
			<point x="134" y="313"/>
			<point x="152" y="293"/>
			<point x="190" y="284" type="curve"/>
			<point x="190" y="280" type="line"/>
			<point x="137" y="268"/>
			<point x="107" y="235"/>
			<point x="91" y="159" type="curve" smooth="yes"/>
			<point x="80" y="100"/>
			<point x="74" y="49"/>
			<point x="63" y="-4" type="curve" smooth="yes"/>
			<point x="53" y="-59"/>
			<point x="38" y="-79"/>
			<point x="-3" y="-79" type="curve" smooth="yes"/>
			<point x="-22" y="-79" type="line"/>
		</contour>
	</outline>
</glyph>
<glyph name="registered" format="1">
	<unicode hex="00AE"/>
	<advance width="444"/>
	<outline>
		<contour>
			<point x="255" y="312" type="curve" smooth="yes"/>
			<point x="377" y="312"/>
			<point x="463" y="422"/>
			<point x="463" y="537" type="curve" smooth="yes"/>
			<point x="461" y="640"/>
			<point x="382" y="714"/>
			<point x="289" y="714" type="curve" smooth="yes"/>
			<point x="165" y="714"/>
			<point x="81" y="604"/>
			<point x="81" y="489" type="curve" smooth="yes"/>
			<point x="81" y="386"/>
			<point x="161" y="312"/>
		</contour>
		<contour>
			<point x="258" y="359" type="curve" smooth="yes"/>
			<point x="181" y="359"/>
			<point x="132" y="418"/>
			<point x="132" y="493" type="curve" smooth="yes"/>
			<point x="132" y="586"/>
			<point x="196" y="667"/>
			<point x="286" y="667" type="curve" smooth="yes"/>
			<point x="362" y="667"/>
			<point x="412" y="609"/>
			<point x="412" y="533" type="curve" smooth="yes"/>
			<point x="412" y="440"/>
			<point x="348" y="359"/>
		</contour>
		<contour>
			<point x="177" y="416" type="line"/>
			<point x="231" y="416" type="line"/>
			<point x="244" y="478" type="line"/>
			<point x="270" y="478" type="line"/>
			<point x="288" y="416" type="line"/>
			<point x="342" y="416" type="line"/>
			<point x="317" y="490" type="line"/>
			<point x="349" y="502"/>
			<point x="366" y="527"/>
			<point x="366" y="554" type="curve" smooth="yes"/>
			<point x="366" y="591"/>
			<point x="339" y="612"/>
			<point x="299" y="612" type="curve" smooth="yes"/>
			<point x="217" y="612" type="line"/>
		</contour>
		<contour>
			<point x="251" y="516" type="line"/>
			<point x="262" y="572" type="line"/>
			<point x="280" y="572" type="line" smooth="yes"/>
			<point x="300" y="572"/>
			<point x="307" y="563"/>
			<point x="307" y="549" type="curve" smooth="yes"/>
			<point x="307" y="531"/>
			<point x="293" y="516"/>
			<point x="267" y="516" type="curve" smooth="yes"/>
		</contour>
	</outline>
</glyph>
<glyph name="paragraph" format="1">
	<unicode hex="00B6"/>
	<advance width="608"/>
	<outline>
		<contour>
			<point x="314" y="-80" type="line"/>
			<point x="451" y="-80" type="line"/>
			<point x="596" y="652" type="line"/>
			<point x="459" y="652" type="line"/>
		</contour>
		<contour>
			<point x="285" y="200" type="curve" smooth="yes"/>
			<point x="315" y="200" type="line"/>
			<point x="406" y="652" type="line"/>
			<point x="362" y="652" type="line" smooth="yes"/>
			<point x="209" y="652"/>
			<point x="69" y="571"/>
			<point x="69" y="383" type="curve" smooth="yes"/>
			<point x="69" y="265"/>
			<point x="170" y="200"/>
		</contour>
	</outline>
</glyph>
<glyph name="kgreenlandic" format="1">
	<unicode hex="0138"/>
	<advance width="525"/>
	<outline>
		<contour>
			<point x="14" y="0" type="line"/>
			<point x="151" y="0" type="line"/>
			<point x="175" y="119" type="line"/>
			<point x="256" y="200" type="line"/>
			<point x="331" y="0" type="line"/>
			<point x="468" y="0" type="line"/>
			<point x="350" y="279" type="line"/>
			<point x="553" y="496" type="line"/>
			<point x="401" y="496" type="line"/>
			<point x="214" y="295" type="line"/>
			<point x="210" y="295" type="line"/>
			<point x="249" y="496" type="line"/>
			<point x="112" y="496" type="line"/>
		</contour>
	</outline>
</glyph>
<glyph name="uogonek" format="1">
	<unicode hex="0173"/>
	<advance width="545"/>
	<outline>
		<contour>
			<point x="312" y="-210" type="curve" smooth="yes"/>
			<point x="345" y="-210"/>
			<point x="388" y="-194"/>
			<point x="416" y="-174" type="curve"/>
			<point x="392" y="-118" type="line"/>
			<point x="382" y="-124"/>
			<point x="371" y="-128"/>
			<point x="360" y="-128" type="curve" smooth="yes"/>
			<point x="342" y="-128"/>
			<point x="326" y="-117"/>
			<point x="326" y="-98" type="curve" smooth="yes"/>
			<point x="326" y="-57"/>
			<point x="366" y="-20"/>
			<point x="431" y="0" type="curve"/>
			<point x="529" y="496" type="line"/>
			<point x="392" y="496" type="line"/>
			<point x="328" y="169" type="line"/>
			<point x="289" y="125"/>
			<point x="258" y="105"/>
			<point x="229" y="105" type="curve" smooth="yes"/>
			<point x="197" y="105"/>
			<point x="179" y="122"/>
			<point x="179" y="156" type="curve" smooth="yes"/>
			<point x="179" y="169"/>
			<point x="182" y="183"/>
			<point x="187" y="203" type="curve" smooth="yes"/>
			<point x="245" y="496" type="line"/>
			<point x="109" y="496" type="line"/>
			<point x="47" y="186" type="line" smooth="yes"/>
			<point x="42" y="161"/>
			<point x="39" y="138"/>
			<point x="39" y="116" type="curve" smooth="yes"/>
			<point x="39" y="33"/>
			<point x="74" y="-12"/>
			<point x="156" y="-12" type="curve" smooth="yes"/>
			<point x="216" y="-12"/>
			<point x="273" y="25"/>
			<point x="318" y="67" type="curve"/>
			<point x="322" y="67" type="line"/>
			<point x="320" y="2" type="line"/>
			<point x="287" y="-21"/>
			<point x="226" y="-72"/>
			<point x="226" y="-137" type="curve" smooth="yes"/>
			<point x="226" y="-185"/>
			<point x="263" y="-210"/>
		</contour>
		<contour>
			<point name="aboveLC" x="328" y="518" type="move"/>
		</contour>
	</outline>
</glyph>
<glyph name="pi" format="1">
	<unicode hex="03C0"/>
	<advance width="603"/>
	<outline>
		<contour>
			<point x="449" y="-12" type="curve" smooth="yes"/>
			<point x="480" y="-12"/>
			<point x="505" y="-5"/>
			<point x="523" y="2" type="curve"/>
			<point x="526" y="102" type="line"/>
			<point x="516" y="99"/>
			<point x="509" y="97"/>
			<point x="502" y="97" type="curve" smooth="yes"/>
			<point x="480" y="97"/>
			<point x="467" y="106"/>
			<point x="467" y="130" type="curve" smooth="yes"/>
			<point x="467" y="145"/>
			<point x="497" y="287"/>
			<point x="524" y="389" type="curve"/>
			<point x="602" y="389" type="line"/>
			<point x="622" y="496" type="line"/>
			<point x="149" y="496" type="line"/>
			<point x="77" y="490" type="line"/>
			<point x="56" y="389" type="line"/>
			<point x="150" y="389" type="line"/>
			<point x="128" y="276"/>
			<point x="92" y="137"/>
			<point x="48" y="0" type="curve"/>
			<point x="182" y="-11" type="line"/>
			<point x="217" y="123"/>
			<point x="251" y="267"/>
			<point x="275" y="389" type="curve"/>
			<point x="395" y="389" type="line"/>
			<point x="373" y="290"/>
			<point x="337" y="155"/>
			<point x="337" y="102" type="curve" smooth="yes"/>
			<point x="337" y="32"/>
			<point x="368" y="-12"/>
		</contour>
	</outline>
</glyph>
<glyph name="bullet" format="1">
	<unicode hex="2022"/>
	<advance width="330"/>
	<outline>
		<contour>
			<point x="154" y="127" type="curve" smooth="yes"/>
			<point x="238" y="127"/>
			<point x="293" y="205"/>
			<point x="293" y="278" type="curve" smooth="yes"/>
			<point x="293" y="348"/>
			<point x="243" y="398"/>
			<point x="178" y="398" type="curve" smooth="yes"/>
			<point x="94" y="398"/>
			<point x="39" y="320"/>
			<point x="39" y="247" type="curve" smooth="yes"/>
			<point x="39" y="177"/>
			<point x="88" y="127"/>
		</contour>
	</outline>
</glyph>
<glyph name="prime" format="1">
	<unicode hex="2032"/>
	<advance width="291"/>
	<outline>
		<contour>
			<point x="95" y="355" type="line"/>
			<point x="184" y="355" type="line"/>
			<point x="270" y="548" type="line"/>
			<point x="318" y="686" type="line"/>
			<point x="183" y="686" type="line"/>
		</contour>
	</outline>
</glyph>
<glyph name="arrowup" format="1">
	<unicode hex="2191"/>
	<advance width="592"/>
	<outline>
		<contour>
			<point x="241" y="-28" type="line"/>
			<point x="351" y="-28" type="line"/>
			<point x="351" y="347" type="line"/>
			<point x="493" y="199" type="line"/>
			<point x="565" y="263" type="line"/>
			<point x="298" y="529" type="line"/>
			<point x="294" y="529" type="line"/>
			<point x="27" y="263" type="line"/>
			<point x="99" y="199" type="line"/>
			<point x="241" y="347" type="line"/>
		</contour>
	</outline>
</glyph>
<glyph name="notequal" format="1">
	<unicode hex="2260"/>
	<advance width="509"/>
	<outline>
		<contour>
			<point x="62" y="44" type="line"/>
			<point x="149" y="44" type="line"/>
			<point x="221" y="165" type="line"/>
			<point x="485" y="165" type="line"/>
			<point x="485" y="262" type="line"/>
			<point x="272" y="262" type="line"/>
			<point x="350" y="398" type="line"/>
			<point x="485" y="398" type="line"/>
			<point x="485" y="495" type="line"/>
			<point x="400" y="495" type="line"/>
			<point x="472" y="616" type="line"/>
			<point x="384" y="616" type="line"/>
			<point x="312" y="495" type="line"/>
			<point x="48" y="495" type="line"/>
			<point x="48" y="398" type="line"/>
			<point x="262" y="398" type="line"/>
			<point x="184" y="262" type="line"/>
			<point x="48" y="262" type="line"/>
			<point x="48" y="165" type="line"/>
			<point x="134" y="165" type="line"/>
		</contour>
	</outline>
</glyph>
<glyph name="ceilingright" format="1">
	<unicode hex="231D"/>
	<advance width="331"/>
	<outline>
		<contour>
			<point x="100" y="0" type="line"/>
			<point x="202" y="0" type="line"/>
			<point x="339" y="691" type="line"/>
			<point x="139" y="691" type="line"/>
			<point x="123" y="618" type="line"/>
			<point x="222" y="618" type="line"/>
		</contour>
	</outline>
</glyph>
<glyph name="floorleft" format="1">
	<unicode hex="231E"/>
	<advance width="330"/>
	<outline>
		<contour>
			<point x="17" y="-56" type="line"/>
			<point x="217" y="-56" type="line"/>
			<point x="232" y="17" type="line"/>
			<point x="134" y="17" type="line"/>
			<point x="256" y="635" type="line"/>
			<point x="153" y="635" type="line"/>
		</contour>
	</outline>
</glyph>
<glyph name="triangleblackdown" format="1">
	<unicode hex="25BC"/>
	<advance width="877"/>
	<outline>
		<contour>
			<point x="846" y="727" type="line"/>
			<point x="63" y="727" type="line"/>
			<point x="63" y="725" type="line"/>
			<point x="452" y="-80" type="line"/>
			<point x="456" y="-80" type="line"/>
			<point x="846" y="725" type="line"/>
		</contour>
	</outline>
</glyph>
<glyph name="Aogonek" format="1">
  <advance width="548"/>
  <outline>
    <contour>
      <point x="391" y="-222" type="curve" smooth="yes"/>
      <point x="424" y="-222"/>
      <point x="467" y="-209"/>
      <point x="495" y="-191" type="curve"/>
      <point x="468" y="-124" type="line"/>
      <point x="457" y="-131"/>
      <point x="450" y="-133"/>
      <point x="441" y="-133" type="curve" smooth="yes"/>
      <point x="422" y="-133"/>
      <point x="406" y="-122"/>
      <point x="406" y="-101" type="curve" smooth="yes"/>
      <point x="406" y="-70"/>
      <point x="433" y="-30"/>
      <point x="511" y="0" type="curve"/>
      <point x="446" y="652" type="line"/>
      <point x="282" y="652" type="line"/>
      <point x="-62" y="0" type="line"/>
      <point x="89" y="0" type="line"/>
      <point x="255" y="353" type="line" smooth="yes"/>
      <point x="286" y="418"/>
      <point x="311" y="480"/>
      <point x="339" y="547" type="curve"/>
      <point x="343" y="547" type="line"/>
      <point x="345" y="478"/>
      <point x="348" y="417"/>
      <point x="351" y="353" type="curve" smooth="yes"/>
      <point x="368" y="0" type="line"/>
      <point x="394" y="0" type="line"/>
      <point x="358" y="-26"/>
      <point x="299" y="-80"/>
      <point x="299" y="-145" type="curve" smooth="yes"/>
      <point x="299" y="-194"/>
      <point x="337" y="-222"/>
    </contour>
    <contour>
      <point x="109" y="164" type="line"/>
      <point x="407" y="164" type="line"/>
      <point x="432" y="267" type="line"/>
      <point x="133" y="267" type="line"/>
    </contour>
    <contour>
      <point x="374" y="682" type="move" name="aboveUC"/>
    </contour>
  </outline>
</glyph>
<glyph name="B" format="1">
  <advance width="604"/>
  <outline>
    <contour>
      <point x="28" y="0" type="line"/>
      <point x="265" y="0" type="line" smooth="yes"/>
      <point x="418" y="0"/>
      <point x="547" y="61"/>
      <point x="547" y="214" type="curve" smooth="yes"/>
      <point x="547" y="278"/>
      <point x="506" y="319"/>
      <point x="434" y="336" type="curve"/>
      <point x="436" y="340" type="line"/>
      <point x="521" y="365"/>
      <point x="577" y="428"/>
      <point x="577" y="503" type="curve" smooth="yes"/>
      <point x="577" y="606"/>
      <point x="488" y="652"/>
      <point x="358" y="652" type="curve" smooth="yes"/>
      <point x="159" y="652" type="line"/>
    </contour>
    <contour>
      <point x="243" y="385" type="line"/>
      <point x="275" y="547" type="line"/>
      <point x="333" y="547" type="line" smooth="yes"/>
      <point x="404" y="547"/>
      <point x="437" y="522"/>
      <point x="437" y="480" type="curve" smooth="yes"/>
      <point x="437" y="423"/>
      <point x="399" y="385"/>
      <point x="308" y="385" type="curve" smooth="yes"/>
    </contour>
    <contour>
      <point x="186" y="105" type="line"/>
      <point x="224" y="292" type="line"/>
      <point x="309" y="292" type="line" smooth="yes"/>
      <point x="380" y="292"/>
      <point x="415" y="262"/>
      <point x="415" y="209" type="curve" smooth="yes"/>
      <point x="415" y="142"/>
      <point x="364" y="105"/>
      <point x="271" y="105" type="curve" smooth="yes"/>
    </contour>
    <contour>
      <point x="354" y="682" type="move" name="aboveUC"/>
    </contour>
    <contour>
      <point x="266" y="-22" type="move" name="belowLC"/>
    </contour>
  </outline>
</glyph>
<glyph name="Delta.math" format="1">
  <advance width="613"/>
  <outline>
    <contour>
      <point x="-8" y="0" type="line"/>
      <point x="529" y="0" type="line"/>
      <point x="545" y="82" type="line"/>
      <point x="474" y="652" type="line"/>
      <point x="309" y="652" type="line"/>
      <point x="7" y="82" type="line"/>
    </contour>
    <contour>
      <point x="282" y="353" type="line" smooth="yes"/>
      <point x="312" y="418"/>
      <point x="338" y="480"/>
      <point x="366" y="547" type="curve"/>
      <point x="370" y="547" type="line"/>
      <point x="371" y="478"/>
      <point x="375" y="417"/>
      <point x="378" y="353" type="curve" smooth="yes"/>
      <point x="399" y="115" type="line"/>
      <point x="159" y="115" type="line"/>
    </contour>
  </outline>
</glyph>
<glyph name="E" format="1">
  <advance width="527"/>
  <outline>
    <contour>
      <point x="377" y="682" type="move" name="aboveUC"/>
    </contour>
    <contour>
      <point x="345" y="0" type="move" name="ogonekUC"/>
    </contour>
    <contour>
      <point x="247" y="-22" type="move" name="belowLC"/>
    </contour>
    <contour>
      <point x="28" y="0" type="line"/>
      <point x="425" y="0" type="line"/>
      <point x="447" y="115" type="line"/>
      <point x="188" y="115" type="line"/>
      <point x="222" y="280" type="line"/>
      <point x="435" y="280" type="line"/>
      <point x="457" y="395" type="line"/>
      <point x="244" y="395" type="line"/>
      <point x="272" y="537" type="line"/>
      <point x="523" y="537" type="line"/>
      <point x="545" y="652" type="line"/>
      <point x="159" y="652" type="line"/>
    </contour>
  </outline>
</glyph>
<glyph name="Eth" format="1">
  <advance width="634"/>
  <outline>
    <contour>
      <point x="38" y="307" type="line"/>
      <point x="368" y="307" type="line"/>
      <point x="383" y="374" type="line"/>
      <point x="123" y="374" type="line"/>
      <point x="50" y="369" type="line"/>
    </contour>
    <component base="D" xOffset="18"/>
  </outline>
</glyph>
<glyph name="Euro" format="1">
  <advance width="509"/>
  <outline>
    <contour>
      <point x="288" y="-12" type="curve" smooth="yes"/>
      <point x="345" y="-12"/>
      <point x="408" y="9"/>
      <point x="472" y="65" type="curve"/>
      <point x="408" y="146" type="line"/>
      <point x="380" y="118"/>
      <point x="349" y="98"/>
      <point x="316" y="98" type="curve" smooth="yes"/>
      <point x="249" y="98"/>
      <point x="213" y="154"/>
      <point x="215" y="253" type="curve" smooth="yes"/>
      <point x="216" y="409"/>
      <point x="279" y="545"/>
      <point x="384" y="545" type="curve" smooth="yes"/>
      <point x="416" y="545"/>
      <point x="435" y="526"/>
      <point x="451" y="493" type="curve"/>
      <point x="549" y="558" type="line"/>
      <point x="516" y="614"/>
      <point x="472" y="655"/>
      <point x="398" y="655" type="curve" smooth="yes"/>
      <point x="225" y="655"/>
      <point x="79" y="488"/>
      <point x="78" y="244" type="curve" smooth="yes"/>
      <point x="77" y="79"/>
      <point x="157" y="-12"/>
    </contour>
    <contour>
      <point x="16" y="224" type="line"/>
      <point x="375" y="224" type="line"/>
      <point x="389" y="294" type="line"/>
      <point x="100" y="294" type="line"/>
      <point x="30" y="289" type="line"/>
    </contour>
    <contour>
      <point x="41" y="348" type="line"/>
      <point x="438" y="348" type="line"/>
      <point x="452" y="419" type="line"/>
      <point x="125" y="419" type="line"/>
      <point x="55" y="413" type="line"/>
    </contour>
  </outline>
</glyph>
<glyph name="F" format="1">
  <advance width="504"/>
  <outline>
    <contour>
      <point x="28" y="0" type="line"/>
      <point x="166" y="0" type="line"/>
      <point x="218" y="262" type="line"/>
      <point x="431" y="262" type="line"/>
      <point x="453" y="377" type="line"/>
      <point x="241" y="377" type="line"/>
      <point x="272" y="537" type="line"/>
      <point x="523" y="537" type="line"/>
      <point x="545" y="652" type="line"/>
      <point x="159" y="652" type="line"/>
    </contour>
    <contour>
      <point x="376" y="682" type="move" name="aboveUC"/>
    </contour>
    <contour>
      <point x="102" y="-22" type="move" name="belowLC"/>
    </contour>
  </outline>
</glyph>
<glyph name="G" format="1">
  <advance width="611"/>
  <outline>
    <contour>
      <point x="314" y="-12" type="curve" smooth="yes"/>
      <point x="396" y="-12"/>
      <point x="468" y="17"/>
      <point x="518" y="56" type="curve"/>
      <point x="578" y="367" type="line"/>
      <point x="351" y="367" type="line"/>
      <point x="330" y="255" type="line"/>
      <point x="437" y="255" type="line"/>
      <point x="409" y="127" type="line"/>
      <point x="391" y="114"/>
      <point x="365" y="105"/>
      <point x="338" y="105" type="curve" smooth="yes"/>
      <point x="236" y="105"/>
      <point x="197" y="170"/>
      <point x="197" y="270" type="curve" smooth="yes"/>
      <point x="197" y="415"/>
      <point x="285" y="545"/>
      <point x="406" y="545" type="curve" smooth="yes"/>
      <point x="448" y="545"/>
      <point x="477" y="526"/>
      <point x="502" y="488" type="curve"/>
      <point x="595" y="560" type="line"/>
      <point x="558" y="625"/>
      <point x="497" y="664"/>
      <point x="413" y="664" type="curve" smooth="yes"/>
      <point x="208" y="664"/>
      <point x="56" y="486"/>
      <point x="56" y="261" type="curve" smooth="yes"/>
      <point x="56" y="89"/>
      <point x="153" y="-12"/>
    </contour>
    <contour>
      <point x="437" y="682" type="move" name="aboveUC"/>
    </contour>
    <contour>
      <point x="316" y="-22" type="move" name="belowLC"/>
    </contour>
  </outline>
</glyph>
<glyph name="Germandbls" format="1">
  <advance width="671"/>
  <outline>
    <contour>
      <point x="420" y="-12" type="curve" smooth="yes"/>
      <point x="543" y="-12"/>
      <point x="629" y="75"/>
      <point x="629" y="188" type="curve" smooth="yes"/>
      <point x="629" y="265"/>
      <point x="574" y="320"/>
      <point x="497" y="354" type="curve"/>
      <point x="631" y="473" type="line"/>
      <point x="620" y="611"/>
      <point x="518" y="672"/>
      <point x="397" y="672" type="curve" smooth="yes"/>
      <point x="227" y="672"/>
      <point x="141" y="564"/>
      <point x="115" y="430" type="curve" smooth="yes"/>
      <point x="28" y="0" type="line"/>
      <point x="166" y="0" type="line"/>
      <point x="245" y="403" type="line" smooth="yes"/>
      <point x="266" y="503"/>
      <point x="317" y="562"/>
      <point x="388" y="562" type="curve" smooth="yes"/>
      <point x="440" y="562"/>
      <point x="481" y="537"/>
      <point x="497" y="489" type="curve"/>
      <point x="364" y="366" type="line"/>
      <point x="357" y="286" type="line"/>
      <point x="449" y="261"/>
      <point x="488" y="219"/>
      <point x="488" y="180" type="curve" smooth="yes"/>
      <point x="488" y="132"/>
      <point x="451" y="98"/>
      <point x="410" y="98" type="curve" smooth="yes"/>
      <point x="368" y="98"/>
      <point x="337" y="123"/>
      <point x="317" y="149" type="curve"/>
      <point x="239" y="64" type="line"/>
      <point x="287" y="12"/>
      <point x="352" y="-12"/>
    </contour>
  </outline>
</glyph>
<glyph name="H" format="1">
  <advance width="652"/>
  <outline>
    <contour>
      <point x="414" y="682" type="move" name="aboveUC"/>
    </contour>
    <contour>
      <point x="286" y="-22" type="move" name="belowLC"/>
    </contour>
    <contour>
      <point x="28" y="0" type="line"/>
      <point x="166" y="0" type="line"/>
      <point x="220" y="279" type="line"/>
      <point x="443" y="279" type="line"/>
      <point x="386" y="0" type="line"/>
      <point x="524" y="0" type="line"/>
      <point x="654" y="652" type="line"/>
      <point x="517" y="652" type="line"/>
      <point x="467" y="399" type="line"/>
      <point x="244" y="399" type="line"/>
      <point x="296" y="652" type="line"/>
      <point x="159" y="652" type="line"/>
    </contour>
  </outline>
</glyph>
<glyph name="Hbar" format="1">
  <advance width="658"/>
  <outline>
    <contour>
      <point x="70" y="489" type="line"/>
      <point x="719" y="489" type="line"/>
      <point x="732" y="557" type="line"/>
      <point x="157" y="557" type="line"/>
      <point x="83" y="551" type="line"/>
    </contour>
    <component base="H" xOffset="2"/>
  </outline>
</glyph>
<glyph name="Iogonek" format="1">
  <advance width="294"/>
  <outline>
    <contour>
      <point x="57" y="-222" type="curve" smooth="yes"/>
      <point x="89" y="-222"/>
      <point x="133" y="-209"/>
      <point x="160" y="-190" type="curve"/>
      <point x="134" y="-124" type="line"/>
      <point x="123" y="-131"/>
      <point x="115" y="-133"/>
      <point x="107" y="-133" type="curve" smooth="yes"/>
      <point x="88" y="-133"/>
      <point x="72" y="-122"/>
      <point x="72" y="-101" type="curve" smooth="yes"/>
      <point x="72" y="-70"/>
      <point x="103" y="-24"/>
      <point x="166" y="0" type="curve"/>
      <point x="296" y="652" type="line"/>
      <point x="159" y="652" type="line"/>
      <point x="28" y="0" type="line"/>
      <point x="60" y="0" type="line"/>
      <point x="29" y="-20"/>
      <point x="-35" y="-78"/>
      <point x="-35" y="-145" type="curve" smooth="yes"/>
      <point x="-35" y="-194"/>
      <point x="2" y="-222"/>
    </contour>
    <contour>
      <point x="240" y="682" type="move" name="aboveUC"/>
    </contour>
  </outline>
</glyph>
<glyph name="J" format="1">
  <advance width="491"/>
  <outline>
    <contour>
      <point x="440" y="682" type="move" name="aboveUC"/>
    </contour>
    <contour>
      <point x="161" y="-30" type="move" name="belowLC"/>
    </contour>
    <contour>
      <point x="176" y="-12" type="curve" smooth="yes"/>
      <point x="314" y="-12"/>
      <point x="385" y="86"/>
      <point x="408" y="203" type="curve" smooth="yes"/>
      <point x="498" y="652" type="line"/>
      <point x="361" y="652" type="line"/>
      <point x="276" y="227" type="line" smooth="yes"/>
      <point x="260" y="146"/>
      <point x="228" y="106"/>
      <point x="176" y="106" type="curve" smooth="yes"/>
      <point x="130" y="106"/>
      <point x="95" y="136"/>
      <point x="76" y="170" type="curve"/>
      <point x="-8" y="87" type="line"/>
      <point x="30" y="24"/>
      <point x="101" y="-12"/>
    </contour>
  </outline>
</glyph>
<glyph name="K" format="1">
  <advance width="604"/>
  <outline>
    <contour>
      <point x="422" y="682" type="move" name="aboveUC"/>
    </contour>
    <contour>
      <point x="292" y="-22" type="move" name="belowLC"/>
    </contour>
    <contour>
      <point x="28" y="0" type="line"/>
      <point x="166" y="0" type="line"/>
      <point x="204" y="191" type="line"/>
      <point x="303" y="298" type="line"/>
      <point x="407" y="0" type="line"/>
      <point x="550" y="0" type="line"/>
      <point x="404" y="384" type="line"/>
      <point x="641" y="652" type="line"/>
      <point x="491" y="652" type="line"/>
      <point x="246" y="384" type="line"/>
      <point x="243" y="384" type="line"/>
      <point x="296" y="652" type="line"/>
      <point x="159" y="652" type="line"/>
    </contour>
  </outline>
</glyph>
<glyph name="L" format="1">
  <advance width="500"/>
  <outline>
    <contour>
      <point x="255" y="682" type="move" name="aboveUC"/>
    </contour>
    <contour>
      <point x="236" y="-22" type="move" name="belowLC"/>
    </contour>
    <contour>
      <point x="28" y="0" type="line"/>
      <point x="413" y="0" type="line"/>
      <point x="435" y="115" type="line"/>
      <point x="188" y="115" type="line"/>
      <point x="296" y="652" type="line"/>
      <point x="159" y="652" type="line"/>
    </contour>
  </outline>
</glyph>
<glyph name="Lslash" format="1">
  <advance width="500"/>
  <outline>
    <contour>
      <point x="15" y="178" type="line"/>
      <point x="106" y="223" type="line"/>
      <point x="204" y="269" type="line"/>
      <point x="431" y="380" type="line"/>
      <point x="397" y="468" type="line"/>
      <point x="227" y="383" type="line"/>
      <point x="127" y="337" type="line"/>
      <point x="-18" y="266" type="line"/>
    </contour>
    <component base="L"/>
  </outline>
</glyph>
<glyph name="N" format="1">
  <advance width="643"/>
  <outline>
    <contour>
      <point x="28" y="0" type="line"/>
      <point x="159" y="0" type="line"/>
      <point x="209" y="250" type="line" smooth="yes"/>
      <point x="224" y="325"/>
      <point x="231" y="411"/>
      <point x="238" y="484" type="curve"/>
      <point x="242" y="484" type="line"/>
      <point x="275" y="339" type="line"/>
      <point x="382" y="0" type="line"/>
      <point x="514" y="0" type="line"/>
      <point x="644" y="652" type="line"/>
      <point x="514" y="652" type="line"/>
      <point x="464" y="405" type="line" smooth="yes"/>
      <point x="449" y="330"/>
      <point x="444" y="237"/>
      <point x="437" y="169" type="curve"/>
      <point x="433" y="169" type="line"/>
      <point x="398" y="312" type="line"/>
      <point x="292" y="652" type="line"/>
      <point x="159" y="652" type="line"/>
    </contour>
    <contour>
      <point x="426" y="682" type="move" name="aboveUC"/>
    </contour>
    <contour>
      <point x="300" y="-30" type="move" name="belowLC"/>
    </contour>
  </outline>
</glyph>
<glyph name="Ohorn" format="1">
  <advance width="660"/>
  <outline>
    <contour>
      <point x="418" y="682" type="move" name="aboveUC"/>
    </contour>
    <contour>
      <point x="298" y="-22" type="move" name="belowLC"/>
    </contour>
    <contour>
      <point x="567" y="585" type="line"/>
      <point x="650" y="600"/>
      <point x="699" y="650"/>
      <point x="699" y="714" type="curve" smooth="yes"/>
      <point x="699" y="734"/>
      <point x="695" y="754"/>
      <point x="686" y="774" type="curve"/>
      <point x="584" y="743" type="line"/>
      <point x="589" y="730"/>
      <point x="591" y="718"/>
      <point x="591" y="706" type="curve" smooth="yes"/>
      <point x="591" y="671"/>
      <point x="561" y="639"/>
      <point x="506" y="634" type="curve"/>
    </contour>
    <component base="O"/>
  </outline>
</glyph>
<glyph name="Omega.math" format="1">
  <advance width="697"/>
  <outline>
    <contour>
      <point x="-8" y="0" type="line"/>
      <point x="254" y="0" type="line"/>
      <point x="271" y="89" type="line"/>
      <point x="231" y="133"/>
      <point x="206" y="201"/>
      <point x="206" y="280" type="curve" smooth="yes"/>
      <point x="206" y="437"/>
      <point x="291" y="545"/>
      <point x="405" y="545" type="curve" smooth="yes"/>
      <point x="481" y="545"/>
      <point x="527" y="488"/>
      <point x="527" y="401" type="curve" smooth="yes"/>
      <point x="527" y="277"/>
      <point x="466" y="170"/>
      <point x="360" y="89" type="curve"/>
      <point x="342" y="0" type="line"/>
      <point x="606" y="0" type="line"/>
      <point x="627" y="110" type="line"/>
      <point x="517" y="110" type="line"/>
      <point x="517" y="114" type="line"/>
      <point x="581" y="169"/>
      <point x="671" y="273"/>
      <point x="671" y="426" type="curve" smooth="yes"/>
      <point x="671" y="573"/>
      <point x="577" y="664"/>
      <point x="427" y="664" type="curve" smooth="yes"/>
      <point x="224" y="664"/>
      <point x="70" y="514"/>
      <point x="70" y="300" type="curve" smooth="yes"/>
      <point x="70" y="218"/>
      <point x="99" y="149"/>
      <point x="125" y="114" type="curve"/>
      <point x="125" y="110" type="line"/>
      <point x="13" y="110" type="line"/>
    </contour>
  </outline>
</glyph>
<glyph name="Oogonek" format="1">
  <advance width="660"/>
  <outline>
    <contour>
      <point x="429" y="682" type="move" name="aboveUC"/>
    </contour>
    <contour>
      <point x="268" y="-222" type="curve" smooth="yes"/>
      <point x="300" y="-222"/>
      <point x="343" y="-209"/>
      <point x="371" y="-191" type="curve"/>
      <point x="345" y="-124" type="line"/>
      <point x="334" y="-131"/>
      <point x="326" y="-133"/>
      <point x="318" y="-133" type="curve" smooth="yes"/>
      <point x="299" y="-133"/>
      <point x="283" y="-122"/>
      <point x="283" y="-101" type="curve" smooth="yes"/>
      <point x="283" y="-70"/>
      <point x="310" y="-32"/>
      <point x="377" y="-4" type="curve" smooth="yes"/>
      <point x="544" y="66"/>
      <point x="633" y="206"/>
      <point x="633" y="388" type="curve" smooth="yes"/>
      <point x="633" y="561"/>
      <point x="537" y="664"/>
      <point x="388" y="664" type="curve" smooth="yes"/>
      <point x="212" y="664"/>
      <point x="57" y="494"/>
      <point x="57" y="264" type="curve" smooth="yes"/>
      <point x="57" y="107"/>
      <point x="134" y="10"/>
      <point x="261" y="-9" type="curve"/>
      <point x="227" y="-34"/>
      <point x="175" y="-85"/>
      <point x="175" y="-145" type="curve" smooth="yes"/>
      <point x="175" y="-194"/>
      <point x="213" y="-222"/>
    </contour>
    <contour>
      <point x="309" y="106" type="curve" smooth="yes"/>
      <point x="237" y="106"/>
      <point x="197" y="169"/>
      <point x="197" y="273" type="curve" smooth="yes"/>
      <point x="197" y="424"/>
      <point x="289" y="545"/>
      <point x="382" y="545" type="curve" smooth="yes"/>
      <point x="454" y="545"/>
      <point x="493" y="483"/>
      <point x="493" y="379" type="curve" smooth="yes"/>
      <point x="493" y="228"/>
      <point x="402" y="106"/>
    </contour>
  </outline>
</glyph>
<glyph name="Oslash" format="1">
  <advance width="660"/>
  <outline>
    <contour>
      <point x="52" y="-40" type="line"/>
      <point x="711" y="642" type="line"/>
      <point x="651" y="698" type="line"/>
      <point x="-10" y="16" type="line"/>
    </contour>
    <component base="O"/>
    <contour>
      <point x="434" y="682" type="move" name="aboveUC"/>
    </contour>
  </outline>
</glyph>
<glyph name="R" format="1">
  <advance width="596"/>
  <outline>
    <contour>
      <point x="394" y="682" type="move" name="aboveUC"/>
    </contour>
    <contour>
      <point x="284" y="-30" type="move" name="belowLC"/>
    </contour>
    <contour>
      <point x="28" y="0" type="line"/>
      <point x="166" y="0" type="line"/>
      <point x="213" y="239" type="line"/>
      <point x="295" y="239" type="line" smooth="yes"/>
      <point x="447" y="239"/>
      <point x="586" y="314"/>
      <point x="586" y="485" type="curve" smooth="yes"/>
      <point x="586" y="606"/>
      <point x="491" y="652"/>
      <point x="363" y="652" type="curve" smooth="yes"/>
      <point x="159" y="652" type="line"/>
    </contour>
    <contour>
      <point x="235" y="348" type="line"/>
      <point x="273" y="543" type="line"/>
      <point x="342" y="543" type="line" smooth="yes"/>
      <point x="412" y="543"/>
      <point x="451" y="520"/>
      <point x="451" y="465" type="curve" smooth="yes"/>
      <point x="451" y="394"/>
      <point x="401" y="348"/>
      <point x="304" y="348" type="curve" smooth="yes"/>
    </contour>
    <contour>
      <point x="377" y="0" type="line"/>
      <point x="521" y="0" type="line"/>
      <point x="381" y="359" type="line"/>
      <point x="282" y="271" type="line"/>
    </contour>
  </outline>
</glyph>
<glyph name="S" format="1">
  <advance width="529"/>
  <outline>
    <contour>
      <point x="238" y="-12" type="curve" smooth="yes"/>
      <point x="387" y="-12"/>
      <point x="484" y="81"/>
      <point x="484" y="200" type="curve" smooth="yes"/>
      <point x="484" y="275"/>
      <point x="456" y="317"/>
      <point x="393" y="355" type="curve" smooth="yes"/>
      <point x="329" y="394" type="line" smooth="yes"/>
      <point x="278" y="426"/>
      <point x="247" y="442"/>
      <point x="247" y="475" type="curve" smooth="yes"/>
      <point x="247" y="513"/>
      <point x="277" y="545"/>
      <point x="330" y="545" type="curve" smooth="yes"/>
      <point x="378" y="545"/>
      <point x="414" y="519"/>
      <point x="447" y="484" type="curve"/>
      <point x="534" y="565" type="line"/>
      <point x="484" y="625"/>
      <point x="413" y="664"/>
      <point x="336" y="664" type="curve" smooth="yes"/>
      <point x="208" y="664"/>
      <point x="107" y="573"/>
      <point x="107" y="462" type="curve" smooth="yes"/>
      <point x="107" y="382"/>
      <point x="145" y="336"/>
      <point x="204" y="299" type="curve" smooth="yes"/>
      <point x="266" y="261" type="line" smooth="yes"/>
      <point x="312" y="232"/>
      <point x="342" y="215"/>
      <point x="342" y="180" type="curve" smooth="yes"/>
      <point x="342" y="133"/>
      <point x="304" y="105"/>
      <point x="248" y="105" type="curve" smooth="yes"/>
      <point x="192" y="105"/>
      <point x="138" y="137"/>
      <point x="103" y="187" type="curve"/>
      <point x="5" y="110" type="line"/>
      <point x="69" y="23"/>
      <point x="153" y="-12"/>
    </contour>
    <contour>
      <point x="372" y="689" type="move" name="aboveUC"/>
    </contour>
    <contour>
      <point x="248" y="0" type="move" name="baseLC"/>
    </contour>
    <contour>
      <point x="242" y="-30" type="move" name="belowLC"/>
    </contour>
  </outline>
</glyph>
<glyph name="T" format="1">
  <advance width="532"/>
  <outline>
    <contour>
      <point x="149" y="0" type="line"/>
      <point x="286" y="0" type="line"/>
      <point x="392" y="536" type="line"/>
      <point x="563" y="536" type="line"/>
      <point x="586" y="652" type="line"/>
      <point x="106" y="652" type="line"/>
      <point x="84" y="536" type="line"/>
      <point x="255" y="536" type="line"/>
    </contour>
    <contour>
      <point x="361" y="682" type="move" name="aboveUC"/>
    </contour>
    <contour>
      <point x="223" y="0" type="move" name="baseLC"/>
    </contour>
    <contour>
      <point x="217" y="-22" type="move" name="belowLC"/>
    </contour>
  </outline>
</glyph>
<glyph name="Uhorn" format="1">
  <advance width="666"/>
  <outline>
    <contour>
      <point x="422" y="682" type="move" name="aboveUC"/>
    </contour>
    <contour>
      <point x="289" y="-22" type="move" name="belowLC"/>
    </contour>
    <contour>
      <point x="633" y="597" type="line"/>
      <point x="738" y="617"/>
      <point x="780" y="669"/>
      <point x="780" y="730" type="curve" smooth="yes"/>
      <point x="780" y="751"/>
      <point x="777" y="771"/>
      <point x="767" y="791" type="curve"/>
      <point x="666" y="759" type="line"/>
      <point x="670" y="747"/>
      <point x="673" y="734"/>
      <point x="673" y="723" type="curve" smooth="yes"/>
      <point x="673" y="688"/>
      <point x="642" y="657"/>
      <point x="593" y="652" type="curve"/>
    </contour>
    <component base="U"/>
  </outline>
</glyph>
<glyph name="V" format="1">
  <advance width="554"/>
  <outline>
    <contour>
      <point x="379" y="682" type="move" name="aboveUC"/>
    </contour>
    <contour>
      <point x="237" y="-30" type="move" name="belowLC"/>
    </contour>
    <contour>
      <point x="134" y="0" type="line"/>
      <point x="300" y="0" type="line"/>
      <point x="637" y="652" type="line"/>
      <point x="486" y="652" type="line"/>
      <point x="341" y="331" type="line" smooth="yes"/>
      <point x="310" y="262"/>
      <point x="280" y="192"/>
      <point x="250" y="122" type="curve"/>
      <point x="246" y="122" type="line"/>
      <point x="245" y="192"/>
      <point x="242" y="262"/>
      <point x="239" y="331" type="curve" smooth="yes"/>
      <point x="222" y="652" type="line"/>
      <point x="79" y="652" type="line"/>
    </contour>
  </outline>
</glyph>
<glyph name="X" format="1">
  <advance width="553"/>
  <outline>
    <contour>
      <point x="-36" y="0" type="line"/>
      <point x="110" y="0" type="line"/>
      <point x="200" y="141" type="line" smooth="yes"/>
      <point x="221" y="175"/>
      <point x="242" y="209"/>
      <point x="265" y="247" type="curve"/>
      <point x="269" y="247" type="line"/>
      <point x="278" y="209"/>
      <point x="286" y="176"/>
      <point x="295" y="142" type="curve" smooth="yes"/>
      <point x="332" y="0" type="line"/>
      <point x="484" y="0" type="line"/>
      <point x="375" y="330" type="line"/>
      <point x="604" y="652" type="line"/>
      <point x="458" y="652" type="line"/>
      <point x="379" y="522" type="line" smooth="yes"/>
      <point x="361" y="492"/>
      <point x="339" y="457"/>
      <point x="317" y="419" type="curve"/>
      <point x="313" y="419" type="line"/>
      <point x="304" y="458"/>
      <point x="297" y="491"/>
      <point x="290" y="521" type="curve" smooth="yes"/>
      <point x="257" y="652" type="line"/>
      <point x="105" y="652" type="line"/>
      <point x="206" y="336" type="line"/>
    </contour>
    <contour>
      <point x="375" y="682" type="move" name="aboveUC"/>
    </contour>
    <contour>
      <point x="284" y="-30" type="move" name="belowLC"/>
    </contour>
  </outline>
</glyph>
<glyph name="Y" format="1">
  <advance width="509"/>
  <outline>
    <contour>
      <point x="347" y="682" type="move" name="aboveUC"/>
    </contour>
    <contour>
      <point x="206" y="-30" type="move" name="belowLC"/>
    </contour>
    <contour>
      <point x="138" y="0" type="line"/>
      <point x="274" y="0" type="line"/>
      <point x="321" y="236" type="line"/>
      <point x="597" y="652" type="line"/>
      <point x="450" y="652" type="line"/>
      <point x="359" y="497" type="line" smooth="yes"/>
      <point x="330" y="447"/>
      <point x="306" y="403"/>
      <point x="279" y="352" type="curve"/>
      <point x="275" y="352" type="line"/>
      <point x="266" y="403"/>
      <point x="259" y="446"/>
      <point x="250" y="495" type="curve" smooth="yes"/>
      <point x="222" y="652" type="line"/>
      <point x="80" y="652" type="line"/>
      <point x="184" y="236" type="line"/>
    </contour>
  </outline>
</glyph>
<glyph name="Z" format="1">
  <advance width="525"/>
  <outline>
    <contour>
      <point x="-5" y="0" type="line"/>
      <point x="445" y="0" type="line"/>
      <point x="469" y="115" type="line"/>
      <point x="186" y="115" type="line"/>
      <point x="539" y="569" type="line"/>
      <point x="556" y="652" type="line"/>
      <point x="135" y="652" type="line"/>
      <point x="112" y="537" type="line"/>
      <point x="369" y="537" type="line"/>
      <point x="13" y="82" type="line"/>
    </contour>
    <contour>
      <point x="366" y="682" type="move" name="aboveUC"/>
    </contour>
    <contour>
      <point x="216" y="-30" type="move" name="belowLC"/>
    </contour>
  </outline>
</glyph>
<glyph name=".notdef" format="1">
  <advance width="663"/>
  <outline>
    <contour>
      <point x="29" y="0" type="line"/>
      <point x="534" y="0" type="line"/>
      <point x="664" y="660" type="line"/>
      <point x="159" y="660" type="line"/>
    </contour>
    <contour>
      <point x="361" y="408" type="line"/>
      <point x="339" y="504" type="line"/>
      <point x="319" y="574" type="line"/>
      <point x="471" y="574" type="line"/>
      <point x="426" y="504" type="line"/>
      <point x="365" y="408" type="line"/>
    </contour>
    <contour>
      <point x="216" y="86" type="line"/>
      <point x="274" y="172" type="line"/>
      <point x="333" y="269" type="line"/>
      <point x="337" y="269" type="line"/>
      <point x="357" y="172" type="line"/>
      <point x="379" y="86" type="line"/>
    </contour>
    <contour>
      <point x="150" y="146" type="line"/>
      <point x="228" y="533" type="line"/>
      <point x="282" y="340" type="line"/>
    </contour>
    <contour>
      <point x="470" y="146" type="line"/>
      <point x="416" y="340" type="line"/>
      <point x="549" y="533" type="line"/>
    </contour>
  </outline>
</glyph>
<glyph name="a.alt" format="1">
  <advance width="514"/>
  <outline>
    <contour>
      <point x="22" y="112" type="curve" smooth="yes"/>
      <point x="22" y="36"/>
      <point x="78" y="-12"/>
      <point x="146" y="-12" type="curve" smooth="yes"/>
      <point x="198" y="-12"/>
      <point x="252" y="17"/>
      <point x="287" y="50" type="curve"/>
      <point x="291" y="50" type="line"/>
      <point x="292" y="0" type="line"/>
      <point x="402" y="0" type="line"/>
      <point x="457" y="275" type="line" smooth="yes"/>
      <point x="463" y="300"/>
      <point x="465" y="325"/>
      <point x="465" y="346" type="curve" smooth="yes"/>
      <point x="465" y="456"/>
      <point x="402" y="508"/>
      <point x="294" y="508" type="curve" smooth="yes"/>
      <point x="228" y="508"/>
      <point x="158" y="487"/>
      <point x="99" y="458" type="curve"/>
      <point x="141" y="363" type="line"/>
      <point x="189" y="388"/>
      <point x="222" y="401"/>
      <point x="264" y="401" type="curve" smooth="yes"/>
      <point x="305" y="401"/>
      <point x="330" y="383"/>
      <point x="330" y="333" type="curve" smooth="yes"/>
      <point x="330" y="326"/>
      <point x="330" y="320"/>
      <point x="327" y="310" type="curve"/>
      <point x="157" y="306"/>
      <point x="22" y="257"/>
    </contour>
    <contour>
      <point x="311" y="227" type="curve"/>
      <point x="292" y="135" type="line"/>
      <point x="264" y="110"/>
      <point x="239" y="93"/>
      <point x="210" y="93" type="curve" smooth="yes"/>
      <point x="178" y="93"/>
      <point x="155" y="110"/>
      <point x="155" y="139" type="curve" smooth="yes"/>
      <point x="155" y="189"/>
      <point x="204" y="224"/>
    </contour>
    <contour>
      <point x="316" y="0" type="move" name="ogonekLC"/>
    </contour>
    <contour>
      <point x="310" y="518" type="move" name="aboveLC"/>
    </contour>
    <contour>
      <point x="222" y="-22" type="move" name="belowLC"/>
    </contour>
  </outline>
</glyph>
<glyph name="a" format="1">
  <advance width="552"/>
  <outline>
    <contour>
      <point x="171" y="-12" type="curve" smooth="yes"/>
      <point x="223" y="-12"/>
      <point x="281" y="18"/>
      <point x="326" y="65" type="curve"/>
      <point x="329" y="65" type="line"/>
      <point x="327" y="0" type="line"/>
      <point x="438" y="0" type="line"/>
      <point x="537" y="496" type="line"/>
      <point x="428" y="496" type="line"/>
      <point x="406" y="443" type="line"/>
      <point x="404" y="443" type="line"/>
      <point x="385" y="483"/>
      <point x="341" y="508"/>
      <point x="296" y="508" type="curve" smooth="yes"/>
      <point x="159" y="508"/>
      <point x="31" y="359"/>
      <point x="31" y="170" type="curve" smooth="yes"/>
      <point x="31" y="53"/>
      <point x="84" y="-12"/>
    </contour>
    <contour>
      <point x="231" y="100" type="curve" smooth="yes"/>
      <point x="195" y="100"/>
      <point x="173" y="127"/>
      <point x="173" y="187" type="curve" smooth="yes"/>
      <point x="173" y="306"/>
      <point x="237" y="396"/>
      <point x="306" y="396" type="curve" smooth="yes"/>
      <point x="329" y="396"/>
      <point x="356" y="382"/>
      <point x="372" y="349" type="curve"/>
      <point x="337" y="173" type="line"/>
      <point x="305" y="117"/>
      <point x="264" y="100"/>
    </contour>
    <contour>
      <point x="352" y="0" type="move" name="ogonekLC"/>
    </contour>
    <contour>
      <point x="330" y="518" type="move" name="aboveLC"/>
    </contour>
    <contour>
      <point x="245" y="-22" type="move" name="belowLC"/>
    </contour>
  </outline>
</glyph>
<glyph name="a.supa" format="1">
  <advance width="345"/>
  <outline>
    <contour>
      <point x="54" y="336" type="curve" smooth="yes"/>
      <point x="54" y="286"/>
      <point x="90" y="254"/>
      <point x="137" y="254" type="curve" smooth="yes"/>
      <point x="171" y="254"/>
      <point x="207" y="272"/>
      <point x="229" y="296" type="curve"/>
      <point x="233" y="296" type="line"/>
      <point x="235" y="262" type="line"/>
      <point x="311" y="262" type="line"/>
      <point x="347" y="442" type="line" smooth="yes"/>
      <point x="350" y="460"/>
      <point x="353" y="476"/>
      <point x="353" y="490" type="curve" smooth="yes"/>
      <point x="353" y="565"/>
      <point x="310" y="598"/>
      <point x="235" y="598" type="curve" smooth="yes"/>
      <point x="191" y="598"/>
      <point x="146" y="584"/>
      <point x="106" y="565" type="curve"/>
      <point x="136" y="500" type="line"/>
      <point x="168" y="515"/>
      <point x="188" y="524"/>
      <point x="213" y="524" type="curve" smooth="yes"/>
      <point x="241" y="524"/>
      <point x="257" y="511"/>
      <point x="257" y="479" type="curve" smooth="yes"/>
      <point x="257" y="476"/>
      <point x="256" y="473"/>
      <point x="256" y="468" type="curve"/>
      <point x="143" y="464"/>
      <point x="54" y="431"/>
    </contour>
    <contour>
      <point x="245" y="410" type="curve"/>
      <point x="233" y="353" type="line"/>
      <point x="216" y="338"/>
      <point x="200" y="326"/>
      <point x="180" y="326" type="curve" smooth="yes"/>
      <point x="160" y="326"/>
      <point x="147" y="337"/>
      <point x="147" y="355" type="curve" smooth="yes"/>
      <point x="147" y="386"/>
      <point x="178" y="408"/>
    </contour>
  </outline>
</glyph>
<glyph name="a.sups" format="1">
  <advance width="365"/>
  <outline>
    <contour>
      <point x="77" y="488" type="curve" smooth="yes"/>
      <point x="77" y="411"/>
      <point x="114" y="367"/>
      <point x="171" y="367" type="curve" smooth="yes"/>
      <point x="206" y="367"/>
      <point x="244" y="386"/>
      <point x="273" y="418" type="curve"/>
      <point x="277" y="418" type="line"/>
      <point x="275" y="375" type="line"/>
      <point x="353" y="375" type="line"/>
      <point x="419" y="705" type="line"/>
      <point x="341" y="705" type="line"/>
      <point x="326" y="669" type="line"/>
      <point x="322" y="669" type="line"/>
      <point x="309" y="695"/>
      <point x="284" y="713"/>
      <point x="255" y="713" type="curve" smooth="yes"/>
      <point x="163" y="713"/>
      <point x="77" y="613"/>
    </contour>
    <contour>
      <point x="211" y="446" type="curve" smooth="yes"/>
      <point x="191" y="446"/>
      <point x="176" y="463"/>
      <point x="176" y="501" type="curve" smooth="yes"/>
      <point x="176" y="576"/>
      <point x="218" y="634"/>
      <point x="261" y="634" type="curve" smooth="yes"/>
      <point x="276" y="634"/>
      <point x="292" y="625"/>
      <point x="301" y="604" type="curve"/>
      <point x="281" y="493" type="line"/>
      <point x="260" y="458"/>
      <point x="233" y="446"/>
    </contour>
  </outline>
</glyph>
<glyph name="a.supa" format="1">
  <advance width="345"/>
  <outline>
    <contour>
      <point x="54" y="450" type="curve" smooth="yes"/>
      <point x="54" y="400"/>
      <point x="90" y="367"/>
      <point x="137" y="367" type="curve" smooth="yes"/>
      <point x="171" y="367"/>
      <point x="207" y="386"/>
      <point x="229" y="409" type="curve"/>
      <point x="233" y="409" type="line"/>
      <point x="235" y="375" type="line"/>
      <point x="311" y="375" type="line"/>
      <point x="347" y="555" type="line" smooth="yes"/>
      <point x="350" y="573"/>
      <point x="353" y="590"/>
      <point x="353" y="603" type="curve" smooth="yes"/>
      <point x="353" y="679"/>
      <point x="310" y="712"/>
      <point x="235" y="712" type="curve" smooth="yes"/>
      <point x="191" y="712"/>
      <point x="146" y="698"/>
      <point x="106" y="679" type="curve"/>
      <point x="136" y="614" type="line"/>
      <point x="168" y="628"/>
      <point x="188" y="637"/>
      <point x="213" y="637" type="curve" smooth="yes"/>
      <point x="241" y="637"/>
      <point x="257" y="624"/>
      <point x="257" y="593" type="curve" smooth="yes"/>
      <point x="257" y="589"/>
      <point x="256" y="587"/>
      <point x="256" y="582" type="curve"/>
      <point x="143" y="578"/>
      <point x="54" y="545"/>
    </contour>
    <contour>
      <point x="245" y="523" type="curve"/>
      <point x="233" y="467" type="line"/>
      <point x="216" y="451"/>
      <point x="200" y="439"/>
      <point x="180" y="439" type="curve" smooth="yes"/>
      <point x="160" y="439"/>
      <point x="147" y="450"/>
      <point x="147" y="469" type="curve" smooth="yes"/>
      <point x="147" y="500"/>
      <point x="178" y="522"/>
    </contour>
  </outline>
</glyph>
<glyph name="a.sups" format="1">
  <advance width="365"/>
  <outline>
    <contour>
      <point x="77" y="488" type="curve" smooth="yes"/>
      <point x="77" y="411"/>
      <point x="114" y="367"/>
      <point x="171" y="367" type="curve" smooth="yes"/>
      <point x="206" y="367"/>
      <point x="244" y="386"/>
      <point x="273" y="418" type="curve"/>
      <point x="277" y="418" type="line"/>
      <point x="275" y="375" type="line"/>
      <point x="353" y="375" type="line"/>
      <point x="419" y="705" type="line"/>
      <point x="341" y="705" type="line"/>
      <point x="326" y="669" type="line"/>
      <point x="322" y="669" type="line"/>
      <point x="309" y="695"/>
      <point x="284" y="713"/>
      <point x="255" y="713" type="curve" smooth="yes"/>
      <point x="163" y="713"/>
      <point x="77" y="613"/>
    </contour>
    <contour>
      <point x="211" y="446" type="curve" smooth="yes"/>
      <point x="191" y="446"/>
      <point x="176" y="463"/>
      <point x="176" y="501" type="curve" smooth="yes"/>
      <point x="176" y="576"/>
      <point x="218" y="634"/>
      <point x="261" y="634" type="curve" smooth="yes"/>
      <point x="276" y="634"/>
      <point x="292" y="625"/>
      <point x="301" y="604" type="curve"/>
      <point x="281" y="493" type="line"/>
      <point x="260" y="458"/>
      <point x="233" y="446"/>
    </contour>
  </outline>
</glyph>
<glyph name="acutecmb.cap" format="1">
  <advance width="0"/>
  <outline>
    <contour>
      <point x="136" y="682" type="move" name="_aboveUC"/>
    </contour>
    <contour>
      <point x="97" y="685" type="line"/>
      <point x="296" y="787" type="line"/>
      <point x="232" y="884" type="line"/>
      <point x="42" y="761" type="line"/>
    </contour>
  </outline>
</glyph>
<glyph name="acutecmb" format="1">
  <advance width="0"/>
  <outline>
    <contour>
      <point x="112" y="518" type="move" name="_aboveLC"/>
    </contour>
    <contour>
      <point x="95" y="577" type="line"/>
      <point x="296" y="716" type="line"/>
      <point x="211" y="816" type="line"/>
      <point x="33" y="651" type="line"/>
    </contour>
  </outline>
</glyph>
<glyph name="acutecmb.cap" format="1">
  <advance width="0"/>
  <outline>
    <contour>
      <point x="136" y="682" type="move" name="_aboveUC"/>
    </contour>
    <contour>
      <point x="96" y="686" type="line"/>
      <point x="300" y="788" type="line"/>
      <point x="239" y="889" type="line"/>
      <point x="44" y="765" type="line"/>
    </contour>
  </outline>
</glyph>
<glyph name="ampersand" format="1">
  <advance width="633"/>
  <outline>
    <contour>
      <point x="200" y="-12" type="curve" smooth="yes"/>
      <point x="299" y="-12"/>
      <point x="383" y="28"/>
      <point x="452" y="96" type="curve" smooth="yes"/>
      <point x="534" y="175"/>
      <point x="592" y="269"/>
      <point x="638" y="367" type="curve"/>
      <point x="514" y="367" type="line"/>
      <point x="480" y="285"/>
      <point x="435" y="216"/>
      <point x="371" y="156" type="curve" smooth="yes"/>
      <point x="324" y="113"/>
      <point x="272" y="91"/>
      <point x="224" y="91" type="curve" smooth="yes"/>
      <point x="176" y="91"/>
      <point x="147" y="122"/>
      <point x="147" y="165" type="curve" smooth="yes"/>
      <point x="147" y="305"/>
      <point x="478" y="339"/>
      <point x="478" y="533" type="curve" smooth="yes"/>
      <point x="478" y="612"/>
      <point x="431" y="664"/>
      <point x="344" y="664" type="curve" smooth="yes"/>
      <point x="234" y="664"/>
      <point x="146" y="576"/>
      <point x="146" y="469" type="curve" smooth="yes"/>
      <point x="146" y="341"/>
      <point x="241" y="180"/>
      <point x="359" y="79" type="curve" smooth="yes"/>
      <point x="414" y="33"/>
      <point x="475" y="1"/>
      <point x="533" y="-12" type="curve"/>
      <point x="587" y="96" type="line"/>
      <point x="551" y="105"/>
      <point x="500" y="126"/>
      <point x="455" y="161" type="curve" smooth="yes"/>
      <point x="355" y="238"/>
      <point x="260" y="364"/>
      <point x="260" y="473" type="curve" smooth="yes"/>
      <point x="260" y="535"/>
      <point x="296" y="573"/>
      <point x="336" y="573" type="curve" smooth="yes"/>
      <point x="360" y="573"/>
      <point x="372" y="558"/>
      <point x="372" y="534" type="curve" smooth="yes"/>
      <point x="372" y="382"/>
      <point x="14" y="389"/>
      <point x="14" y="150" type="curve" smooth="yes"/>
      <point x="14" y="54"/>
      <point x="83" y="-12"/>
    </contour>
  </outline>
</glyph>
<glyph name="arrowdown" format="1">
  <advance width="592"/>
  <outline>
    <contour>
      <point x="294" y="-28" type="line"/>
      <point x="298" y="-28" type="line"/>
      <point x="565" y="239" type="line"/>
      <point x="493" y="303" type="line"/>
      <point x="351" y="155" type="line"/>
      <point x="351" y="529" type="line"/>
      <point x="241" y="529" type="line"/>
      <point x="241" y="155" type="line"/>
      <point x="99" y="303" type="line"/>
      <point x="27" y="239" type="line"/>
    </contour>
  </outline>
</glyph>
<glyph name="arrowleft" format="1">
  <advance width="592"/>
  <outline>
    <contour>
      <point x="284" y="-18" type="line"/>
      <point x="348" y="54" type="line"/>
      <point x="200" y="196" type="line"/>
      <point x="575" y="196" type="line"/>
      <point x="575" y="306" type="line"/>
      <point x="200" y="306" type="line"/>
      <point x="348" y="448" type="line"/>
      <point x="284" y="520" type="line"/>
      <point x="18" y="253" type="line"/>
      <point x="18" y="249" type="line"/>
    </contour>
  </outline>
</glyph>
<glyph name="arrowright" format="1">
  <advance width="591"/>
  <outline>
    <contour>
      <point x="308" y="-18" type="line"/>
      <point x="575" y="249" type="line"/>
      <point x="575" y="253" type="line"/>
      <point x="308" y="520" type="line"/>
      <point x="244" y="448" type="line"/>
      <point x="392" y="306" type="line"/>
      <point x="18" y="306" type="line"/>
      <point x="18" y="196" type="line"/>
      <point x="392" y="196" type="line"/>
      <point x="244" y="54" type="line"/>
    </contour>
  </outline>
</glyph>
<glyph name="asciitilde" format="1">
  <advance width="509"/>
  <outline>
    <contour>
      <point x="342" y="246" type="curve" smooth="yes"/>
      <point x="390" y="246"/>
      <point x="442" y="273"/>
      <point x="485" y="348" type="curve"/>
      <point x="415" y="395" type="line"/>
      <point x="396" y="357"/>
      <point x="374" y="339"/>
      <point x="347" y="339" type="curve" smooth="yes"/>
      <point x="295" y="339"/>
      <point x="257" y="416"/>
      <point x="181" y="416" type="curve" smooth="yes"/>
      <point x="134" y="416"/>
      <point x="81" y="389"/>
      <point x="38" y="314" type="curve"/>
      <point x="108" y="267" type="line"/>
      <point x="127" y="305"/>
      <point x="150" y="323"/>
      <point x="176" y="323" type="curve" smooth="yes"/>
      <point x="229" y="323"/>
      <point x="267" y="246"/>
    </contour>
  </outline>
</glyph>
<glyph name="at" format="1">
  <advance width="866"/>
  <outline>
    <contour>
      <point x="379" y="-170" type="curve" smooth="yes"/>
      <point x="436" y="-170"/>
      <point x="490" y="-155"/>
      <point x="546" y="-126" type="curve"/>
      <point x="510" y="-52" type="line"/>
      <point x="476" y="-73"/>
      <point x="428" y="-86"/>
      <point x="391" y="-86" type="curve" smooth="yes"/>
      <point x="264" y="-86"/>
      <point x="137" y="0"/>
      <point x="137" y="178" type="curve" smooth="yes"/>
      <point x="137" y="409"/>
      <point x="322" y="585"/>
      <point x="490" y="585" type="curve" smooth="yes"/>
      <point x="676" y="585"/>
      <point x="742" y="469"/>
      <point x="742" y="344" type="curve" smooth="yes"/>
      <point x="742" y="199"/>
      <point x="670" y="124"/>
      <point x="616" y="124" type="curve" smooth="yes"/>
      <point x="573" y="124"/>
      <point x="560" y="153"/>
      <point x="573" y="210" type="curve" smooth="yes"/>
      <point x="624" y="432" type="line"/>
      <point x="541" y="432" type="line"/>
      <point x="526" y="391" type="line"/>
      <point x="524" y="391" type="line"/>
      <point x="507" y="425"/>
      <point x="485" y="440"/>
      <point x="454" y="440" type="curve" smooth="yes"/>
      <point x="343" y="440"/>
      <point x="251" y="318"/>
      <point x="251" y="193" type="curve" smooth="yes"/>
      <point x="251" y="106"/>
      <point x="305" y="49"/>
      <point x="376" y="49" type="curve" smooth="yes"/>
      <point x="417" y="49"/>
      <point x="463" y="76"/>
      <point x="488" y="114" type="curve"/>
      <point x="492" y="114" type="line"/>
      <point x="504" y="65"/>
      <point x="544" y="39"/>
      <point x="591" y="39" type="curve" smooth="yes"/>
      <point x="719" y="39"/>
      <point x="830" y="146"/>
      <point x="830" y="358" type="curve" smooth="yes"/>
      <point x="830" y="530"/>
      <point x="710" y="666"/>
      <point x="503" y="666" type="curve" smooth="yes"/>
      <point x="260" y="666"/>
      <point x="43" y="446"/>
      <point x="43" y="162" type="curve" smooth="yes"/>
      <point x="43" y="-59"/>
      <point x="200" y="-170"/>
    </contour>
    <contour>
      <point x="404" y="134" type="curve" smooth="yes"/>
      <point x="372" y="134"/>
      <point x="353" y="158"/>
      <point x="353" y="201" type="curve" smooth="yes"/>
      <point x="353" y="266"/>
      <point x="398" y="353"/>
      <point x="457" y="353" type="curve" smooth="yes"/>
      <point x="476" y="353"/>
      <point x="490" y="344"/>
      <point x="501" y="322" type="curve"/>
      <point x="470" y="183" type="line"/>
      <point x="445" y="148"/>
      <point x="425" y="134"/>
    </contour>
  </outline>
</glyph>
<glyph name="b.sups" format="1">
  <advance width="370"/>
  <outline>
    <contour>
      <point x="121" y="262" type="line"/>
      <point x="136" y="297" type="line"/>
      <point x="140" y="297" type="line"/>
      <point x="153" y="270"/>
      <point x="178" y="254"/>
      <point x="207" y="254" type="curve" smooth="yes"/>
      <point x="298" y="254"/>
      <point x="384" y="353"/>
      <point x="384" y="478" type="curve" smooth="yes"/>
      <point x="384" y="556"/>
      <point x="348" y="599"/>
      <point x="290" y="599" type="curve" smooth="yes"/>
      <point x="256" y="599"/>
      <point x="222" y="581"/>
      <point x="196" y="558" type="curve"/>
      <point x="192" y="558" type="line"/>
      <point x="212" y="622" type="line"/>
      <point x="232" y="724" type="line"/>
      <point x="135" y="724" type="line"/>
      <point x="43" y="262" type="line"/>
    </contour>
    <contour>
      <point x="250" y="521" type="curve" smooth="yes"/>
      <point x="271" y="521"/>
      <point x="286" y="504"/>
      <point x="286" y="466" type="curve" smooth="yes"/>
      <point x="286" y="390"/>
      <point x="243" y="332"/>
      <point x="200" y="332" type="curve" smooth="yes"/>
      <point x="186" y="332"/>
      <point x="170" y="341"/>
      <point x="160" y="362" type="curve"/>
      <point x="181" y="476" type="line"/>
      <point x="203" y="510"/>
      <point x="229" y="521"/>
    </contour>
  </outline>
</glyph>
<glyph name="b.sups" format="1">
  <advance width="370"/>
  <outline>
    <contour>
      <point x="121" y="375" type="line"/>
      <point x="136" y="411" type="line"/>
      <point x="140" y="411" type="line"/>
      <point x="153" y="384"/>
      <point x="178" y="367"/>
      <point x="207" y="367" type="curve" smooth="yes"/>
      <point x="298" y="367"/>
      <point x="384" y="467"/>
      <point x="384" y="592" type="curve" smooth="yes"/>
      <point x="384" y="669"/>
      <point x="348" y="713"/>
      <point x="290" y="713" type="curve" smooth="yes"/>
      <point x="256" y="713"/>
      <point x="222" y="694"/>
      <point x="196" y="671" type="curve"/>
      <point x="192" y="671" type="line"/>
      <point x="212" y="736" type="line"/>
      <point x="232" y="838" type="line"/>
      <point x="135" y="838" type="line"/>
      <point x="43" y="375" type="line"/>
    </contour>
    <contour>
      <point x="250" y="634" type="curve" smooth="yes"/>
      <point x="271" y="634"/>
      <point x="286" y="617"/>
      <point x="286" y="579" type="curve" smooth="yes"/>
      <point x="286" y="504"/>
      <point x="243" y="446"/>
      <point x="200" y="446" type="curve" smooth="yes"/>
      <point x="186" y="446"/>
      <point x="170" y="455"/>
      <point x="160" y="476" type="curve"/>
      <point x="181" y="589" type="line"/>
      <point x="203" y="623"/>
      <point x="229" y="634"/>
    </contour>
  </outline>
</glyph>
<glyph name="backslash" format="1">
  <advance width="329"/>
  <outline>
    <contour>
      <point x="161" y="-160" type="line"/>
      <point x="250" y="-160" type="line"/>
      <point x="173" y="710" type="line"/>
      <point x="85" y="710" type="line"/>
    </contour>
  </outline>
</glyph>
<glyph name="braceleft" format="1">
  <advance width="328"/>
  <outline>
    <contour>
      <point x="142" y="-152" type="curve" smooth="yes"/>
      <point x="203" y="-152" type="line"/>
      <point x="217" y="-79" type="line"/>
      <point x="200" y="-79" type="line" smooth="yes"/>
      <point x="167" y="-79"/>
      <point x="158" y="-68"/>
      <point x="158" y="-41" type="curve" smooth="yes"/>
      <point x="158" y="16"/>
      <point x="204" y="135"/>
      <point x="204" y="202" type="curve" smooth="yes"/>
      <point x="204" y="243"/>
      <point x="185" y="263"/>
      <point x="148" y="272" type="curve"/>
      <point x="148" y="276" type="line"/>
      <point x="201" y="288"/>
      <point x="231" y="321"/>
      <point x="247" y="397" type="curve" smooth="yes"/>
      <point x="258" y="456"/>
      <point x="264" y="507"/>
      <point x="275" y="560" type="curve" smooth="yes"/>
      <point x="285" y="615"/>
      <point x="300" y="635"/>
      <point x="341" y="635" type="curve" smooth="yes"/>
      <point x="360" y="635" type="line"/>
      <point x="376" y="708" type="line"/>
      <point x="312" y="708" type="line" smooth="yes"/>
      <point x="224" y="708"/>
      <point x="188" y="673"/>
      <point x="166" y="565" type="curve" smooth="yes"/>
      <point x="152" y="496"/>
      <point x="154" y="457"/>
      <point x="142" y="395" type="curve" smooth="yes"/>
      <point x="134" y="360"/>
      <point x="110" y="320"/>
      <point x="44" y="318" type="curve"/>
      <point x="26" y="238" type="line"/>
      <point x="81" y="236"/>
      <point x="96" y="208"/>
      <point x="96" y="179" type="curve" smooth="yes"/>
      <point x="96" y="130"/>
      <point x="45" y="13"/>
      <point x="45" y="-65" type="curve" smooth="yes"/>
      <point x="45" y="-122"/>
      <point x="71" y="-152"/>
    </contour>
  </outline>
</glyph>
<glyph name="breveacute.cap" format="1">
  <outline>
    <contour>
      <point x="124" y="697" type="curve" smooth="yes"/>
      <point x="223" y="697"/>
      <point x="287" y="745"/>
      <point x="311" y="834" type="curve"/>
      <point x="242" y="848" type="line"/>
      <point x="223" y="801"/>
      <point x="187" y="774"/>
      <point x="138" y="774" type="curve" smooth="yes"/>
      <point x="89" y="774"/>
      <point x="62" y="801"/>
      <point x="60" y="848" type="curve"/>
      <point x="-16" y="834" type="line"/>
      <point x="-21" y="745"/>
      <point x="25" y="697"/>
    </contour>
    <contour>
      <point x="149" y="812" type="line"/>
      <point x="287" y="927" type="line"/>
      <point x="206" y="991" type="line"/>
      <point x="86" y="864" type="line"/>
    </contour>
    <contour>
      <point x="136" y="682" type="move" name="_aboveUC"/>
    </contour>
  </outline>
</glyph>
<glyph name="breveacute" format="1">
  <outline>
    <contour>
      <point x="114" y="572" type="curve" smooth="yes"/>
      <point x="229" y="572"/>
      <point x="293" y="641"/>
      <point x="311" y="729" type="curve"/>
      <point x="239" y="743" type="line"/>
      <point x="223" y="695"/>
      <point x="187" y="655"/>
      <point x="130" y="655" type="curve" smooth="yes"/>
      <point x="72" y="655"/>
      <point x="50" y="695"/>
      <point x="52" y="743" type="curve"/>
      <point x="-27" y="729" type="line"/>
      <point x="-39" y="641"/>
      <point x="0" y="572"/>
    </contour>
    <contour>
      <point x="144" y="708" type="line"/>
      <point x="281" y="815" type="line"/>
      <point x="207" y="887" type="line"/>
      <point x="88" y="757" type="line"/>
    </contour>
    <contour>
      <point x="112" y="518" type="move" name="_aboveLC"/>
    </contour>
  </outline>
</glyph>
<glyph name="breveacute.cap" format="1">
  <advance width="0"/>
  <outline>
    <contour>
      <point x="136" y="682" type="move" name="_aboveUC"/>
    </contour>
    <contour>
      <point x="124" y="697" type="curve" smooth="yes"/>
      <point x="223" y="697"/>
      <point x="287" y="745"/>
      <point x="311" y="834" type="curve"/>
      <point x="242" y="848" type="line"/>
      <point x="223" y="801"/>
      <point x="187" y="774"/>
      <point x="138" y="774" type="curve" smooth="yes"/>
      <point x="89" y="774"/>
      <point x="62" y="801"/>
      <point x="60" y="848" type="curve"/>
      <point x="-16" y="834" type="line"/>
      <point x="-21" y="745"/>
      <point x="25" y="697"/>
    </contour>
    <contour>
      <point x="149" y="812" type="line"/>
      <point x="287" y="927" type="line"/>
      <point x="206" y="991" type="line"/>
      <point x="86" y="864" type="line"/>
    </contour>
  </outline>
</glyph>
<glyph name="brevecmb.cap" format="1">
  <outline>
    <contour>
      <point x="124" y="697" type="curve" smooth="yes"/>
      <point x="223" y="697"/>
      <point x="287" y="745"/>
      <point x="311" y="834" type="curve"/>
      <point x="234" y="848" type="line"/>
      <point x="217" y="807"/>
      <point x="184" y="782"/>
      <point x="140" y="782" type="curve" smooth="yes"/>
      <point x="95" y="782"/>
      <point x="68" y="807"/>
      <point x="68" y="848" type="curve"/>
      <point x="-16" y="834" type="line"/>
      <point x="-21" y="745"/>
      <point x="25" y="697"/>
    </contour>
    <contour>
      <point x="136" y="682" type="move" name="_aboveUC"/>
    </contour>
  </outline>
</glyph>
<glyph name="brevecmb" format="1">
  <outline>
    <contour>
      <point x="114" y="572" type="curve" smooth="yes"/>
      <point x="229" y="572"/>
      <point x="293" y="641"/>
      <point x="311" y="729" type="curve"/>
      <point x="231" y="743" type="line"/>
      <point x="216" y="700"/>
      <point x="184" y="664"/>
      <point x="132" y="664" type="curve" smooth="yes"/>
      <point x="79" y="664"/>
      <point x="58" y="700"/>
      <point x="60" y="743" type="curve"/>
      <point x="-27" y="729" type="line"/>
      <point x="-39" y="641"/>
      <point x="0" y="572"/>
    </contour>
    <contour>
      <point x="112" y="518" type="move" name="_aboveLC"/>
    </contour>
  </outline>
</glyph>
<glyph name="brevegrave.cap" format="1">
  <advance width="0"/>
  <outline>
    <contour>
      <point x="123" y="682" type="move" name="_aboveUC"/>
    </contour>
    <contour>
      <point x="200" y="842" type="line"/>
      <point x="133" y="982" type="line"/>
      <point x="30" y="938" type="line"/>
      <point x="118" y="804" type="line"/>
    </contour>
    <contour>
      <point x="111" y="697" type="curve" smooth="yes"/>
      <point x="208" y="697"/>
      <point x="269" y="743"/>
      <point x="293" y="829" type="curve"/>
      <point x="225" y="843" type="line"/>
      <point x="206" y="798"/>
      <point x="171" y="774"/>
      <point x="125" y="774" type="curve" smooth="yes"/>
      <point x="79" y="774"/>
      <point x="53" y="798"/>
      <point x="51" y="843" type="curve"/>
      <point x="-24" y="829" type="line"/>
      <point x="-30" y="743"/>
      <point x="15" y="697"/>
    </contour>
  </outline>
</glyph>
<glyph name="brevegrave" format="1">
  <advance width="0"/>
  <outline>
    <contour>
      <point x="105" y="518" type="move" name="_aboveLC"/>
    </contour>
    <contour>
      <point x="122" y="698" type="line"/>
      <point x="194" y="733" type="line"/>
      <point x="128" y="880" type="line"/>
      <point x="30" y="826" type="line"/>
    </contour>
    <contour>
      <point x="106" y="573" type="curve" smooth="yes"/>
      <point x="217" y="573"/>
      <point x="278" y="638"/>
      <point x="296" y="725" type="curve"/>
      <point x="224" y="738" type="line"/>
      <point x="209" y="691"/>
      <point x="175" y="656"/>
      <point x="121" y="656" type="curve" smooth="yes"/>
      <point x="68" y="656"/>
      <point x="47" y="690"/>
      <point x="49" y="738" type="curve"/>
      <point x="-29" y="725" type="line"/>
      <point x="-41" y="638"/>
      <point x="-4" y="573"/>
    </contour>
  </outline>
</glyph>
<glyph name="brevehoi.cap" format="1">
  <advance width="0"/>
  <outline>
    <contour>
      <point x="122" y="682" type="move" name="_aboveUC"/>
    </contour>
    <contour>
      <point x="88" y="809" type="line"/>
      <point x="157" y="810"/>
      <point x="210" y="830"/>
      <point x="218" y="889" type="curve" smooth="yes"/>
      <point x="225" y="929"/>
      <point x="196" y="966"/>
      <point x="88" y="977" type="curve"/>
      <point x="64" y="920" type="line"/>
      <point x="113" y="912"/>
      <point x="125" y="901"/>
      <point x="123" y="884" type="curve" smooth="yes"/>
      <point x="121" y="866"/>
      <point x="106" y="860"/>
      <point x="84" y="856" type="curve"/>
    </contour>
    <contour>
      <point x="111" y="697" type="curve" smooth="yes"/>
      <point x="208" y="697"/>
      <point x="269" y="743"/>
      <point x="293" y="829" type="curve"/>
      <point x="225" y="843" type="line"/>
      <point x="206" y="798"/>
      <point x="171" y="774"/>
      <point x="125" y="774" type="curve" smooth="yes"/>
      <point x="79" y="774"/>
      <point x="53" y="798"/>
      <point x="51" y="843" type="curve"/>
      <point x="-24" y="829" type="line"/>
      <point x="-30" y="743"/>
      <point x="15" y="697"/>
    </contour>
  </outline>
</glyph>
<glyph name="brevehoi" format="1">
  <advance width="0"/>
  <outline>
    <contour>
      <point x="112" y="518" type="move" name="_aboveLC"/>
    </contour>
    <contour>
      <point x="112" y="572" type="curve" smooth="yes"/>
      <point x="228" y="572"/>
      <point x="292" y="641"/>
      <point x="312" y="729" type="curve"/>
      <point x="239" y="743" type="line"/>
      <point x="222" y="695"/>
      <point x="186" y="655"/>
      <point x="128" y="655" type="curve" smooth="yes"/>
      <point x="71" y="655"/>
      <point x="49" y="695"/>
      <point x="52" y="743" type="curve"/>
      <point x="-26" y="729" type="line"/>
      <point x="-40" y="641"/>
      <point x="-1" y="572"/>
    </contour>
    <contour>
      <point x="102" y="697" type="line"/>
      <point x="168" y="705"/>
      <point x="226" y="726"/>
      <point x="238" y="791" type="curve" smooth="yes"/>
      <point x="249" y="848"/>
      <point x="217" y="885"/>
      <point x="107" y="889" type="curve"/>
      <point x="79" y="809" type="line"/>
      <point x="130" y="805"/>
      <point x="144" y="795"/>
      <point x="140" y="776" type="curve" smooth="yes"/>
      <point x="137" y="758"/>
      <point x="122" y="751"/>
      <point x="102" y="748" type="curve"/>
    </contour>
  </outline>
</glyph>
<glyph name="brevehoi.cap" format="1">
  <advance width="0"/>
  <outline>
    <contour>
      <point x="135" y="682" type="move" name="_aboveUC"/>
    </contour>
    <contour>
      <point x="122" y="697" type="curve" smooth="yes"/>
      <point x="222" y="697"/>
      <point x="286" y="745"/>
      <point x="312" y="834" type="curve"/>
      <point x="242" y="848" type="line"/>
      <point x="223" y="801"/>
      <point x="186" y="774"/>
      <point x="137" y="774" type="curve" smooth="yes"/>
      <point x="88" y="774"/>
      <point x="61" y="801"/>
      <point x="60" y="848" type="curve"/>
      <point x="-15" y="834" type="line"/>
      <point x="-22" y="745"/>
      <point x="23" y="697"/>
    </contour>
    <contour>
      <point x="111" y="806" type="line"/>
      <point x="176" y="811"/>
      <point x="232" y="834"/>
      <point x="243" y="893" type="curve" smooth="yes"/>
      <point x="251" y="937"/>
      <point x="221" y="970"/>
      <point x="113" y="974" type="curve"/>
      <point x="87" y="913" type="line"/>
      <point x="137" y="909"/>
      <point x="150" y="899"/>
      <point x="146" y="880" type="curve" smooth="yes"/>
      <point x="143" y="863"/>
      <point x="128" y="857"/>
      <point x="108" y="853" type="curve"/>
    </contour>
  </outline>
</glyph>
<glyph name="brevetilde.cap" format="1">
  <advance width="0"/>
  <outline>
    <contour>
      <point x="123" y="682" type="move" name="_aboveUC"/>
    </contour>
    <contour>
      <point x="115" y="702" type="curve" smooth="yes"/>
      <point x="211" y="702"/>
      <point x="266" y="746"/>
      <point x="286" y="813" type="curve"/>
      <point x="218" y="824" type="line"/>
      <point x="204" y="797"/>
      <point x="178" y="772"/>
      <point x="127" y="772" type="curve" smooth="yes"/>
      <point x="75" y="772"/>
      <point x="58" y="796"/>
      <point x="54" y="824" type="curve"/>
      <point x="-18" y="813" type="line"/>
      <point x="-23" y="746"/>
      <point x="17" y="702"/>
    </contour>
    <contour>
      <point x="-7" y="860" type="curve"/>
      <point x="62" y="852" type="line"/>
      <point x="70" y="879"/>
      <point x="83" y="891"/>
      <point x="100" y="891" type="curve" smooth="yes"/>
      <point x="125" y="891"/>
      <point x="147" y="846"/>
      <point x="198" y="846" type="curve" smooth="yes"/>
      <point x="251" y="846"/>
      <point x="292" y="881"/>
      <point x="309" y="958" type="curve"/>
      <point x="241" y="966" type="line"/>
      <point x="232" y="938"/>
      <point x="220" y="926"/>
      <point x="202" y="926" type="curve" smooth="yes"/>
      <point x="177" y="926"/>
      <point x="155" y="971"/>
      <point x="104" y="971" type="curve" smooth="yes"/>
      <point x="51" y="971"/>
      <point x="10" y="937"/>
    </contour>
  </outline>
</glyph>
<glyph name="brevetilde" format="1">
  <advance width="0"/>
  <outline>
    <contour>
      <point x="105" y="518" type="move" name="_aboveLC"/>
    </contour>
    <contour>
      <point x="108" y="573" type="curve" smooth="yes"/>
      <point x="208" y="573"/>
      <point x="260" y="625"/>
      <point x="278" y="686" type="curve"/>
      <point x="208" y="697" type="line"/>
      <point x="196" y="670"/>
      <point x="169" y="646"/>
      <point x="120" y="646" type="curve" smooth="yes"/>
      <point x="71" y="646"/>
      <point x="54" y="670"/>
      <point x="52" y="697" type="curve"/>
      <point x="-21" y="686" type="line"/>
      <point x="-26" y="625"/>
      <point x="8" y="573"/>
    </contour>
    <contour>
      <point x="188" y="713" type="curve" smooth="yes"/>
      <point x="241" y="713"/>
      <point x="284" y="748"/>
      <point x="306" y="825" type="curve"/>
      <point x="233" y="831" type="line"/>
      <point x="222" y="805"/>
      <point x="208" y="793"/>
      <point x="194" y="793" type="curve" smooth="yes"/>
      <point x="165" y="793"/>
      <point x="153" y="837"/>
      <point x="99" y="837" type="curve" smooth="yes"/>
      <point x="46" y="837"/>
      <point x="3" y="802"/>
      <point x="-17" y="725" type="curve"/>
      <point x="56" y="718" type="line"/>
      <point x="65" y="744"/>
      <point x="79" y="757"/>
      <point x="94" y="757" type="curve" smooth="yes"/>
      <point x="122" y="757"/>
      <point x="134" y="713"/>
    </contour>
  </outline>
</glyph>
<glyph name="brokenbar" format="1">
  <advance width="255"/>
  <outline>
    <contour>
      <point x="88" y="309" type="line"/>
      <point x="174" y="309" type="line"/>
      <point x="174" y="750" type="line"/>
      <point x="88" y="750" type="line"/>
    </contour>
    <contour>
      <point x="88" y="-250" type="line"/>
      <point x="174" y="-250" type="line"/>
      <point x="174" y="205" type="line"/>
      <point x="88" y="205" type="line"/>
    </contour>
  </outline>
</glyph>
<glyph name="bstroke" format="1">
  <advance width="546"/>
  <outline>
    <contour>
      <point x="127" y="0" type="line"/>
      <point x="149" y="53" type="line"/>
      <point x="151" y="53" type="line"/>
      <point x="170" y="13"/>
      <point x="211" y="-12"/>
      <point x="256" y="-12" type="curve" smooth="yes"/>
      <point x="392" y="-12"/>
      <point x="516" y="133"/>
      <point x="516" y="316" type="curve" smooth="yes"/>
      <point x="516" y="427"/>
      <point x="464" y="488"/>
      <point x="376" y="488" type="curve" smooth="yes"/>
      <point x="327" y="488"/>
      <point x="276" y="465"/>
      <point x="232" y="429" type="curve"/>
      <point x="230" y="429" type="line"/>
      <point x="255" y="522" type="line"/>
      <point x="292" y="701" type="line"/>
      <point x="155" y="701" type="line"/>
      <point x="14" y="0" type="line"/>
    </contour>
    <contour>
      <point x="317" y="376" type="curve" smooth="yes"/>
      <point x="352" y="376"/>
      <point x="375" y="352"/>
      <point x="375" y="299" type="curve" smooth="yes"/>
      <point x="375" y="186"/>
      <point x="315" y="100"/>
      <point x="246" y="100" type="curve" smooth="yes"/>
      <point x="221" y="100"/>
      <point x="196" y="114"/>
      <point x="181" y="147" type="curve"/>
      <point x="215" y="314" type="line"/>
      <point x="244" y="360"/>
      <point x="286" y="376"/>
    </contour>
    <contour>
      <point x="58" y="558" type="line"/>
      <point x="423" y="558" type="line"/>
      <point x="438" y="625" type="line"/>
      <point x="145" y="625" type="line"/>
      <point x="71" y="619" type="line"/>
    </contour>
  </outline>
</glyph>
<glyph name="c" format="1">
  <advance width="443"/>
  <outline>
    <contour>
      <point x="223" y="-12" type="curve" smooth="yes"/>
      <point x="301" y="-12"/>
      <point x="352" y="18"/>
      <point x="389" y="46" type="curve"/>
      <point x="332" y="130" type="line"/>
      <point x="311" y="114"/>
      <point x="287" y="98"/>
      <point x="253" y="98" type="curve" smooth="yes"/>
      <point x="197" y="98"/>
      <point x="169" y="135"/>
      <point x="169" y="195" type="curve" smooth="yes"/>
      <point x="169" y="306"/>
      <point x="233" y="398"/>
      <point x="312" y="398" type="curve" smooth="yes"/>
      <point x="340" y="398"/>
      <point x="358" y="387"/>
      <point x="378" y="366" type="curve"/>
      <point x="454" y="447" type="line"/>
      <point x="429" y="478"/>
      <point x="383" y="508"/>
      <point x="321" y="508" type="curve" smooth="yes"/>
      <point x="158" y="508"/>
      <point x="29" y="364"/>
      <point x="29" y="192" type="curve" smooth="yes"/>
      <point x="29" y="63"/>
      <point x="113" y="-12"/>
    </contour>
    <contour>
      <point x="320" y="518" type="move" name="aboveLC"/>
    </contour>
    <contour>
      <point x="206" y="0" type="move" name="baseLC"/>
    </contour>
    <contour>
      <point x="223" y="-22" type="move" name="belowLC"/>
    </contour>
  </outline>
</glyph>
<glyph name="c.sups" format="1">
  <advance width="296"/>
  <outline>
    <contour>
      <point x="184" y="254" type="curve" smooth="yes"/>
      <point x="229" y="254"/>
      <point x="267" y="271"/>
      <point x="288" y="288" type="curve"/>
      <point x="257" y="349" type="line"/>
      <point x="242" y="340"/>
      <point x="228" y="330"/>
      <point x="205" y="330" type="curve" smooth="yes"/>
      <point x="176" y="330"/>
      <point x="150" y="351"/>
      <point x="150" y="396" type="curve" smooth="yes"/>
      <point x="150" y="460"/>
      <point x="190" y="522"/>
      <point x="244" y="522" type="curve" smooth="yes"/>
      <point x="261" y="522"/>
      <point x="272" y="516"/>
      <point x="285" y="501" type="curve"/>
      <point x="340" y="559" type="line"/>
      <point x="319" y="580"/>
      <point x="288" y="599"/>
      <point x="248" y="599" type="curve" smooth="yes"/>
      <point x="135" y="599"/>
      <point x="52" y="498"/>
      <point x="52" y="385" type="curve" smooth="yes"/>
      <point x="52" y="303"/>
      <point x="111" y="254"/>
    </contour>
  </outline>
</glyph>
<glyph name="c.sups" format="1">
  <advance width="296"/>
  <outline>
    <contour>
      <point x="184" y="367" type="curve" smooth="yes"/>
      <point x="229" y="367"/>
      <point x="267" y="385"/>
      <point x="288" y="402" type="curve"/>
      <point x="257" y="462" type="line"/>
      <point x="242" y="453"/>
      <point x="228" y="443"/>
      <point x="205" y="443" type="curve" smooth="yes"/>
      <point x="176" y="443"/>
      <point x="150" y="464"/>
      <point x="150" y="510" type="curve" smooth="yes"/>
      <point x="150" y="573"/>
      <point x="190" y="636"/>
      <point x="244" y="636" type="curve" smooth="yes"/>
      <point x="261" y="636"/>
      <point x="272" y="629"/>
      <point x="285" y="615" type="curve"/>
      <point x="340" y="673" type="line"/>
      <point x="319" y="694"/>
      <point x="288" y="713"/>
      <point x="248" y="713" type="curve" smooth="yes"/>
      <point x="135" y="713"/>
      <point x="52" y="612"/>
      <point x="52" y="498" type="curve" smooth="yes"/>
      <point x="52" y="416"/>
      <point x="111" y="367"/>
    </contour>
  </outline>
</glyph>
<glyph name="caron.alt" format="1">
  <outline>
    <contour>
      <point x="18" y="548" type="line"/>
      <point x="78" y="548" type="line"/>
      <point x="131" y="701" type="line"/>
      <point x="145" y="770" type="line"/>
      <point x="58" y="770" type="line"/>
    </contour>
  </outline>
</glyph>
<glyph name="caroncmb.cap" format="1">
  <advance width="0"/>
  <outline>
    <contour>
      <point x="136" y="682" type="move" name="_aboveUC"/>
    </contour>
    <contour>
      <point x="40" y="702" type="line"/>
      <point x="199" y="702" type="line"/>
      <point x="304" y="810" type="line"/>
      <point x="245" y="847" type="line"/>
      <point x="133" y="767" type="line"/>
      <point x="129" y="767" type="line"/>
      <point x="47" y="847" type="line"/>
      <point x="-26" y="810" type="line"/>
    </contour>
  </outline>
</glyph>
<glyph name="caroncmb" format="1">
  <advance width="0"/>
  <outline>
    <contour>
      <point x="112" y="518" type="move" name="_aboveLC"/>
    </contour>
    <contour>
      <point x="29" y="579" type="line"/>
      <point x="179" y="579" type="line"/>
      <point x="310" y="706" type="line"/>
      <point x="262" y="762" type="line"/>
      <point x="114" y="666" type="line"/>
      <point x="110" y="666" type="line"/>
      <point x="5" y="762" type="line"/>
      <point x="-57" y="710" type="line"/>
    </contour>
  </outline>
</glyph>
<glyph name="caroncmb.cap" format="1">
  <advance width="0"/>
  <outline>
    <contour>
      <point x="136" y="682" type="move" name="_aboveUC"/>
    </contour>
    <contour>
      <point x="39" y="702" type="line"/>
      <point x="199" y="702" type="line"/>
      <point x="309" y="808" type="line"/>
      <point x="252" y="852" type="line"/>
      <point x="126" y="768" type="line"/>
      <point x="122" y="768" type="line"/>
      <point x="37" y="851" type="line"/>
      <point x="-30" y="812" type="line"/>
    </contour>
  </outline>
</glyph>
<glyph name="cedi" format="1">
  <advance width="509"/>
  <outline>
    <contour>
      <point x="266" y="-12" type="curve" smooth="yes"/>
      <point x="323" y="-12"/>
      <point x="386" y="9"/>
      <point x="451" y="65" type="curve"/>
      <point x="387" y="146" type="line"/>
      <point x="359" y="118"/>
      <point x="328" y="98"/>
      <point x="294" y="98" type="curve" smooth="yes"/>
      <point x="227" y="98"/>
      <point x="193" y="154"/>
      <point x="193" y="248" type="curve" smooth="yes"/>
      <point x="193" y="409"/>
      <point x="257" y="545"/>
      <point x="363" y="545" type="curve" smooth="yes"/>
      <point x="404" y="545"/>
      <point x="425" y="524"/>
      <point x="446" y="484" type="curve"/>
      <point x="541" y="546" type="line"/>
      <point x="505" y="608"/>
      <point x="459" y="655"/>
      <point x="377" y="655" type="curve" smooth="yes"/>
      <point x="203" y="655"/>
      <point x="56" y="488"/>
      <point x="56" y="238" type="curve" smooth="yes"/>
      <point x="56" y="79"/>
      <point x="135" y="-12"/>
    </contour>
    <contour>
      <point x="200" y="-110" type="line"/>
      <point x="276" y="-110" type="line"/>
      <point x="446" y="743" type="line"/>
      <point x="370" y="743" type="line"/>
    </contour>
  </outline>
</glyph>
<glyph name="cedillacmb" format="1">
  <advance width="0"/>
  <outline>
    <contour>
      <point x="0" y="0" type="move" name="_baseLC"/>
    </contour>
    <contour>
      <point x="-142" y="-238" type="line"/>
      <point x="-20" y="-233"/>
      <point x="58" y="-201"/>
      <point x="69" y="-132" type="curve" smooth="yes"/>
      <point x="74" y="-92"/>
      <point x="52" y="-71"/>
      <point x="7" y="-60" type="curve"/>
      <point x="47" y="4" type="line"/>
      <point x="-38" y="4" type="line"/>
      <point x="-104" y="-92" type="line"/>
      <point x="-47" y="-100"/>
      <point x="-34" y="-114"/>
      <point x="-36" y="-133" type="curve" smooth="yes"/>
      <point x="-41" y="-163"/>
      <point x="-70" y="-174"/>
      <point x="-142" y="-180" type="curve"/>
    </contour>
  </outline>
</glyph>
<glyph name="cedillacmb.cap" format="1">
  <advance width="0"/>
  <outline>
    <contour>
      <point x="0" y="0" type="move" name="_baseLC"/>
    </contour>
    <component base="cedillacmb"/>
  </outline>
</glyph>
<glyph name="ceilingleft" format="1">
  <advance width="330"/>
  <outline>
    <contour>
      <point x="27" y="0" type="line"/>
      <point x="130" y="0" type="line"/>
      <point x="252" y="618" type="line"/>
      <point x="351" y="618" type="line"/>
      <point x="365" y="691" type="line"/>
      <point x="164" y="691" type="line"/>
    </contour>
  </outline>
</glyph>
<glyph name="cent" format="1">
  <advance width="509"/>
  <outline>
    <contour>
      <point x="270" y="76" type="curve" smooth="yes"/>
      <point x="337" y="76"/>
      <point x="396" y="97"/>
      <point x="451" y="133" type="curve"/>
      <point x="409" y="221" type="line"/>
      <point x="378" y="198"/>
      <point x="345" y="186"/>
      <point x="304" y="186" type="curve" smooth="yes"/>
      <point x="242" y="186"/>
      <point x="206" y="233"/>
      <point x="206" y="307" type="curve" smooth="yes"/>
      <point x="206" y="403"/>
      <point x="272" y="473"/>
      <point x="357" y="473" type="curve" smooth="yes"/>
      <point x="391" y="473"/>
      <point x="412" y="459"/>
      <point x="438" y="434" type="curve"/>
      <point x="517" y="509" type="line"/>
      <point x="481" y="549"/>
      <point x="439" y="583"/>
      <point x="370" y="583" type="curve" smooth="yes"/>
      <point x="228" y="583"/>
      <point x="72" y="472"/>
      <point x="72" y="286" type="curve" smooth="yes"/>
      <point x="72" y="153"/>
      <point x="152" y="76"/>
    </contour>
    <contour>
      <point x="212" y="-18" type="line"/>
      <point x="288" y="-18" type="line"/>
      <point x="426" y="676" type="line"/>
      <point x="350" y="676" type="line"/>
    </contour>
  </outline>
</glyph>
<glyph name="check" format="1">
  <advance width="564"/>
  <outline>
    <contour>
      <point x="76" y="-20" type="curve"/>
      <point x="207" y="-5" type="line"/>
      <point x="338" y="280"/>
      <point x="506" y="484"/>
      <point x="665" y="614" type="curve"/>
      <point x="596" y="687" type="line"/>
      <point x="434" y="546"/>
      <point x="271" y="321"/>
      <point x="156" y="82" type="curve"/>
      <point x="152" y="82" type="line"/>
      <point x="138" y="166"/>
      <point x="117" y="244"/>
      <point x="83" y="331" type="curve"/>
      <point x="-15" y="280" type="line"/>
      <point x="32" y="183"/>
      <point x="59" y="92"/>
    </contour>
  </outline>
</glyph>
<glyph name="checkbox" format="1">
  <advance width="773"/>
  <outline>
    <contour>
      <point x="70" y="-10" type="line"/>
      <point x="641" y="-10" type="line"/>
      <point x="703" y="61" type="line"/>
      <point x="703" y="673" type="line"/>
      <point x="141" y="673" type="line"/>
      <point x="70" y="611" type="line"/>
    </contour>
    <contour>
      <point x="125" y="45" type="line"/>
      <point x="125" y="588" type="line"/>
      <point x="618" y="588" type="line"/>
      <point x="618" y="45" type="line"/>
    </contour>
  </outline>
</glyph>
<glyph name="circumflexacute.cap" format="1">
  <advance width="0"/>
  <outline>
    <contour>
      <point x="122" y="682" type="move" name="_aboveUC"/>
    </contour>
    <contour>
      <point x="20" y="685" type="line"/>
      <point x="120" y="757" type="line"/>
      <point x="124" y="757" type="line"/>
      <point x="200" y="685" type="line"/>
      <point x="266" y="722" type="line"/>
      <point x="196" y="824" type="line"/>
      <point x="70" y="824" type="line"/>
      <point x="-36" y="722" type="line"/>
    </contour>
    <contour>
      <point x="264" y="762" type="line"/>
      <point x="378" y="832" type="line"/>
      <point x="337" y="891" type="line"/>
      <point x="227" y="812" type="line"/>
    </contour>
  </outline>
</glyph>
<glyph name="circumflexacute" format="1">
  <advance width="0"/>
  <outline>
    <contour>
      <point x="105" y="518" type="move" name="_aboveLC"/>
    </contour>
    <contour>
      <point x="11" y="565" type="line"/>
      <point x="119" y="630" type="line"/>
      <point x="123" y="630" type="line"/>
      <point x="205" y="565" type="line"/>
      <point x="264" y="614" type="line"/>
      <point x="192" y="710" type="line"/>
      <point x="77" y="710" type="line"/>
      <point x="-29" y="614" type="line"/>
    </contour>
    <contour>
      <point x="236" y="685" type="line"/>
      <point x="285" y="640" type="line"/>
      <point x="405" y="751" type="line"/>
      <point x="333" y="805" type="line"/>
    </contour>
  </outline>
</glyph>
<glyph name="circumflexacute.cap" format="1">
  <advance width="0"/>
  <outline>
    <contour>
      <point x="135" y="682" type="move" name="_aboveUC"/>
    </contour>
    <contour>
      <point x="29" y="685" type="line"/>
      <point x="134" y="757" type="line"/>
      <point x="138" y="757" type="line"/>
      <point x="218" y="685" type="line"/>
      <point x="282" y="724" type="line"/>
      <point x="210" y="824" type="line"/>
      <point x="83" y="824" type="line"/>
      <point x="-24" y="724" type="line"/>
    </contour>
    <contour>
      <point x="277" y="763" type="line"/>
      <point x="395" y="828" type="line"/>
      <point x="357" y="892" type="line"/>
      <point x="242" y="816" type="line"/>
    </contour>
  </outline>
</glyph>
<glyph name="circumflexbreve.cap" format="1">
  <outline>
    <contour>
      <point x="29" y="685" type="line"/>
      <point x="133" y="757" type="line"/>
      <point x="137" y="757" type="line"/>
      <point x="218" y="685" type="line"/>
      <point x="280" y="724" type="line"/>
      <point x="209" y="816" type="line"/>
      <point x="83" y="816" type="line"/>
      <point x="-19" y="724" type="line"/>
    </contour>
    <contour>
      <point x="152" y="850" type="curve" smooth="yes"/>
      <point x="250" y="850"/>
      <point x="307" y="893"/>
      <point x="326" y="959" type="curve"/>
      <point x="257" y="971" type="line"/>
      <point x="244" y="944"/>
      <point x="218" y="921"/>
      <point x="164" y="921" type="curve" smooth="yes"/>
      <point x="111" y="921"/>
      <point x="92" y="944"/>
      <point x="88" y="971" type="curve"/>
      <point x="16" y="959" type="line"/>
      <point x="13" y="893"/>
      <point x="54" y="850"/>
    </contour>
    <contour>
      <point x="122" y="682" type="move" name="_aboveUC"/>
    </contour>
  </outline>
</glyph>
<glyph name="circumflexbreve" format="1">
  <advance width="0"/>
  <outline>
    <contour>
      <point x="105" y="518" type="move" name="_aboveLC"/>
    </contour>
    <contour>
      <point x="26" y="563" type="line"/>
      <point x="117" y="624" type="line"/>
      <point x="121" y="624" type="line"/>
      <point x="191" y="563" type="line"/>
      <point x="249" y="593" type="line"/>
      <point x="187" y="685" type="line"/>
      <point x="71" y="685" type="line"/>
      <point x="-24" y="593" type="line"/>
    </contour>
    <contour>
      <point x="135" y="718" type="curve" smooth="yes"/>
      <point x="221" y="718"/>
      <point x="261" y="762"/>
      <point x="282" y="816" type="curve"/>
      <point x="230" y="833" type="line"/>
      <point x="214" y="807"/>
      <point x="194" y="786"/>
      <point x="147" y="786" type="curve" smooth="yes"/>
      <point x="99" y="786"/>
      <point x="85" y="807"/>
      <point x="79" y="833" type="curve"/>
      <point x="24" y="816" type="line"/>
      <point x="25" y="762"/>
      <point x="49" y="718"/>
    </contour>
  </outline>
</glyph>
<glyph name="circumflexcmb.cap" format="1">
  <advance width="0"/>
  <outline>
    <contour>
      <point x="136" y="682" type="move" name="_aboveUC"/>
    </contour>
    <contour>
      <point x="22" y="685" type="line"/>
      <point x="133" y="765" type="line"/>
      <point x="137" y="765" type="line"/>
      <point x="220" y="685" type="line"/>
      <point x="292" y="722" type="line"/>
      <point x="227" y="830" type="line"/>
      <point x="68" y="830" type="line"/>
      <point x="-38" y="722" type="line"/>
    </contour>
  </outline>
</glyph>
<glyph name="circumflexcmb" format="1">
  <advance width="0"/>
  <outline>
    <contour>
      <point x="112" y="518" type="move" name="_aboveLC"/>
    </contour>
    <contour>
      <point x="152" y="735" type="move" name="aboveLC"/>
    </contour>
    <contour>
      <point x="-56" y="610" type="line"/>
      <point x="-7" y="560" type="line"/>
      <point x="127" y="647" type="line"/>
      <point x="131" y="647" type="line"/>
      <point x="235" y="560" type="line"/>
      <point x="300" y="610" type="line"/>
      <point x="219" y="739" type="line"/>
      <point x="71" y="739" type="line"/>
    </contour>
  </outline>
</glyph>
<glyph name="circumflexcmb.cap" format="1">
  <advance width="0"/>
  <outline>
    <contour>
      <point x="136" y="682" type="move" name="_aboveUC"/>
    </contour>
    <contour>
      <point x="16" y="685" type="line"/>
      <point x="141" y="769" type="line"/>
      <point x="145" y="769" type="line"/>
      <point x="231" y="686" type="line"/>
      <point x="298" y="724" type="line"/>
      <point x="228" y="835" type="line"/>
      <point x="68" y="835" type="line"/>
      <point x="-41" y="729" type="line"/>
    </contour>
  </outline>
</glyph>
<glyph name="circumflexgrave.cap" format="1">
  <advance width="0"/>
  <outline>
    <contour>
      <point x="122" y="682" type="move" name="_aboveUC"/>
    </contour>
    <contour>
      <point x="20" y="685" type="line"/>
      <point x="120" y="757" type="line"/>
      <point x="124" y="757" type="line"/>
      <point x="200" y="685" type="line"/>
      <point x="266" y="722" type="line"/>
      <point x="196" y="824" type="line"/>
      <point x="70" y="824" type="line"/>
      <point x="-36" y="722" type="line"/>
    </contour>
    <contour>
      <point x="-3" y="758" type="line"/>
      <point x="50" y="800" type="line"/>
      <point x="-32" y="894" type="line"/>
      <point x="-91" y="843" type="line"/>
    </contour>
  </outline>
</glyph>
<glyph name="circumflexgrave" format="1">
  <outline>
    <contour>
      <point x="15" y="566" type="line"/>
      <point x="132" y="634" type="line"/>
      <point x="136" y="634" type="line"/>
      <point x="224" y="566" type="line"/>
      <point x="278" y="615" type="line"/>
      <point x="201" y="710" type="line"/>
      <point x="84" y="710" type="line"/>
      <point x="-25" y="622" type="line"/>
    </contour>
    <contour>
      <point x="-60" y="638" type="line"/>
      <point x="4" y="677" type="line"/>
      <point x="-56" y="808" type="line"/>
      <point x="-143" y="764" type="line"/>
    </contour>
    <contour>
      <point x="112" y="518" type="move" name="_aboveLC"/>
    </contour>
  </outline>
</glyph>
<glyph name="circumflexgrave.cap" format="1">
  <advance width="0"/>
  <outline>
    <contour>
      <point x="135" y="682" type="move" name="_aboveUC"/>
    </contour>
    <contour>
      <point x="29" y="685" type="line"/>
      <point x="134" y="757" type="line"/>
      <point x="138" y="757" type="line"/>
      <point x="218" y="685" type="line"/>
      <point x="282" y="724" type="line"/>
      <point x="210" y="824" type="line"/>
      <point x="83" y="824" type="line"/>
      <point x="-24" y="724" type="line"/>
    </contour>
    <contour>
      <point x="-23" y="761" type="line"/>
      <point x="29" y="805" type="line"/>
      <point x="-57" y="897" type="line"/>
      <point x="-115" y="842" type="line"/>
    </contour>
  </outline>
</glyph>
<glyph name="circumflexhoi.cap" format="1">
  <advance width="0"/>
  <outline>
    <contour>
      <point x="122" y="682" type="move" name="_aboveUC"/>
    </contour>
    <contour>
      <point x="20" y="685" type="line"/>
      <point x="120" y="757" type="line"/>
      <point x="124" y="757" type="line"/>
      <point x="200" y="685" type="line"/>
      <point x="266" y="722" type="line"/>
      <point x="196" y="824" type="line"/>
      <point x="70" y="824" type="line"/>
      <point x="-36" y="722" type="line"/>
    </contour>
    <contour>
      <point x="246" y="754" type="line"/>
      <point x="315" y="754"/>
      <point x="368" y="774"/>
      <point x="376" y="833" type="curve" smooth="yes"/>
      <point x="383" y="874"/>
      <point x="354" y="910"/>
      <point x="246" y="922" type="curve"/>
      <point x="222" y="864" type="line"/>
      <point x="271" y="856"/>
      <point x="283" y="845"/>
      <point x="281" y="828" type="curve" smooth="yes"/>
      <point x="279" y="810"/>
      <point x="264" y="804"/>
      <point x="242" y="800" type="curve"/>
    </contour>
  </outline>
</glyph>
<glyph name="circumflexhoi" format="1">
  <advance width="0"/>
  <outline>
    <contour>
      <point x="105" y="518" type="move" name="_aboveLC"/>
    </contour>
    <contour>
      <point x="11" y="565" type="line"/>
      <point x="119" y="630" type="line"/>
      <point x="123" y="630" type="line"/>
      <point x="205" y="565" type="line"/>
      <point x="264" y="614" type="line"/>
      <point x="192" y="710" type="line"/>
      <point x="77" y="710" type="line"/>
      <point x="-29" y="614" type="line"/>
    </contour>
    <contour>
      <point x="245" y="648" type="line"/>
      <point x="314" y="653"/>
      <point x="369" y="669"/>
      <point x="379" y="735" type="curve" smooth="yes"/>
      <point x="385" y="777"/>
      <point x="355" y="810"/>
      <point x="246" y="823" type="curve"/>
      <point x="222" y="764" type="line"/>
      <point x="271" y="755"/>
      <point x="284" y="744"/>
      <point x="281" y="726" type="curve" smooth="yes"/>
      <point x="279" y="709"/>
      <point x="266" y="702"/>
      <point x="244" y="698" type="curve"/>
    </contour>
  </outline>
</glyph>
<glyph name="circumflexhoi.cap" format="1">
  <advance width="0"/>
  <outline>
    <contour>
      <point x="135" y="682" type="move" name="_aboveUC"/>
    </contour>
    <contour>
      <point x="29" y="685" type="line"/>
      <point x="134" y="757" type="line"/>
      <point x="138" y="757" type="line"/>
      <point x="218" y="685" type="line"/>
      <point x="282" y="724" type="line"/>
      <point x="210" y="824" type="line"/>
      <point x="83" y="824" type="line"/>
      <point x="-24" y="724" type="line"/>
    </contour>
    <contour>
      <point x="269" y="750" type="line"/>
      <point x="333" y="755"/>
      <point x="389" y="778"/>
      <point x="400" y="837" type="curve" smooth="yes"/>
      <point x="409" y="881"/>
      <point x="378" y="914"/>
      <point x="269" y="917" type="curve"/>
      <point x="244" y="857" type="line"/>
      <point x="294" y="854"/>
      <point x="308" y="843"/>
      <point x="303" y="824" type="curve" smooth="yes"/>
      <point x="300" y="807"/>
      <point x="285" y="801"/>
      <point x="266" y="797" type="curve"/>
    </contour>
  </outline>
</glyph>
<glyph name="circumflextilde.cap" format="1">
  <outline>
    <contour>
      <point x="27" y="685" type="line"/>
      <point x="132" y="748" type="line"/>
      <point x="136" y="748" type="line"/>
      <point x="216" y="685" type="line"/>
      <point x="282" y="724" type="line"/>
      <point x="208" y="816" type="line"/>
      <point x="81" y="816" type="line"/>
      <point x="-24" y="724" type="line"/>
    </contour>
    <contour>
      <point x="209" y="838" type="curve" smooth="yes"/>
      <point x="264" y="838"/>
      <point x="304" y="873"/>
      <point x="320" y="949" type="curve"/>
      <point x="252" y="958" type="line"/>
      <point x="244" y="931"/>
      <point x="231" y="919"/>
      <point x="213" y="919" type="curve" smooth="yes"/>
      <point x="186" y="919"/>
      <point x="166" y="963"/>
      <point x="111" y="963" type="curve" smooth="yes"/>
      <point x="55" y="963"/>
      <point x="15" y="928"/>
      <point x="-2" y="852" type="curve"/>
      <point x="68" y="844" type="line"/>
      <point x="76" y="871"/>
      <point x="88" y="882"/>
      <point x="106" y="882" type="curve" smooth="yes"/>
      <point x="134" y="882"/>
      <point x="154" y="838"/>
    </contour>
    <contour>
      <point x="135" y="682" type="move" name="_aboveUC"/>
    </contour>
  </outline>
</glyph>
<glyph name="circumflextilde" format="1">
  <advance width="0"/>
  <outline>
    <contour>
      <point x="105" y="518" type="move" name="_aboveLC"/>
    </contour>
    <contour>
      <point x="9" y="565" type="line"/>
      <point x="117" y="619" type="line"/>
      <point x="121" y="619" type="line"/>
      <point x="207" y="565" type="line"/>
      <point x="266" y="614" type="line"/>
      <point x="191" y="699" type="line"/>
      <point x="74" y="699" type="line"/>
      <point x="-31" y="614" type="line"/>
    </contour>
    <contour>
      <point x="-7" y="727" type="curve"/>
      <point x="57" y="720" type="line"/>
      <point x="69" y="746"/>
      <point x="82" y="758"/>
      <point x="97" y="758" type="curve" smooth="yes"/>
      <point x="125" y="758"/>
      <point x="138" y="715"/>
      <point x="192" y="715" type="curve" smooth="yes"/>
      <point x="240" y="715"/>
      <point x="279" y="749"/>
      <point x="299" y="826" type="curve"/>
      <point x="235" y="833" type="line"/>
      <point x="225" y="807"/>
      <point x="211" y="795"/>
      <point x="197" y="795" type="curve" smooth="yes"/>
      <point x="168" y="795"/>
      <point x="156" y="838"/>
      <point x="102" y="838" type="curve" smooth="yes"/>
      <point x="54" y="838"/>
      <point x="15" y="804"/>
    </contour>
  </outline>
</glyph>
<glyph name="colonmonetary" format="1">
  <advance width="509"/>
  <outline>
    <contour>
      <point x="266" y="-12" type="curve" smooth="yes"/>
      <point x="326" y="-12"/>
      <point x="391" y="9"/>
      <point x="459" y="65" type="curve"/>
      <point x="395" y="146" type="line"/>
      <point x="364" y="118"/>
      <point x="330" y="98"/>
      <point x="294" y="98" type="curve" smooth="yes"/>
      <point x="227" y="98"/>
      <point x="188" y="154"/>
      <point x="188" y="248" type="curve" smooth="yes"/>
      <point x="188" y="409"/>
      <point x="257" y="545"/>
      <point x="363" y="545" type="curve" smooth="yes"/>
      <point x="412" y="545"/>
      <point x="437" y="522"/>
      <point x="463" y="476" type="curve"/>
      <point x="557" y="538" type="line"/>
      <point x="519" y="604"/>
      <point x="467" y="655"/>
      <point x="377" y="655" type="curve" smooth="yes"/>
      <point x="203" y="655"/>
      <point x="56" y="488"/>
      <point x="56" y="238" type="curve" smooth="yes"/>
      <point x="56" y="79"/>
      <point x="135" y="-12"/>
    </contour>
    <contour>
      <point x="112" y="-110" type="line"/>
      <point x="160" y="-110" type="line"/>
      <point x="429" y="753" type="line"/>
      <point x="382" y="753" type="line"/>
    </contour>
    <contour>
      <point x="200" y="-110" type="line"/>
      <point x="247" y="-110" type="line"/>
      <point x="517" y="753" type="line"/>
      <point x="470" y="753" type="line"/>
    </contour>
  </outline>
</glyph>
<glyph name="comma" format="1">
  <advance width="291"/>
  <outline>
    <contour>
      <point x="-13" y="-187" type="line"/>
      <point x="120" y="-159"/>
      <point x="202" y="-60"/>
      <point x="202" y="66" type="curve" smooth="yes"/>
      <point x="202" y="127"/>
      <point x="172" y="163"/>
      <point x="119" y="163" type="curve" smooth="yes"/>
      <point x="62" y="163"/>
      <point x="26" y="119"/>
      <point x="26" y="71" type="curve" smooth="yes"/>
      <point x="26" y="27"/>
      <point x="59" y="0"/>
      <point x="105" y="0" type="curve" smooth="yes"/>
      <point x="120" y="0"/>
      <point x="136" y="9"/>
      <point x="148" y="17" type="curve"/>
      <point x="119" y="101" type="line"/>
      <point x="103" y="2" type="line"/>
      <point x="91" y="-46"/>
      <point x="49" y="-90"/>
      <point x="-27" y="-112" type="curve"/>
    </contour>
  </outline>
</glyph>
<glyph name="commaabovecmb" format="1">
  <outline>
    <contour>
      <point x="77" y="544" type="line"/>
      <point x="163" y="570"/>
      <point x="201" y="625"/>
      <point x="201" y="690" type="curve" smooth="yes"/>
      <point x="201" y="726"/>
      <point x="180" y="750"/>
      <point x="147" y="750" type="curve" smooth="yes"/>
      <point x="115" y="750"/>
      <point x="87" y="726"/>
      <point x="87" y="689" type="curve" smooth="yes"/>
      <point x="87" y="663"/>
      <point x="109" y="644"/>
      <point x="132" y="644" type="curve" smooth="yes"/>
      <point x="147" y="644"/>
      <point x="159" y="649"/>
      <point x="171" y="660" type="curve"/>
      <point x="146" y="706" type="line"/>
      <point x="139" y="653" type="line"/>
      <point x="131" y="620"/>
      <point x="108" y="604"/>
      <point x="65" y="589" type="curve"/>
    </contour>
    <contour>
      <point x="112" y="518" type="move" name="_aboveLC"/>
    </contour>
  </outline>
</glyph>
<glyph name="commabelowcmb.alt" format="1">
  <advance width="0"/>
  <outline>
    <contour>
      <point x="62" y="518" type="move" name="_aboveLC"/>
    </contour>
    <contour>
      <point x="100" y="559" type="curve"/>
      <point x="145" y="606" type="line"/>
      <point x="107" y="616"/>
      <point x="93" y="630"/>
      <point x="100" y="647" type="curve" smooth="yes"/>
      <point x="105" y="671"/>
      <point x="134" y="679"/>
      <point x="208" y="674" type="curve"/>
      <point x="215" y="731" type="line"/>
      <point x="96" y="745"/>
      <point x="14" y="726"/>
      <point x="-6" y="659" type="curve" smooth="yes"/>
      <point x="-20" y="613"/>
      <point x="5" y="583"/>
    </contour>
  </outline>
</glyph>
<glyph name="commabelowcmb" format="1">
  <advance width="0"/>
  <outline>
    <contour>
      <point x="-6" y="-30" type="move" name="_belowLC"/>
    </contour>
    <contour>
      <point x="-157" y="-220" type="line"/>
      <point x="-38" y="-234"/>
      <point x="43" y="-215"/>
      <point x="64" y="-149" type="curve" smooth="yes"/>
      <point x="78" y="-103"/>
      <point x="53" y="-73"/>
      <point x="-42" y="-49" type="curve"/>
      <point x="-87" y="-96" type="line"/>
      <point x="-49" y="-106"/>
      <point x="-35" y="-120"/>
      <point x="-42" y="-136" type="curve" smooth="yes"/>
      <point x="-47" y="-161"/>
      <point x="-76" y="-169"/>
      <point x="-150" y="-163" type="curve"/>
    </contour>
  </outline>
</glyph>
<glyph name="commabelowcmb.alt" format="1">
  <advance width="0"/>
  <outline>
    <contour>
      <point x="70" y="518" type="move" name="_aboveLC"/>
    </contour>
    <contour>
      <point x="121" y="569" type="curve"/>
      <point x="159" y="622" type="line"/>
      <point x="116" y="623"/>
      <point x="103" y="638"/>
      <point x="103" y="654" type="curve" smooth="yes"/>
      <point x="103" y="678"/>
      <point x="133" y="694"/>
      <point x="211" y="697" type="curve"/>
      <point x="213" y="756" type="line"/>
      <point x="88" y="752"/>
      <point x="-6" y="718"/>
      <point x="-6" y="641" type="curve" smooth="yes"/>
      <point x="-6" y="602"/>
      <point x="17" y="574"/>
    </contour>
  </outline>
</glyph>
<glyph name="d.sups" format="1">
  <advance width="380"/>
  <outline>
    <contour>
      <point x="301" y="672" type="line"/>
      <point x="297" y="672" type="line"/>
      <point x="286" y="695"/>
      <point x="260" y="713"/>
      <point x="232" y="713" type="curve" smooth="yes"/>
      <point x="140" y="713"/>
      <point x="54" y="613"/>
      <point x="54" y="488" type="curve" smooth="yes"/>
      <point x="54" y="411"/>
      <point x="90" y="367"/>
      <point x="148" y="367" type="curve" smooth="yes"/>
      <point x="182" y="367"/>
      <point x="221" y="386"/>
      <point x="250" y="418" type="curve"/>
      <point x="254" y="418" type="line"/>
      <point x="252" y="375" type="line"/>
      <point x="330" y="375" type="line"/>
      <point x="422" y="837" type="line"/>
      <point x="325" y="837" type="line"/>
      <point x="306" y="738" type="line"/>
    </contour>
    <contour>
      <point x="188" y="446" type="curve" smooth="yes"/>
      <point x="168" y="446"/>
      <point x="153" y="463"/>
      <point x="153" y="501" type="curve" smooth="yes"/>
      <point x="153" y="576"/>
      <point x="195" y="634"/>
      <point x="238" y="634" type="curve" smooth="yes"/>
      <point x="252" y="634"/>
      <point x="268" y="625"/>
      <point x="278" y="604" type="curve"/>
      <point x="258" y="493" type="line"/>
      <point x="236" y="458"/>
      <point x="210" y="446"/>
    </contour>
  </outline>
</glyph>
<glyph name="dagger" format="1">
  <advance width="488"/>
  <outline>
    <contour>
      <point x="122" y="-80" type="line"/>
      <point x="233" y="-80" type="line"/>
      <point x="330" y="447" type="line"/>
      <point x="482" y="438" type="line"/>
      <point x="503" y="549" type="line"/>
      <point x="348" y="541" type="line"/>
      <point x="391" y="712" type="line"/>
      <point x="280" y="712" type="line"/>
      <point x="254" y="541" type="line"/>
      <point x="104" y="549" type="line"/>
      <point x="81" y="438" type="line"/>
      <point x="237" y="447" type="line"/>
    </contour>
  </outline>
</glyph>
<glyph name="daggerdbl" format="1">
  <advance width="488"/>
  <outline>
    <contour>
      <point x="123" y="-80" type="line"/>
      <point x="233" y="-80" type="line"/>
      <point x="258" y="90" type="line"/>
      <point x="410" y="81" type="line"/>
      <point x="432" y="192" type="line"/>
      <point x="277" y="182" type="line"/>
      <point x="311" y="316" type="line"/>
      <point x="330" y="450" type="line"/>
      <point x="482" y="438" type="line"/>
      <point x="503" y="549" type="line"/>
      <point x="348" y="541" type="line"/>
      <point x="389" y="712" type="line"/>
      <point x="280" y="712" type="line"/>
      <point x="254" y="541" type="line"/>
      <point x="102" y="549" type="line"/>
      <point x="81" y="438" type="line"/>
      <point x="237" y="450" type="line"/>
      <point x="201" y="316" type="line"/>
      <point x="183" y="182" type="line"/>
      <point x="32" y="192" type="line"/>
      <point x="11" y="81" type="line"/>
      <point x="164" y="90" type="line"/>
    </contour>
  </outline>
</glyph>
<glyph name="dblgravecmb.cap" format="1">
  <advance width="0"/>
  <outline>
    <contour>
      <point x="136" y="682" type="move" name="_aboveUC"/>
    </contour>
    <contour>
      <point x="-4" y="693" type="line"/>
      <point x="75" y="719" type="line"/>
      <point x="3" y="879" type="line"/>
      <point x="-100" y="838" type="line"/>
    </contour>
    <contour>
      <point x="182" y="693" type="line"/>
      <point x="262" y="719" type="line"/>
      <point x="190" y="879" type="line"/>
      <point x="87" y="838" type="line"/>
    </contour>
  </outline>
</glyph>
<glyph name="dblgravecmb" format="1">
  <advance width="0"/>
  <outline>
    <contour>
      <point x="112" y="518" type="move" name="_aboveLC"/>
    </contour>
    <contour>
      <point x="-28" y="565" type="line"/>
      <point x="56" y="592" type="line"/>
      <point x="1" y="779" type="line"/>
      <point x="-106" y="744" type="line"/>
    </contour>
    <contour>
      <point x="151" y="565" type="line"/>
      <point x="235" y="592" type="line"/>
      <point x="180" y="779" type="line"/>
      <point x="73" y="744" type="line"/>
    </contour>
  </outline>
</glyph>
<glyph name="dcroat" format="1">
  <advance width="550"/>
  <outline>
    <contour>
      <point x="171" y="-12" type="curve" smooth="yes"/>
      <point x="223" y="-12"/>
      <point x="281" y="18"/>
      <point x="326" y="65" type="curve"/>
      <point x="329" y="65" type="line"/>
      <point x="327" y="0" type="line"/>
      <point x="438" y="0" type="line"/>
      <point x="579" y="701" type="line"/>
      <point x="442" y="701" type="line"/>
      <point x="408" y="522" type="line"/>
      <point x="396" y="428" type="line"/>
      <point x="393" y="428" type="line"/>
      <point x="376" y="464"/>
      <point x="341" y="488"/>
      <point x="296" y="488" type="curve" smooth="yes"/>
      <point x="159" y="488"/>
      <point x="31" y="337"/>
      <point x="31" y="170" type="curve" smooth="yes"/>
      <point x="31" y="53"/>
      <point x="84" y="-12"/>
    </contour>
    <contour>
      <point x="231" y="100" type="curve" smooth="yes"/>
      <point x="195" y="100"/>
      <point x="173" y="127"/>
      <point x="173" y="187" type="curve" smooth="yes"/>
      <point x="173" y="284"/>
      <point x="236" y="376"/>
      <point x="305" y="376" type="curve" smooth="yes"/>
      <point x="329" y="376"/>
      <point x="354" y="362"/>
      <point x="368" y="329" type="curve"/>
      <point x="337" y="173" type="line"/>
      <point x="303" y="117"/>
      <point x="264" y="100"/>
    </contour>
    <contour>
      <point x="271" y="558" type="line"/>
      <point x="544" y="558" type="line"/>
      <point x="617" y="563" type="line"/>
      <point x="631" y="625" type="line"/>
      <point x="284" y="625" type="line"/>
    </contour>
  </outline>
</glyph>
<glyph name="degree" format="1">
  <advance width="348"/>
  <outline>
    <contour>
      <point x="219" y="403" type="curve" smooth="yes"/>
      <point x="300" y="403"/>
      <point x="371" y="473"/>
      <point x="371" y="560" type="curve" smooth="yes"/>
      <point x="371" y="636"/>
      <point x="320" y="686"/>
      <point x="246" y="686" type="curve" smooth="yes"/>
      <point x="166" y="686"/>
      <point x="94" y="616"/>
      <point x="94" y="529" type="curve" smooth="yes"/>
      <point x="94" y="453"/>
      <point x="146" y="403"/>
    </contour>
    <contour>
      <point x="225" y="470" type="curve" smooth="yes"/>
      <point x="188" y="470"/>
      <point x="168" y="498"/>
      <point x="168" y="530" type="curve" smooth="yes"/>
      <point x="168" y="577"/>
      <point x="197" y="619"/>
      <point x="241" y="619" type="curve" smooth="yes"/>
      <point x="278" y="619"/>
      <point x="298" y="591"/>
      <point x="298" y="559" type="curve" smooth="yes"/>
      <point x="298" y="512"/>
      <point x="268" y="470"/>
    </contour>
  </outline>
</glyph>
<glyph name="diamondblack" format="1">
  <advance width="326"/>
  <outline>
    <contour>
      <point x="163" y="103" type="line"/>
      <point x="319" y="262" type="line"/>
      <point x="163" y="422" type="line"/>
      <point x="8" y="262" type="line"/>
    </contour>
  </outline>
</glyph>
<glyph name="dieresisacute.cap" format="1">
	<outline>
		<contour>
			<point x="28" y="701" type="curve" smooth="yes"/>
			<point x="66" y="701"/>
			<point x="93" y="735"/>
			<point x="93" y="769" type="curve" smooth="yes"/>
			<point x="93" y="800"/>
			<point x="72" y="820"/>
			<point x="42" y="820" type="curve" smooth="yes"/>
			<point x="5" y="820"/>
			<point x="-22" y="786"/>
			<point x="-22" y="752" type="curve" smooth="yes"/>
			<point x="-22" y="721"/>
			<point x="-1" y="701"/>
		</contour>
		<contour>
			<point x="234" y="701" type="curve" smooth="yes"/>
			<point x="271" y="701"/>
			<point x="299" y="735"/>
			<point x="299" y="769" type="curve" smooth="yes"/>
			<point x="299" y="800"/>
			<point x="277" y="820"/>
			<point x="248" y="820" type="curve" smooth="yes"/>
			<point x="211" y="820"/>
			<point x="183" y="786"/>
			<point x="183" y="752" type="curve" smooth="yes"/>
			<point x="183" y="721"/>
			<point x="205" y="701"/>
		</contour>
		<contour>
			<point x="161" y="828" type="line"/>
			<point x="306" y="944" type="line"/>
			<point x="225" y="1007" type="line"/>
			<point x="104" y="872" type="line"/>
		</contour>
		<contour>
			<point name="_aboveUC" x="136" y="682" type="move"/>
		</contour>
	</outline>
</glyph>
<glyph name="dieresiscaron.cap" format="1">
  <outline>
    <contour>
      <point x="28" y="701" type="curve" smooth="yes"/>
      <point x="66" y="701"/>
      <point x="93" y="735"/>
      <point x="93" y="769" type="curve" smooth="yes"/>
      <point x="93" y="800"/>
      <point x="72" y="820"/>
      <point x="42" y="820" type="curve" smooth="yes"/>
      <point x="5" y="820"/>
      <point x="-22" y="786"/>
      <point x="-22" y="752" type="curve" smooth="yes"/>
      <point x="-22" y="721"/>
      <point x="-1" y="701"/>
    </contour>
    <contour>
      <point x="234" y="701" type="curve" smooth="yes"/>
      <point x="271" y="701"/>
      <point x="299" y="735"/>
      <point x="299" y="769" type="curve" smooth="yes"/>
      <point x="299" y="800"/>
      <point x="277" y="820"/>
      <point x="248" y="820" type="curve" smooth="yes"/>
      <point x="211" y="820"/>
      <point x="183" y="786"/>
      <point x="183" y="752" type="curve" smooth="yes"/>
      <point x="183" y="721"/>
      <point x="205" y="701"/>
    </contour>
    <contour>
      <point x="91" y="854" type="line"/>
      <point x="218" y="854" type="line"/>
      <point x="325" y="954" type="line"/>
      <point x="272" y="993" type="line"/>
      <point x="167" y="922" type="line"/>
      <point x="163" y="922" type="line"/>
      <point x="83" y="993" type="line"/>
      <point x="19" y="954" type="line"/>
    </contour>
    <contour>
      <point x="136" y="682" type="move" name="_aboveUC"/>
    </contour>
  </outline>
</glyph>
<glyph name="dieresiscaron" format="1">
  <advance width="0"/>
  <outline>
    <contour>
      <point x="65" y="518" type="move" name="_aboveLC"/>
    </contour>
    <contour>
      <point x="24" y="871" type="line"/>
      <point x="-32" y="830" type="line"/>
      <point x="43" y="737" type="line"/>
      <point x="158" y="737" type="line"/>
      <point x="264" y="830" type="line"/>
      <point x="221" y="871" type="line"/>
      <point x="115" y="808" type="line"/>
      <point x="111" y="808" type="line"/>
    </contour>
    <contour>
      <point x="-33" y="572" type="curve" smooth="yes"/>
      <point x="6" y="572"/>
      <point x="35" y="605"/>
      <point x="35" y="643" type="curve" smooth="yes"/>
      <point x="35" y="671"/>
      <point x="15" y="691"/>
      <point x="-16" y="691" type="curve" smooth="yes"/>
      <point x="-53" y="691"/>
      <point x="-82" y="660"/>
      <point x="-82" y="621" type="curve" smooth="yes"/>
      <point x="-82" y="594"/>
      <point x="-62" y="572"/>
    </contour>
    <contour>
      <point x="172" y="572" type="curve" smooth="yes"/>
      <point x="210" y="572"/>
      <point x="239" y="605"/>
      <point x="239" y="643" type="curve" smooth="yes"/>
      <point x="239" y="671"/>
      <point x="219" y="691"/>
      <point x="190" y="691" type="curve" smooth="yes"/>
      <point x="152" y="691"/>
      <point x="123" y="660"/>
      <point x="123" y="621" type="curve" smooth="yes"/>
      <point x="123" y="594"/>
      <point x="143" y="572"/>
    </contour>
  </outline>
</glyph>
<glyph name="dieresiscmb.cap" format="1">
  <outline>
    <contour>
      <point x="22" y="701" type="curve" smooth="yes"/>
      <point x="64" y="701"/>
      <point x="95" y="740"/>
      <point x="95" y="777" type="curve" smooth="yes"/>
      <point x="95" y="813"/>
      <point x="68" y="834"/>
      <point x="38" y="834" type="curve" smooth="yes"/>
      <point x="-5" y="834"/>
      <point x="-36" y="795"/>
      <point x="-36" y="759" type="curve" smooth="yes"/>
      <point x="-36" y="723"/>
      <point x="-11" y="701"/>
    </contour>
    <contour>
      <point x="232" y="701" type="curve" smooth="yes"/>
      <point x="274" y="701"/>
      <point x="305" y="740"/>
      <point x="305" y="777" type="curve" smooth="yes"/>
      <point x="305" y="813"/>
      <point x="279" y="834"/>
      <point x="248" y="834" type="curve" smooth="yes"/>
      <point x="206" y="834"/>
      <point x="175" y="795"/>
      <point x="175" y="759" type="curve" smooth="yes"/>
      <point x="175" y="723"/>
      <point x="200" y="701"/>
    </contour>
    <contour>
      <point x="136" y="682" type="move" name="_aboveUC"/>
    </contour>
  </outline>
</glyph>
<glyph name="dieresiscmb" format="1">
  <outline>
    <contour>
      <point x="12" y="572" type="curve" smooth="yes"/>
      <point x="54" y="572"/>
      <point x="87" y="605"/>
      <point x="87" y="646" type="curve" smooth="yes"/>
      <point x="87" y="683"/>
      <point x="61" y="706"/>
      <point x="28" y="706" type="curve" smooth="yes"/>
      <point x="-14" y="706"/>
      <point x="-47" y="671"/>
      <point x="-47" y="631" type="curve" smooth="yes"/>
      <point x="-47" y="593"/>
      <point x="-21" y="572"/>
    </contour>
    <contour>
      <point x="222" y="572" type="curve" smooth="yes"/>
      <point x="265" y="572"/>
      <point x="297" y="605"/>
      <point x="297" y="646" type="curve" smooth="yes"/>
      <point x="297" y="683"/>
      <point x="272" y="706"/>
      <point x="238" y="706" type="curve" smooth="yes"/>
      <point x="196" y="706"/>
      <point x="164" y="671"/>
      <point x="164" y="631" type="curve" smooth="yes"/>
      <point x="164" y="593"/>
      <point x="189" y="572"/>
    </contour>
    <contour>
      <point x="112" y="518" type="move" name="_aboveLC"/>
    </contour>
    <contour>
      <point x="144" y="721" type="move" name="aboveLC"/>
    </contour>
  </outline>
</glyph>
<glyph name="dieresiscmb.cap" format="1">
  <advance width="0"/>
  <outline>
    <contour>
      <point x="136" y="682" type="move" name="_aboveUC"/>
    </contour>
    <contour>
      <point x="22" y="701" type="curve" smooth="yes"/>
      <point x="64" y="701"/>
      <point x="95" y="740"/>
      <point x="95" y="777" type="curve" smooth="yes"/>
      <point x="95" y="813"/>
      <point x="68" y="834"/>
      <point x="38" y="834" type="curve" smooth="yes"/>
      <point x="-5" y="834"/>
      <point x="-36" y="795"/>
      <point x="-36" y="759" type="curve" smooth="yes"/>
      <point x="-36" y="723"/>
      <point x="-11" y="701"/>
    </contour>
    <contour>
      <point x="232" y="701" type="curve" smooth="yes"/>
      <point x="274" y="701"/>
      <point x="305" y="740"/>
      <point x="305" y="777" type="curve" smooth="yes"/>
      <point x="305" y="813"/>
      <point x="279" y="834"/>
      <point x="248" y="834" type="curve" smooth="yes"/>
      <point x="206" y="834"/>
      <point x="175" y="795"/>
      <point x="175" y="759" type="curve" smooth="yes"/>
      <point x="175" y="723"/>
      <point x="200" y="701"/>
    </contour>
  </outline>
</glyph>
<glyph name="dieresisgrave" format="1">
  <advance width="0"/>
  <outline>
    <contour>
      <point x="65" y="518" type="move" name="_aboveLC"/>
    </contour>
    <contour>
      <point x="86" y="713" type="line"/>
      <point x="149" y="741" type="line"/>
      <point x="96" y="877" type="line"/>
      <point x="8" y="837" type="line"/>
    </contour>
    <contour>
      <point x="-33" y="572" type="curve" smooth="yes"/>
      <point x="6" y="572"/>
      <point x="35" y="605"/>
      <point x="35" y="643" type="curve" smooth="yes"/>
      <point x="35" y="671"/>
      <point x="15" y="691"/>
      <point x="-16" y="691" type="curve" smooth="yes"/>
      <point x="-53" y="691"/>
      <point x="-82" y="660"/>
      <point x="-82" y="621" type="curve" smooth="yes"/>
      <point x="-82" y="594"/>
      <point x="-62" y="572"/>
    </contour>
    <contour>
      <point x="172" y="572" type="curve" smooth="yes"/>
      <point x="210" y="572"/>
      <point x="239" y="605"/>
      <point x="239" y="643" type="curve" smooth="yes"/>
      <point x="239" y="671"/>
      <point x="219" y="691"/>
      <point x="190" y="691" type="curve" smooth="yes"/>
      <point x="152" y="691"/>
      <point x="123" y="660"/>
      <point x="123" y="621" type="curve" smooth="yes"/>
      <point x="123" y="594"/>
      <point x="143" y="572"/>
    </contour>
  </outline>
</glyph>
<glyph name="dieresismacron.cap" format="1">
  <advance width="0"/>
  <outline>
    <contour>
      <point x="136" y="682" type="move" name="_aboveUC"/>
    </contour>
    <contour>
      <point x="31" y="701" type="curve" smooth="yes"/>
      <point x="69" y="701"/>
      <point x="96" y="736"/>
      <point x="96" y="769" type="curve" smooth="yes"/>
      <point x="96" y="800"/>
      <point x="74" y="820"/>
      <point x="45" y="820" type="curve" smooth="yes"/>
      <point x="7" y="820"/>
      <point x="-20" y="785"/>
      <point x="-20" y="752" type="curve" smooth="yes"/>
      <point x="-20" y="721"/>
      <point x="2" y="701"/>
    </contour>
    <contour>
      <point x="17" y="868" type="line"/>
      <point x="301" y="868" type="line"/>
      <point x="315" y="934" type="line"/>
      <point x="30" y="934" type="line"/>
    </contour>
    <contour>
      <point x="233" y="701" type="curve" smooth="yes"/>
      <point x="271" y="701"/>
      <point x="298" y="736"/>
      <point x="298" y="769" type="curve" smooth="yes"/>
      <point x="298" y="800"/>
      <point x="276" y="820"/>
      <point x="248" y="820" type="curve" smooth="yes"/>
      <point x="210" y="820"/>
      <point x="182" y="785"/>
      <point x="182" y="752" type="curve" smooth="yes"/>
      <point x="182" y="721"/>
      <point x="204" y="701"/>
    </contour>
  </outline>
</glyph>
<glyph name="dieresismacron" format="1">
  <advance width="0"/>
  <outline>
    <contour>
      <point x="112" y="518" type="move" name="_aboveLC"/>
    </contour>
    <contour>
      <point x="12" y="572" type="curve" smooth="yes"/>
      <point x="51" y="572"/>
      <point x="80" y="605"/>
      <point x="80" y="643" type="curve" smooth="yes"/>
      <point x="80" y="671"/>
      <point x="60" y="691"/>
      <point x="30" y="691" type="curve" smooth="yes"/>
      <point x="-8" y="691"/>
      <point x="-37" y="660"/>
      <point x="-37" y="621" type="curve" smooth="yes"/>
      <point x="-37" y="594"/>
      <point x="-17" y="572"/>
    </contour>
    <contour>
      <point x="221" y="572" type="curve" smooth="yes"/>
      <point x="258" y="572"/>
      <point x="287" y="605"/>
      <point x="287" y="643" type="curve" smooth="yes"/>
      <point x="287" y="671"/>
      <point x="268" y="691"/>
      <point x="238" y="691" type="curve" smooth="yes"/>
      <point x="201" y="691"/>
      <point x="172" y="660"/>
      <point x="172" y="621" type="curve" smooth="yes"/>
      <point x="172" y="594"/>
      <point x="192" y="572"/>
    </contour>
    <contour>
      <point x="9" y="754" type="line"/>
      <point x="292" y="754" type="line"/>
      <point x="306" y="819" type="line"/>
      <point x="24" y="819" type="line"/>
    </contour>
  </outline>
</glyph>
<glyph name="divide" format="1">
  <advance width="509"/>
  <outline>
    <contour>
      <point x="48" y="282" type="line"/>
      <point x="485" y="282" type="line"/>
      <point x="485" y="379" type="line"/>
      <point x="48" y="379" type="line"/>
    </contour>
    <contour>
      <point x="267" y="76" type="curve" smooth="yes"/>
      <point x="309" y="76"/>
      <point x="343" y="105"/>
      <point x="343" y="148" type="curve" smooth="yes"/>
      <point x="343" y="189"/>
      <point x="309" y="221"/>
      <point x="267" y="221" type="curve" smooth="yes"/>
      <point x="224" y="221"/>
      <point x="191" y="189"/>
      <point x="191" y="148" type="curve" smooth="yes"/>
      <point x="191" y="105"/>
      <point x="224" y="76"/>
    </contour>
    <contour>
      <point x="267" y="438" type="curve" smooth="yes"/>
      <point x="309" y="438"/>
      <point x="343" y="469"/>
      <point x="343" y="512" type="curve" smooth="yes"/>
      <point x="343" y="553"/>
      <point x="309" y="584"/>
      <point x="267" y="584" type="curve" smooth="yes"/>
      <point x="224" y="584"/>
      <point x="191" y="553"/>
      <point x="191" y="512" type="curve" smooth="yes"/>
      <point x="191" y="469"/>
      <point x="224" y="438"/>
    </contour>
  </outline>
</glyph>
<glyph name="dollar" format="1">
  <advance width="509"/>
  <outline>
    <contour>
      <point x="212" y="-12" type="curve" smooth="yes"/>
      <point x="348" y="-12"/>
      <point x="437" y="73"/>
      <point x="437" y="191" type="curve" smooth="yes"/>
      <point x="437" y="354"/>
      <point x="235" y="380"/>
      <point x="235" y="477" type="curve" smooth="yes"/>
      <point x="235" y="516"/>
      <point x="264" y="545"/>
      <point x="310" y="545" type="curve" smooth="yes"/>
      <point x="348" y="545"/>
      <point x="385" y="521"/>
      <point x="411" y="486" type="curve"/>
      <point x="497" y="563" type="line"/>
      <point x="448" y="622"/>
      <point x="385" y="655"/>
      <point x="314" y="655" type="curve" smooth="yes"/>
      <point x="187" y="655"/>
      <point x="100" y="574"/>
      <point x="100" y="461" type="curve" smooth="yes"/>
      <point x="100" y="310"/>
      <point x="302" y="283"/>
      <point x="302" y="174" type="curve" smooth="yes"/>
      <point x="302" y="127"/>
      <point x="270" y="98"/>
      <point x="215" y="98" type="curve" smooth="yes"/>
      <point x="164" y="98"/>
      <point x="120" y="132"/>
      <point x="90" y="171" type="curve"/>
      <point x="6" y="88" type="line"/>
      <point x="58" y="26"/>
      <point x="136" y="-12"/>
    </contour>
    <contour>
      <point x="135" y="-110" type="line"/>
      <point x="225" y="-110" type="line"/>
      <point x="257" y="43" type="line"/>
      <point x="165" y="43" type="line"/>
    </contour>
    <contour>
      <point x="279" y="611" type="line"/>
      <point x="369" y="611" type="line"/>
      <point x="397" y="753" type="line"/>
      <point x="306" y="753" type="line"/>
    </contour>
  </outline>
</glyph>
<glyph name="dotaccentcmb.cap" format="1">
  <outline>
    <contour>
      <point x="130" y="703" type="curve" smooth="yes"/>
      <point x="178" y="703"/>
      <point x="215" y="737"/>
      <point x="215" y="784" type="curve" smooth="yes"/>
      <point x="215" y="826"/>
      <point x="179" y="850"/>
      <point x="141" y="850" type="curve" smooth="yes"/>
      <point x="94" y="850"/>
      <point x="56" y="813"/>
      <point x="56" y="769" type="curve" smooth="yes"/>
      <point x="56" y="725"/>
      <point x="93" y="703"/>
    </contour>
    <contour>
      <point x="136" y="682" type="move" name="_aboveUC"/>
    </contour>
  </outline>
</glyph>
<glyph name="dotaccentcmb" format="1">
  <outline>
    <contour>
      <point x="120" y="570" type="curve" smooth="yes"/>
      <point x="168" y="570"/>
      <point x="205" y="604"/>
      <point x="205" y="651" type="curve" smooth="yes"/>
      <point x="205" y="694"/>
      <point x="169" y="717"/>
      <point x="131" y="717" type="curve" smooth="yes"/>
      <point x="84" y="717"/>
      <point x="46" y="680"/>
      <point x="46" y="636" type="curve" smooth="yes"/>
      <point x="46" y="592"/>
      <point x="83" y="570"/>
    </contour>
    <contour>
      <point x="112" y="518" type="move" name="_aboveLC"/>
    </contour>
    <contour>
      <point x="144" y="721" type="move" name="aboveLC"/>
    </contour>
  </outline>
</glyph>
<glyph name="dotbelowcmb" format="1">
  <outline>
    <component base="dotaccentcmb" xOffset="-161" yOffset="-800"/>
    <contour>
      <point x="-6" y="-30" type="move" name="_belowLC"/>
    </contour>
  </outline>
</glyph>
<glyph name="dotlessi" format="1">
  <advance width="265"/>
  <outline>
    <contour>
      <point x="76" y="0" type="move" name="ogonekLC"/>
    </contour>
    <contour>
      <point x="192" y="518" type="move" name="aboveLC"/>
    </contour>
    <contour>
      <point x="89" y="-22" type="move" name="belowLC"/>
    </contour>
    <contour>
      <point x="14" y="0" type="line"/>
      <point x="151" y="0" type="line"/>
      <point x="250" y="496" type="line"/>
      <point x="114" y="496" type="line"/>
    </contour>
  </outline>
</glyph>
<glyph name="dotlessj" format="1">
  <advance width="267"/>
  <outline>
    <contour>
      <point x="191" y="518" type="move" name="aboveLC"/>
    </contour>
    <contour>
      <point x="-35" y="-196" type="curve" smooth="yes"/>
      <point x="77" y="-196"/>
      <point x="128" y="-116"/>
      <point x="149" y="-16" type="curve" smooth="yes"/>
      <point x="252" y="496" type="line"/>
      <point x="115" y="496" type="line"/>
      <point x="14" y="-10" type="line" smooth="yes"/>
      <point x="1" y="-64"/>
      <point x="-13" y="-88"/>
      <point x="-46" y="-88" type="curve" smooth="yes"/>
      <point x="-63" y="-88"/>
      <point x="-76" y="-83"/>
      <point x="-90" y="-75" type="curve"/>
      <point x="-131" y="-174" type="line"/>
      <point x="-99" y="-190"/>
      <point x="-70" y="-196"/>
    </contour>
  </outline>
</glyph>
<glyph name="e" format="1">
  <advance width="496"/>
  <outline>
    <contour>
      <point x="289" y="0" type="move" name="ogonekLC"/>
    </contour>
    <contour>
      <point x="320" y="518" type="move" name="aboveLC"/>
    </contour>
    <contour>
      <point x="222" y="-22" type="move" name="belowLC"/>
    </contour>
    <contour>
      <point x="29" y="200" type="curve" smooth="yes"/>
      <point x="29" y="68"/>
      <point x="112" y="-12"/>
      <point x="232" y="-12" type="curve" smooth="yes"/>
      <point x="309" y="-12"/>
      <point x="370" y="12"/>
      <point x="410" y="40" type="curve"/>
      <point x="362" y="126" type="line"/>
      <point x="337" y="109"/>
      <point x="301" y="91"/>
      <point x="270" y="91" type="curve" smooth="yes"/>
      <point x="205" y="91"/>
      <point x="155" y="126"/>
      <point x="159" y="209" type="curve"/>
      <point x="441" y="209" type="line"/>
      <point x="449" y="224"/>
      <point x="467" y="275"/>
      <point x="467" y="322" type="curve" smooth="yes"/>
      <point x="467" y="425"/>
      <point x="423" y="508"/>
      <point x="305" y="508" type="curve" smooth="yes"/>
      <point x="173" y="508"/>
      <point x="29" y="384"/>
    </contour>
    <contour>
      <point x="170" y="293" type="line"/>
      <point x="192" y="366"/>
      <point x="241" y="403"/>
      <point x="288" y="403" type="curve" smooth="yes"/>
      <point x="338" y="403"/>
      <point x="355" y="370"/>
      <point x="355" y="330" type="curve" smooth="yes"/>
      <point x="355" y="316"/>
      <point x="353" y="303"/>
      <point x="350" y="293" type="curve"/>
    </contour>
  </outline>
</glyph>
<glyph name="e.sups" format="1">
  <advance width="332"/>
  <outline>
    <contour>
      <point x="52" y="396" type="curve" smooth="yes"/>
      <point x="52" y="307"/>
      <point x="108" y="254"/>
      <point x="191" y="254" type="curve" smooth="yes"/>
      <point x="228" y="254"/>
      <point x="269" y="265"/>
      <point x="305" y="285" type="curve"/>
      <point x="276" y="346" type="line"/>
      <point x="255" y="333"/>
      <point x="238" y="326"/>
      <point x="218" y="326" type="curve" smooth="yes"/>
      <point x="173" y="326"/>
      <point x="142" y="349"/>
      <point x="143" y="398" type="curve"/>
      <point x="330" y="398" type="line"/>
      <point x="336" y="409"/>
      <point x="347" y="443"/>
      <point x="347" y="474" type="curve" smooth="yes"/>
      <point x="347" y="541"/>
      <point x="320" y="599"/>
      <point x="238" y="599" type="curve" smooth="yes"/>
      <point x="150" y="599"/>
      <point x="52" y="516"/>
    </contour>
    <contour>
      <point x="150" y="457" type="line"/>
      <point x="165" y="502"/>
      <point x="197" y="526"/>
      <point x="226" y="526" type="curve" smooth="yes"/>
      <point x="258" y="526"/>
      <point x="269" y="504"/>
      <point x="269" y="479" type="curve" smooth="yes"/>
      <point x="269" y="471"/>
      <point x="268" y="464"/>
      <point x="266" y="457" type="curve"/>
    </contour>
  </outline>
</glyph>
<glyph name="eacute.sups" format="1">
  <advance width="332"/>
  <outline>
    <contour>
      <point x="192" y="640" type="line"/>
      <point x="264" y="640" type="line"/>
      <point x="365" y="739" type="line"/>
      <point x="269" y="739" type="line"/>
    </contour>
    <component base="e.sups" yOffset="2"/>
  </outline>
</glyph>
<glyph name="egrave.sups" format="1">
	<advance width="332"/>
	<outline>
		<contour>
			<point x="273" y="749" type="line"/>
			<point x="333" y="792" type="line"/>
			<point x="249" y="921" type="line"/>
			<point x="168" y="862" type="line"/>
		</contour>
		<component base="e.sups"/>
	</outline>
</glyph>
<glyph name="eighthnote" format="1">
  <advance width="518"/>
  <outline>
    <contour>
      <point x="124" y="-28" type="curve" smooth="yes"/>
      <point x="238" y="-28"/>
      <point x="313" y="39"/>
      <point x="313" y="166" type="curve" smooth="yes"/>
      <point x="313" y="534" type="line"/>
      <point x="380" y="512"/>
      <point x="421" y="451"/>
      <point x="421" y="390" type="curve" smooth="yes"/>
      <point x="421" y="355"/>
      <point x="417" y="330"/>
      <point x="407" y="299" type="curve"/>
      <point x="451" y="280" type="line"/>
      <point x="474" y="315"/>
      <point x="498" y="370"/>
      <point x="498" y="425" type="curve" smooth="yes"/>
      <point x="498" y="505"/>
      <point x="467" y="562"/>
      <point x="378" y="626" type="curve" smooth="yes"/>
      <point x="329" y="661"/>
      <point x="321" y="669"/>
      <point x="310" y="694" type="curve"/>
      <point x="237" y="694" type="line"/>
      <point x="237" y="175" type="line"/>
      <point x="228" y="180"/>
      <point x="205" y="187"/>
      <point x="180" y="187" type="curve" smooth="yes"/>
      <point x="90" y="187"/>
      <point x="18" y="126"/>
      <point x="18" y="56" type="curve" smooth="yes"/>
      <point x="18" y="-2"/>
      <point x="72" y="-28"/>
    </contour>
  </outline>
</glyph>
<glyph name="eogonek" format="1">
  <advance width="496"/>
  <outline>
    <contour>
      <point x="170" y="-137" type="curve" smooth="yes"/>
      <point x="170" y="-185"/>
      <point x="206" y="-210"/>
      <point x="255" y="-210" type="curve" smooth="yes"/>
      <point x="288" y="-210"/>
      <point x="331" y="-194"/>
      <point x="359" y="-174" type="curve"/>
      <point x="336" y="-118" type="line"/>
      <point x="325" y="-124"/>
      <point x="314" y="-128"/>
      <point x="303" y="-128" type="curve" smooth="yes"/>
      <point x="285" y="-128"/>
      <point x="269" y="-117"/>
      <point x="269" y="-98" type="curve" smooth="yes"/>
      <point x="269" y="-67"/>
      <point x="291" y="-19"/>
      <point x="410" y="40" type="curve"/>
      <point x="362" y="126" type="line"/>
      <point x="337" y="109"/>
      <point x="301" y="91"/>
      <point x="270" y="91" type="curve" smooth="yes"/>
      <point x="205" y="91"/>
      <point x="155" y="126"/>
      <point x="159" y="209" type="curve"/>
      <point x="441" y="209" type="line"/>
      <point x="449" y="224"/>
      <point x="467" y="275"/>
      <point x="467" y="322" type="curve" smooth="yes"/>
      <point x="467" y="425"/>
      <point x="423" y="508"/>
      <point x="305" y="508" type="curve" smooth="yes"/>
      <point x="173" y="508"/>
      <point x="29" y="384"/>
      <point x="29" y="200" type="curve" smooth="yes"/>
      <point x="29" y="68"/>
      <point x="112" y="-12"/>
      <point x="234" y="-12" type="curve" smooth="yes"/>
      <point x="237" y="-12"/>
      <point x="242" y="-12"/>
      <point x="245" y="-11" type="curve"/>
      <point x="230" y="-24"/>
      <point x="170" y="-73"/>
    </contour>
    <contour>
      <point x="170" y="293" type="line"/>
      <point x="192" y="366"/>
      <point x="241" y="403"/>
      <point x="288" y="403" type="curve" smooth="yes"/>
      <point x="338" y="403"/>
      <point x="355" y="370"/>
      <point x="355" y="330" type="curve" smooth="yes"/>
      <point x="355" y="316"/>
      <point x="353" y="303"/>
      <point x="350" y="293" type="curve"/>
    </contour>
    <contour>
      <point x="320" y="518" type="move" name="aboveLC"/>
    </contour>
  </outline>
</glyph>
<glyph name="exclamdown" format="1">
  <advance width="331"/>
  <outline>
    <contour>
      <point x="17" y="-174" type="line"/>
      <point x="154" y="-174" type="line"/>
      <point x="173" y="-48" type="line"/>
      <point x="219" y="270" type="line"/>
      <point x="129" y="270" type="line"/>
      <point x="46" y="-48" type="line"/>
    </contour>
    <contour>
      <point x="191" y="333" type="curve" smooth="yes"/>
      <point x="249" y="333"/>
      <point x="289" y="385"/>
      <point x="289" y="434" type="curve" smooth="yes"/>
      <point x="289" y="478"/>
      <point x="261" y="508"/>
      <point x="218" y="508" type="curve" smooth="yes"/>
      <point x="160" y="508"/>
      <point x="120" y="458"/>
      <point x="120" y="408" type="curve" smooth="yes"/>
      <point x="120" y="365"/>
      <point x="148" y="333"/>
    </contour>
  </outline>
</glyph>
<glyph name="f" format="1">
  <advance width="327"/>
  <outline>
    <contour>
      <point x="51" y="389" type="line"/>
      <point x="115" y="389" type="line"/>
      <point x="36" y="0" type="line"/>
      <point x="173" y="0" type="line"/>
      <point x="250" y="389" type="line"/>
      <point x="338" y="389" type="line"/>
      <point x="359" y="496" type="line"/>
      <point x="273" y="496" type="line"/>
      <point x="280" y="534" type="line" smooth="yes"/>
      <point x="290" y="588"/>
      <point x="313" y="604"/>
      <point x="349" y="604" type="curve" smooth="yes"/>
      <point x="367" y="604"/>
      <point x="386" y="596"/>
      <point x="397" y="589" type="curve"/>
      <point x="441" y="686" type="line"/>
      <point x="410" y="703"/>
      <point x="373" y="713"/>
      <point x="335" y="713" type="curve" smooth="yes"/>
      <point x="221" y="713"/>
      <point x="163" y="631"/>
      <point x="143" y="529" type="curve" smooth="yes"/>
      <point x="137" y="496" type="line"/>
      <point x="72" y="490" type="line"/>
    </contour>
    <contour>
      <point x="321" y="740" type="move" name="aboveLC"/>
    </contour>
    <contour>
      <point x="113" y="-22" type="move" name="belowLC"/>
    </contour>
  </outline>
</glyph>
<glyph name="f.sups" format="1">
  <advance width="222"/>
  <outline>
    <contour>
      <point x="58" y="262" type="line"/>
      <point x="154" y="262" type="line"/>
      <point x="225" y="612" type="line" smooth="yes"/>
      <point x="232" y="648"/>
      <point x="246" y="663"/>
      <point x="271" y="663" type="curve" smooth="yes"/>
      <point x="282" y="663"/>
      <point x="295" y="658"/>
      <point x="302" y="653" type="curve"/>
      <point x="333" y="720" type="line"/>
      <point x="310" y="732"/>
      <point x="286" y="738"/>
      <point x="260" y="738" type="curve" smooth="yes"/>
      <point x="181" y="738"/>
      <point x="143" y="682"/>
      <point x="129" y="614" type="curve" smooth="yes"/>
    </contour>
    <contour>
      <point x="67" y="516" type="line"/>
      <point x="264" y="516" type="line"/>
      <point x="279" y="591" type="line"/>
      <point x="130" y="591" type="line"/>
      <point x="79" y="586" type="line"/>
    </contour>
  </outline>
</glyph>
<glyph name="f_f" format="1">
  <advance width="625"/>
  <outline>
    <contour>
      <point x="36" y="0" type="line"/>
      <point x="173" y="0" type="line"/>
      <point x="278" y="524" type="line" smooth="yes"/>
      <point x="289" y="578"/>
      <point x="311" y="594"/>
      <point x="349" y="594" type="curve" smooth="yes"/>
      <point x="368" y="594"/>
      <point x="387" y="586"/>
      <point x="399" y="579" type="curve"/>
      <point x="443" y="676" type="line"/>
      <point x="411" y="693"/>
      <point x="374" y="703"/>
      <point x="335" y="703" type="curve" smooth="yes"/>
      <point x="220" y="703"/>
      <point x="162" y="621"/>
      <point x="141" y="519" type="curve" smooth="yes"/>
    </contour>
    <contour>
      <point x="337" y="0" type="line"/>
      <point x="474" y="0" type="line"/>
      <point x="580" y="534" type="line" smooth="yes"/>
      <point x="591" y="588"/>
      <point x="613" y="604"/>
      <point x="650" y="604" type="curve" smooth="yes"/>
      <point x="667" y="604"/>
      <point x="687" y="596"/>
      <point x="698" y="589" type="curve"/>
      <point x="741" y="686" type="line"/>
      <point x="710" y="703"/>
      <point x="674" y="713"/>
      <point x="635" y="713" type="curve" smooth="yes"/>
      <point x="522" y="713"/>
      <point x="464" y="631"/>
      <point x="444" y="529" type="curve" smooth="yes"/>
    </contour>
    <contour>
      <point x="51" y="389" type="line"/>
      <point x="639" y="389" type="line"/>
      <point x="659" y="496" type="line"/>
      <point x="144" y="496" type="line"/>
      <point x="72" y="490" type="line"/>
    </contour>
  </outline>
</glyph>
<glyph name="f_t" format="1">
  <advance width="650"/>
  <outline>
    <contour>
      <point x="36" y="0" type="line"/>
      <point x="173" y="0" type="line"/>
      <point x="280" y="534" type="line" smooth="yes"/>
      <point x="290" y="588"/>
      <point x="313" y="604"/>
      <point x="349" y="604" type="curve" smooth="yes"/>
      <point x="367" y="604"/>
      <point x="386" y="596"/>
      <point x="397" y="589" type="curve"/>
      <point x="441" y="686" type="line"/>
      <point x="410" y="703"/>
      <point x="373" y="713"/>
      <point x="335" y="713" type="curve" smooth="yes"/>
      <point x="221" y="713"/>
      <point x="163" y="631"/>
      <point x="143" y="529" type="curve" smooth="yes"/>
    </contour>
    <contour>
      <point x="485" y="-12" type="curve" smooth="yes"/>
      <point x="536" y="-12"/>
      <point x="576" y="0"/>
      <point x="602" y="10" type="curve"/>
      <point x="577" y="106" type="line"/>
      <point x="564" y="100"/>
      <point x="551" y="95"/>
      <point x="537" y="95" type="curve" smooth="yes"/>
      <point x="501" y="95"/>
      <point x="485" y="111"/>
      <point x="485" y="143" type="curve" smooth="yes"/>
      <point x="485" y="154"/>
      <point x="485" y="164"/>
      <point x="487" y="176" type="curve" smooth="yes"/>
      <point x="531" y="389" type="line"/>
      <point x="646" y="389" type="line"/>
      <point x="667" y="496" type="line"/>
      <point x="555" y="496" type="line"/>
      <point x="579" y="626" type="line"/>
      <point x="465" y="626" type="line"/>
      <point x="423" y="496" type="line"/>
      <point x="144" y="496" type="line"/>
      <point x="72" y="490" type="line"/>
      <point x="51" y="389" type="line"/>
      <point x="395" y="389" type="line"/>
      <point x="352" y="182" type="line" smooth="yes"/>
      <point x="348" y="161"/>
      <point x="345" y="140"/>
      <point x="345" y="119" type="curve" smooth="yes"/>
      <point x="345" y="43"/>
      <point x="385" y="-12"/>
    </contour>
  </outline>
</glyph>
<glyph name="figuredash" format="1">
  <advance width="509"/>
  <outline>
    <contour>
      <point x="34" y="208" type="line"/>
      <point x="456" y="208" type="line"/>
      <point x="474" y="297" type="line"/>
      <point x="52" y="297" type="line"/>
    </contour>
  </outline>
</glyph>
<glyph name="fisheye" format="1">
  <advance width="460"/>
  <outline>
    <contour>
      <point x="231" y="63" type="curve" smooth="yes"/>
      <point x="339" y="63"/>
      <point x="423" y="145"/>
      <point x="423" y="262" type="curve" smooth="yes"/>
      <point x="423" y="380"/>
      <point x="339" y="462"/>
      <point x="231" y="462" type="curve" smooth="yes"/>
      <point x="123" y="462"/>
      <point x="38" y="380"/>
      <point x="38" y="262" type="curve" smooth="yes"/>
      <point x="38" y="145"/>
      <point x="123" y="63"/>
    </contour>
    <contour>
      <point x="231" y="132" type="curve" smooth="yes"/>
      <point x="164" y="132"/>
      <point x="111" y="184"/>
      <point x="111" y="262" type="curve" smooth="yes"/>
      <point x="111" y="341"/>
      <point x="164" y="392"/>
      <point x="231" y="392" type="curve" smooth="yes"/>
      <point x="298" y="392"/>
      <point x="350" y="341"/>
      <point x="350" y="262" type="curve" smooth="yes"/>
      <point x="350" y="184"/>
      <point x="298" y="132"/>
    </contour>
    <contour>
      <point x="231" y="196" type="curve" smooth="yes"/>
      <point x="264" y="196"/>
      <point x="293" y="224"/>
      <point x="293" y="262" type="curve" smooth="yes"/>
      <point x="293" y="301"/>
      <point x="264" y="329"/>
      <point x="231" y="329" type="curve" smooth="yes"/>
      <point x="197" y="329"/>
      <point x="168" y="301"/>
      <point x="168" y="262" type="curve" smooth="yes"/>
      <point x="168" y="224"/>
      <point x="197" y="196"/>
    </contour>
  </outline>
</glyph>
<glyph name="five" format="1">
  <advance width="509"/>
  <outline>
    <contour>
      <point x="201" y="-12" type="curve" smooth="yes"/>
      <point x="332" y="-12"/>
      <point x="457" y="84"/>
      <point x="457" y="240" type="curve" smooth="yes"/>
      <point x="457" y="351"/>
      <point x="384" y="408"/>
      <point x="288" y="408" type="curve" smooth="yes"/>
      <point x="266" y="408"/>
      <point x="247" y="404"/>
      <point x="227" y="395" type="curve"/>
      <point x="262" y="520" type="line"/>
      <point x="485" y="520" type="line"/>
      <point x="508" y="635" type="line"/>
      <point x="166" y="635" type="line"/>
      <point x="88" y="319" type="line"/>
      <point x="139" y="277" type="line"/>
      <point x="182" y="301"/>
      <point x="199" y="306"/>
      <point x="232" y="306" type="curve" smooth="yes"/>
      <point x="286" y="306"/>
      <point x="319" y="277"/>
      <point x="319" y="218" type="curve" smooth="yes"/>
      <point x="319" y="143"/>
      <point x="265" y="98"/>
      <point x="204" y="98" type="curve" smooth="yes"/>
      <point x="152" y="98"/>
      <point x="112" y="127"/>
      <point x="79" y="172" type="curve"/>
      <point x="-7" y="102" type="line"/>
      <point x="49" y="23"/>
      <point x="122" y="-12"/>
    </contour>
  </outline>
</glyph>
<glyph name="four" format="1">
  <advance width="509"/>
  <outline>
    <contour>
      <point x="365" y="0" type="line"/>
      <point x="396" y="154" type="line"/>
      <point x="469" y="154" type="line"/>
      <point x="489" y="260" type="line"/>
      <point x="416" y="260" type="line"/>
      <point x="491" y="635" type="line"/>
      <point x="328" y="635" type="line"/>
      <point x="26" y="250" type="line"/>
      <point x="8" y="154" type="line"/>
      <point x="271" y="154" type="line"/>
      <point x="240" y="0" type="line"/>
    </contour>
    <contour>
      <point x="161" y="260" type="line"/>
      <point x="270" y="399" type="line" smooth="yes"/>
      <point x="295" y="435"/>
      <point x="318" y="476"/>
      <point x="343" y="515" type="curve"/>
      <point x="347" y="515" type="line"/>
      <point x="337" y="468"/>
      <point x="323" y="419"/>
      <point x="314" y="374" type="curve" smooth="yes"/>
      <point x="291" y="260" type="line"/>
    </contour>
  </outline>
</glyph>
<glyph name="fraction" format="1">
  <advance width="94"/>
  <outline>
    <contour>
      <point x="-215" y="-12" type="line"/>
      <point x="-135" y="-12" type="line"/>
      <point x="339" y="672" type="line"/>
      <point x="259" y="672" type="line"/>
    </contour>
  </outline>
</glyph>
<glyph name="g" format="1">
  <advance width="546"/>
  <outline>
    <contour>
      <point x="322" y="518" type="move" name="aboveLC"/>
    </contour>
    <contour>
      <point x="168" y="-233" type="move" name="belowLC"/>
    </contour>
    <contour>
      <point x="171" y="-213" type="curve" smooth="yes"/>
      <point x="310" y="-213"/>
      <point x="404" y="-139"/>
      <point x="434" y="8" type="curve" smooth="yes"/>
      <point x="531" y="496" type="line"/>
      <point x="420" y="496" type="line"/>
      <point x="399" y="443" type="line"/>
      <point x="396" y="443" type="line"/>
      <point x="377" y="483"/>
      <point x="335" y="508"/>
      <point x="290" y="508" type="curve" smooth="yes"/>
      <point x="154" y="508"/>
      <point x="31" y="367"/>
      <point x="31" y="189" type="curve" smooth="yes"/>
      <point x="31" y="72"/>
      <point x="92" y="16"/>
      <point x="176" y="16" type="curve" smooth="yes"/>
      <point x="231" y="16"/>
      <point x="284" y="42"/>
      <point x="328" y="88" type="curve"/>
      <point x="302" y="0" type="line" smooth="yes"/>
      <point x="283" y="-68"/>
      <point x="240" y="-104"/>
      <point x="175" y="-104" type="curve" smooth="yes"/>
      <point x="128" y="-104"/>
      <point x="85" y="-81"/>
      <point x="47" y="-52" type="curve"/>
      <point x="-12" y="-143" type="line"/>
      <point x="44" y="-189"/>
      <point x="112" y="-213"/>
    </contour>
    <contour>
      <point x="229" y="127" type="curve" smooth="yes"/>
      <point x="195" y="127"/>
      <point x="173" y="153"/>
      <point x="173" y="207" type="curve" smooth="yes"/>
      <point x="173" y="314"/>
      <point x="232" y="396"/>
      <point x="300" y="396" type="curve" smooth="yes"/>
      <point x="323" y="396"/>
      <point x="348" y="382"/>
      <point x="365" y="349" type="curve"/>
      <point x="334" y="192" type="line"/>
      <point x="302" y="143"/>
      <point x="262" y="127"/>
    </contour>
  </outline>
</glyph>
<glyph name="g.supa" format="1">
  <advance width="339"/>
  <outline>
    <contour>
      <point x="77" y="467" type="curve" smooth="yes"/>
      <point x="77" y="435"/>
      <point x="91" y="411"/>
      <point x="113" y="391" type="curve"/>
      <point x="113" y="388" type="line"/>
      <point x="86" y="374"/>
      <point x="67" y="351"/>
      <point x="67" y="324" type="curve" smooth="yes"/>
      <point x="67" y="306"/>
      <point x="74" y="290"/>
      <point x="85" y="280" type="curve"/>
      <point x="85" y="277" type="line"/>
      <point x="46" y="261"/>
      <point x="16" y="237"/>
      <point x="16" y="200" type="curve" smooth="yes"/>
      <point x="16" y="132"/>
      <point x="95" y="122"/>
      <point x="143" y="122" type="curve" smooth="yes"/>
      <point x="229" y="122"/>
      <point x="324" y="160"/>
      <point x="324" y="239" type="curve" smooth="yes"/>
      <point x="324" y="282"/>
      <point x="297" y="304"/>
      <point x="198" y="317" type="curve" smooth="yes"/>
      <point x="151" y="324"/>
      <point x="144" y="329"/>
      <point x="144" y="345" type="curve" smooth="yes"/>
      <point x="144" y="355"/>
      <point x="152" y="363"/>
      <point x="159" y="368" type="curve"/>
      <point x="166" y="366"/>
      <point x="178" y="365"/>
      <point x="190" y="365" type="curve" smooth="yes"/>
      <point x="275" y="365"/>
      <point x="334" y="415"/>
      <point x="334" y="489" type="curve" smooth="yes"/>
      <point x="334" y="500"/>
      <point x="333" y="509"/>
      <point x="330" y="519" type="curve"/>
      <point x="377" y="519" type="line"/>
      <point x="390" y="590" type="line"/>
      <point x="267" y="590" type="line"/>
      <point x="253" y="595"/>
      <point x="238" y="598"/>
      <point x="220" y="598" type="curve" smooth="yes"/>
      <point x="142" y="598"/>
      <point x="77" y="542"/>
    </contour>
    <contour>
      <point x="131" y="256" type="curve"/>
      <point x="148" y="252"/>
      <point x="160" y="249"/>
      <point x="170" y="248" type="curve" smooth="yes"/>
      <point x="203" y="244"/>
      <point x="229" y="237"/>
      <point x="229" y="216" type="curve" smooth="yes"/>
      <point x="229" y="195"/>
      <point x="197" y="182"/>
      <point x="153" y="182" type="curve" smooth="yes"/>
      <point x="116" y="182"/>
      <point x="98" y="192"/>
      <point x="98" y="217" type="curve" smooth="yes"/>
      <point x="98" y="233"/>
      <point x="115" y="246"/>
    </contour>
    <contour>
      <point x="218" y="533" type="curve" smooth="yes"/>
      <point x="240" y="533"/>
      <point x="253" y="518"/>
      <point x="253" y="490" type="curve" smooth="yes"/>
      <point x="253" y="457"/>
      <point x="232" y="423"/>
      <point x="199" y="423" type="curve" smooth="yes"/>
      <point x="177" y="423"/>
      <point x="165" y="438"/>
      <point x="165" y="466" type="curve" smooth="yes"/>
      <point x="165" y="499"/>
      <point x="186" y="533"/>
    </contour>
  </outline>
</glyph>
<glyph name="g.sups" format="1">
  <advance width="365"/>
  <outline>
    <contour>
      <point x="318" y="591" type="line"/>
      <point x="303" y="556" type="line"/>
      <point x="299" y="556" type="line"/>
      <point x="286" y="582"/>
      <point x="260" y="599"/>
      <point x="232" y="599" type="curve" smooth="yes"/>
      <point x="139" y="599"/>
      <point x="56" y="501"/>
      <point x="56" y="382" type="curve" smooth="yes"/>
      <point x="56" y="308"/>
      <point x="91" y="267"/>
      <point x="150" y="267" type="curve" smooth="yes"/>
      <point x="186" y="267"/>
      <point x="219" y="281"/>
      <point x="249" y="304" type="curve"/>
      <point x="253" y="304" type="line"/>
      <point x="238" y="256" type="line" smooth="yes"/>
      <point x="224" y="214"/>
      <point x="196" y="189"/>
      <point x="159" y="189" type="curve" smooth="yes"/>
      <point x="126" y="189"/>
      <point x="93" y="205"/>
      <point x="65" y="223" type="curve"/>
      <point x="26" y="159" type="line"/>
      <point x="68" y="127"/>
      <point x="117" y="114"/>
      <point x="156" y="114" type="curve" smooth="yes"/>
      <point x="247" y="114"/>
      <point x="310" y="162"/>
      <point x="330" y="261" type="curve" smooth="yes"/>
      <point x="396" y="591" type="line"/>
    </contour>
    <contour>
      <point x="190" y="344" type="curve" smooth="yes"/>
      <point x="169" y="344"/>
      <point x="155" y="359"/>
      <point x="155" y="394" type="curve" smooth="yes"/>
      <point x="155" y="465"/>
      <point x="194" y="521"/>
      <point x="238" y="521" type="curve" smooth="yes"/>
      <point x="252" y="521"/>
      <point x="268" y="512"/>
      <point x="278" y="491" type="curve"/>
      <point x="257" y="379" type="line"/>
      <point x="237" y="353"/>
      <point x="212" y="344"/>
    </contour>
  </outline>
</glyph>
<glyph name="gravecmb.cap" format="1">
  <advance width="0"/>
  <outline>
    <contour>
      <point x="136" y="682" type="move" name="_aboveUC"/>
    </contour>
    <contour>
      <point x="153" y="677" type="line"/>
      <point x="232" y="741" type="line"/>
      <point x="90" y="890" type="line"/>
      <point x="-6" y="807" type="line"/>
    </contour>
  </outline>
</glyph>
<glyph name="gravecmb" format="1">
  <advance width="0"/>
  <outline>
    <contour>
      <point x="112" y="518" type="move" name="_aboveLC"/>
    </contour>
    <contour>
      <point x="147" y="569" type="line"/>
      <point x="231" y="634" type="line"/>
      <point x="110" y="827" type="line"/>
      <point x="-7" y="740" type="line"/>
    </contour>
  </outline>
</glyph>
<glyph name="gravecmb.cap" format="1">
  <advance width="0"/>
  <outline>
    <contour>
      <point x="136" y="682" type="move" name="_aboveUC"/>
    </contour>
    <contour>
      <point x="156" y="676" type="line"/>
      <point x="233" y="743" type="line"/>
      <point x="86" y="897" type="line"/>
      <point x="-8" y="810" type="line"/>
    </contour>
  </outline>
</glyph>
<glyph name="guarani" format="1">
  <advance width="509"/>
  <outline>
    <contour>
      <point x="251" y="-12" type="curve" smooth="yes"/>
      <point x="328" y="-12"/>
      <point x="391" y="25"/>
      <point x="436" y="65" type="curve"/>
      <point x="494" y="357" type="line"/>
      <point x="305" y="357" type="line"/>
      <point x="283" y="245" type="line"/>
      <point x="352" y="245" type="line"/>
      <point x="325" y="116" type="line"/>
      <point x="312" y="105"/>
      <point x="293" y="98"/>
      <point x="274" y="98" type="curve" smooth="yes"/>
      <point x="212" y="98"/>
      <point x="178" y="154"/>
      <point x="178" y="248" type="curve" smooth="yes"/>
      <point x="178" y="409"/>
      <point x="252" y="545"/>
      <point x="367" y="545" type="curve" smooth="yes"/>
      <point x="399" y="545"/>
      <point x="418" y="526"/>
      <point x="434" y="493" type="curve"/>
      <point x="532" y="558" type="line"/>
      <point x="500" y="614"/>
      <point x="455" y="655"/>
      <point x="381" y="655" type="curve" smooth="yes"/>
      <point x="198" y="655"/>
      <point x="41" y="488"/>
      <point x="41" y="238" type="curve" smooth="yes"/>
      <point x="41" y="79"/>
      <point x="120" y="-12"/>
    </contour>
    <contour>
      <point x="177" y="-110" type="line"/>
      <point x="268" y="-110" type="line"/>
      <point x="299" y="43" type="line"/>
      <point x="207" y="43" type="line"/>
    </contour>
    <contour>
      <point x="321" y="611" type="line"/>
      <point x="412" y="611" type="line"/>
      <point x="439" y="753" type="line"/>
      <point x="349" y="753" type="line"/>
    </contour>
  </outline>
</glyph>
<glyph name="guilsinglleft" format="1">
  <advance width="272"/>
  <outline>
    <contour>
      <point x="144" y="58" type="line"/>
      <point x="198" y="93" type="line"/>
      <point x="120" y="247" type="line"/>
      <point x="253" y="399" type="line"/>
      <point x="211" y="444" type="line"/>
      <point x="58" y="305" type="line"/>
      <point x="40" y="207" type="line"/>
    </contour>
  </outline>
</glyph>
<glyph name="guilsinglright" format="1">
  <advance width="272"/>
  <outline>
    <contour>
      <point x="69" y="58" type="line"/>
      <point x="222" y="197" type="line"/>
      <point x="240" y="295" type="line"/>
      <point x="136" y="444" type="line"/>
      <point x="81" y="409" type="line"/>
      <point x="160" y="255" type="line"/>
      <point x="27" y="103" type="line"/>
    </contour>
  </outline>
</glyph>
<glyph name="h.sups" format="1">
  <advance width="369"/>
  <outline>
    <contour>
      <point x="43" y="262" type="line"/>
      <point x="140" y="262" type="line"/>
      <point x="182" y="475" type="line"/>
      <point x="208" y="504"/>
      <point x="228" y="517"/>
      <point x="249" y="517" type="curve" smooth="yes"/>
      <point x="268" y="517"/>
      <point x="280" y="506"/>
      <point x="280" y="484" type="curve" smooth="yes"/>
      <point x="280" y="477"/>
      <point x="278" y="468"/>
      <point x="274" y="454" type="curve" smooth="yes"/>
      <point x="236" y="262" type="line"/>
      <point x="333" y="262" type="line"/>
      <point x="374" y="467" type="line" smooth="yes"/>
      <point x="377" y="480"/>
      <point x="380" y="497"/>
      <point x="380" y="512" type="curve" smooth="yes"/>
      <point x="380" y="567"/>
      <point x="355" y="599"/>
      <point x="300" y="599" type="curve" smooth="yes"/>
      <point x="260" y="599"/>
      <point x="225" y="577"/>
      <point x="197" y="553" type="curve"/>
      <point x="193" y="553" type="line"/>
      <point x="212" y="622" type="line"/>
      <point x="232" y="724" type="line"/>
      <point x="135" y="724" type="line"/>
    </contour>
  </outline>
</glyph>
<glyph name="hbar" format="1">
  <advance width="546"/>
  <outline>
    <contour>
      <point x="14" y="0" type="line"/>
      <point x="151" y="0" type="line"/>
      <point x="211" y="307" type="line"/>
      <point x="254" y="351"/>
      <point x="284" y="371"/>
      <point x="315" y="371" type="curve" smooth="yes"/>
      <point x="348" y="371"/>
      <point x="366" y="354"/>
      <point x="366" y="320" type="curve" smooth="yes"/>
      <point x="366" y="307"/>
      <point x="362" y="293"/>
      <point x="358" y="273" type="curve" smooth="yes"/>
      <point x="303" y="0" type="line"/>
      <point x="440" y="0" type="line"/>
      <point x="498" y="290" type="line" smooth="yes"/>
      <point x="504" y="315"/>
      <point x="506" y="338"/>
      <point x="506" y="361" type="curve" smooth="yes"/>
      <point x="506" y="443"/>
      <point x="470" y="488"/>
      <point x="388" y="488" type="curve" smooth="yes"/>
      <point x="329" y="488"/>
      <point x="276" y="457"/>
      <point x="232" y="418" type="curve"/>
      <point x="228" y="418" type="line"/>
      <point x="250" y="498" type="line"/>
      <point x="292" y="701" type="line"/>
      <point x="155" y="701" type="line"/>
    </contour>
    <contour>
      <point x="58" y="558" type="line"/>
      <point x="423" y="558" type="line"/>
      <point x="438" y="625" type="line"/>
      <point x="145" y="625" type="line"/>
      <point x="71" y="619" type="line"/>
    </contour>
  </outline>
</glyph>
<glyph name="hoicmb.cap" format="1">
  <advance width="0"/>
  <outline>
    <contour>
      <point x="136" y="682" type="move" name="_aboveUC"/>
    </contour>
    <contour>
      <point x="76" y="695" type="line"/>
      <point x="154" y="696"/>
      <point x="222" y="721"/>
      <point x="233" y="789" type="curve" smooth="yes"/>
      <point x="240" y="839"/>
      <point x="206" y="877"/>
      <point x="81" y="891" type="curve"/>
      <point x="53" y="820" type="line"/>
      <point x="109" y="812"/>
      <point x="127" y="800"/>
      <point x="125" y="782" type="curve" smooth="yes"/>
      <point x="123" y="764"/>
      <point x="102" y="757"/>
      <point x="74" y="753" type="curve"/>
    </contour>
  </outline>
</glyph>
<glyph name="hoicmb" format="1">
  <outline>
    <contour>
      <point x="65" y="568" type="line"/>
      <point x="141" y="574"/>
      <point x="213" y="604"/>
      <point x="226" y="672" type="curve" smooth="yes"/>
      <point x="239" y="742"/>
      <point x="201" y="790"/>
      <point x="70" y="793" type="curve"/>
      <point x="45" y="703" type="line"/>
      <point x="101" y="699"/>
      <point x="121" y="685"/>
      <point x="116" y="661" type="curve" smooth="yes"/>
      <point x="112" y="640"/>
      <point x="90" y="631"/>
      <point x="65" y="626" type="curve"/>
    </contour>
    <contour>
      <point x="112" y="518" type="move" name="_aboveLC"/>
    </contour>
  </outline>
</glyph>
<glyph name="horncmb" format="1">
  <advance width="0"/>
  <outline>
    <contour>
      <point x="99" y="496" type="move" name="_hornLC"/>
    </contour>
    <contour>
      <point x="80" y="428" type="line"/>
      <point x="213" y="437"/>
      <point x="268" y="495"/>
      <point x="268" y="565" type="curve" smooth="yes"/>
      <point x="268" y="585"/>
      <point x="264" y="605"/>
      <point x="255" y="626" type="curve"/>
      <point x="153" y="594" type="line"/>
      <point x="158" y="581"/>
      <point x="161" y="569"/>
      <point x="161" y="557" type="curve" smooth="yes"/>
      <point x="161" y="522"/>
      <point x="130" y="491"/>
      <point x="80" y="486" type="curve"/>
    </contour>
  </outline>
</glyph>
<glyph name="hungarumlautcmb.cap" format="1">
  <advance width="0"/>
  <outline>
    <contour>
      <point x="136" y="682" type="move" name="_aboveUC"/>
    </contour>
    <contour>
      <point x="68" y="696" type="line"/>
      <point x="211" y="822" type="line"/>
      <point x="125" y="879" type="line"/>
      <point x="0" y="735" type="line"/>
    </contour>
    <contour>
      <point x="254" y="696" type="line"/>
      <point x="397" y="822" type="line"/>
      <point x="311" y="879" type="line"/>
      <point x="187" y="735" type="line"/>
    </contour>
  </outline>
</glyph>
<glyph name="hungarumlautcmb" format="1">
  <advance width="0"/>
  <outline>
    <contour>
      <point x="112" y="518" type="move" name="_aboveLC"/>
    </contour>
    <contour>
      <point x="66" y="567" type="line"/>
      <point x="204" y="724" type="line"/>
      <point x="111" y="774" type="line"/>
      <point x="-6" y="606" type="line"/>
    </contour>
    <contour>
      <point x="245" y="567" type="line"/>
      <point x="382" y="724" type="line"/>
      <point x="290" y="774" type="line"/>
      <point x="172" y="606" type="line"/>
    </contour>
  </outline>
</glyph>
<glyph name="i" format="1">
  <advance width="265"/>
  <outline>
    <contour>
      <point x="14" y="0" type="line"/>
      <point x="151" y="0" type="line"/>
      <point x="250" y="496" type="line"/>
      <point x="114" y="496" type="line"/>
    </contour>
    <contour>
      <point x="208" y="570" type="curve" smooth="yes"/>
      <point x="256" y="570"/>
      <point x="293" y="604"/>
      <point x="293" y="651" type="curve" smooth="yes"/>
      <point x="293" y="694"/>
      <point x="257" y="717"/>
      <point x="219" y="717" type="curve" smooth="yes"/>
      <point x="172" y="717"/>
      <point x="134" y="680"/>
      <point x="134" y="636" type="curve" smooth="yes"/>
      <point x="134" y="592"/>
      <point x="171" y="570"/>
    </contour>
    <contour>
      <point x="80" y="0" type="move" name="ogonekLC"/>
    </contour>
    <contour>
      <point x="233" y="722" type="move" name="aboveLC"/>
    </contour>
    <contour>
      <point x="89" y="-22" type="move" name="belowLC"/>
    </contour>
  </outline>
</glyph>
<glyph name="i.sups" format="1">
  <advance width="180"/>
  <outline>
    <contour>
      <point x="173" y="637" type="curve" smooth="yes"/>
      <point x="205" y="637"/>
      <point x="232" y="663"/>
      <point x="232" y="692" type="curve" smooth="yes"/>
      <point x="232" y="722"/>
      <point x="207" y="737"/>
      <point x="180" y="737" type="curve" smooth="yes"/>
      <point x="148" y="737"/>
      <point x="121" y="712"/>
      <point x="121" y="683" type="curve" smooth="yes"/>
      <point x="121" y="652"/>
      <point x="146" y="637"/>
    </contour>
    <contour>
      <point x="43" y="262" type="line"/>
      <point x="140" y="262" type="line"/>
      <point x="205" y="591" type="line"/>
      <point x="108" y="591" type="line"/>
    </contour>
  </outline>
</glyph>
<glyph name="infinity" format="1">
  <advance width="781"/>
  <outline>
    <contour>
      <point x="563" y="119" type="curve" smooth="yes"/>
      <point x="668" y="119"/>
      <point x="753" y="208"/>
      <point x="753" y="330" type="curve" smooth="yes"/>
      <point x="753" y="455"/>
      <point x="669" y="533"/>
      <point x="563" y="533" type="curve" smooth="yes"/>
      <point x="489" y="533"/>
      <point x="435" y="491"/>
      <point x="387" y="424" type="curve"/>
      <point x="383" y="424" type="line"/>
      <point x="347" y="471"/>
      <point x="295" y="518"/>
      <point x="215" y="518" type="curve" smooth="yes"/>
      <point x="111" y="518"/>
      <point x="43" y="434"/>
      <point x="43" y="327" type="curve" smooth="yes"/>
      <point x="43" y="223"/>
      <point x="107" y="142"/>
      <point x="207" y="142" type="curve" smooth="yes"/>
      <point x="275" y="142"/>
      <point x="328" y="192"/>
      <point x="361" y="236" type="curve"/>
      <point x="365" y="236" type="line"/>
      <point x="424" y="155"/>
      <point x="483" y="119"/>
    </contour>
    <contour>
      <point x="218" y="242" type="curve" smooth="yes"/>
      <point x="172" y="242"/>
      <point x="144" y="278"/>
      <point x="144" y="319" type="curve" smooth="yes"/>
      <point x="144" y="361"/>
      <point x="168" y="393"/>
      <point x="215" y="393" type="curve" smooth="yes"/>
      <point x="253" y="393"/>
      <point x="291" y="358"/>
      <point x="319" y="314" type="curve"/>
      <point x="292" y="272"/>
      <point x="259" y="242"/>
    </contour>
    <contour>
      <point x="564" y="244" type="curve" smooth="yes"/>
      <point x="508" y="244"/>
      <point x="469" y="288"/>
      <point x="428" y="346" type="curve"/>
      <point x="468" y="403"/>
      <point x="513" y="434"/>
      <point x="558" y="434" type="curve" smooth="yes"/>
      <point x="614" y="434"/>
      <point x="652" y="397"/>
      <point x="652" y="342" type="curve" smooth="yes"/>
      <point x="652" y="288"/>
      <point x="618" y="244"/>
    </contour>
  </outline>
</glyph>
<glyph name="integral" format="1">
  <advance width="374"/>
  <outline>
    <contour>
      <point x="22" y="-158" type="curve" smooth="yes"/>
      <point x="165" y="-158"/>
      <point x="214" y="-55"/>
      <point x="241" y="86" type="curve" smooth="yes"/>
      <point x="272" y="248"/>
      <point x="267" y="397"/>
      <point x="296" y="549" type="curve" smooth="yes"/>
      <point x="315" y="644"/>
      <point x="336" y="688"/>
      <point x="386" y="688" type="curve" smooth="yes"/>
      <point x="403" y="688"/>
      <point x="417" y="686"/>
      <point x="426" y="684" type="curve"/>
      <point x="452" y="784" type="line"/>
      <point x="440" y="788"/>
      <point x="416" y="791"/>
      <point x="392" y="791" type="curve" smooth="yes"/>
      <point x="248" y="791"/>
      <point x="200" y="686"/>
      <point x="173" y="546" type="curve" smooth="yes"/>
      <point x="142" y="384"/>
      <point x="149" y="236"/>
      <point x="118" y="83" type="curve" smooth="yes"/>
      <point x="99" y="-14"/>
      <point x="80" y="-56"/>
      <point x="30" y="-56" type="curve" smooth="yes"/>
      <point x="16" y="-56"/>
      <point x="4" y="-54"/>
      <point x="-4" y="-52" type="curve"/>
      <point x="-32" y="-150" type="line"/>
      <point x="-19" y="-156"/>
      <point x="1" y="-158"/>
    </contour>
  </outline>
</glyph>
<glyph name="iogonek.d" format="1">
  <advance width="265"/>
  <outline>
    <contour>
      <point x="192" y="518" type="move" name="aboveLC"/>
    </contour>
    <contour>
      <point x="47" y="-210" type="curve" smooth="yes"/>
      <point x="79" y="-210"/>
      <point x="122" y="-194"/>
      <point x="150" y="-174" type="curve"/>
      <point x="127" y="-118" type="line"/>
      <point x="116" y="-124"/>
      <point x="106" y="-128"/>
      <point x="95" y="-128" type="curve" smooth="yes"/>
      <point x="76" y="-128"/>
      <point x="60" y="-117"/>
      <point x="60" y="-98" type="curve" smooth="yes"/>
      <point x="60" y="-62"/>
      <point x="86" y="-26"/>
      <point x="151" y="0" type="curve"/>
      <point x="250" y="496" type="line"/>
      <point x="114" y="496" type="line"/>
      <point x="14" y="0" type="line"/>
      <point x="53" y="0" type="line"/>
      <point x="22" y="-20"/>
      <point x="-39" y="-73"/>
      <point x="-39" y="-137" type="curve" smooth="yes"/>
      <point x="-39" y="-185"/>
      <point x="-3" y="-210"/>
    </contour>
  </outline>
</glyph>
<glyph name="j" format="1">
  <advance width="267"/>
  <outline>
    <contour>
      <point x="233" y="722" type="move" name="aboveLC"/>
    </contour>
    <contour>
      <point x="-14" y="-237" type="move" name="belowLC"/>
    </contour>
    <contour>
      <point x="-35" y="-196" type="curve" smooth="yes"/>
      <point x="77" y="-196"/>
      <point x="128" y="-116"/>
      <point x="149" y="-16" type="curve" smooth="yes"/>
      <point x="252" y="496" type="line"/>
      <point x="115" y="496" type="line"/>
      <point x="14" y="-10" type="line" smooth="yes"/>
      <point x="1" y="-64"/>
      <point x="-13" y="-88"/>
      <point x="-46" y="-88" type="curve" smooth="yes"/>
      <point x="-63" y="-88"/>
      <point x="-76" y="-83"/>
      <point x="-90" y="-75" type="curve"/>
      <point x="-131" y="-174" type="line"/>
      <point x="-99" y="-190"/>
      <point x="-70" y="-196"/>
    </contour>
    <contour>
      <point x="210" y="570" type="curve" smooth="yes"/>
      <point x="257" y="570"/>
      <point x="295" y="604"/>
      <point x="295" y="651" type="curve" smooth="yes"/>
      <point x="295" y="694"/>
      <point x="258" y="717"/>
      <point x="221" y="717" type="curve" smooth="yes"/>
      <point x="173" y="717"/>
      <point x="136" y="680"/>
      <point x="136" y="636" type="curve" smooth="yes"/>
      <point x="136" y="592"/>
      <point x="172" y="570"/>
    </contour>
  </outline>
</glyph>
<glyph name="j.sups" format="1">
  <advance width="180"/>
  <outline>
    <contour>
      <point x="11" y="126" type="curve" smooth="yes"/>
      <point x="87" y="126"/>
      <point x="123" y="176"/>
      <point x="136" y="243" type="curve" smooth="yes"/>
      <point x="205" y="591" type="line"/>
      <point x="108" y="591" type="line"/>
      <point x="41" y="251" type="line" smooth="yes"/>
      <point x="34" y="215"/>
      <point x="26" y="201"/>
      <point x="3" y="201" type="curve" smooth="yes"/>
      <point x="-7" y="201"/>
      <point x="-16" y="204"/>
      <point x="-26" y="208" type="curve"/>
      <point x="-55" y="141" type="line"/>
      <point x="-32" y="130"/>
      <point x="-11" y="126"/>
    </contour>
    <contour>
      <point x="173" y="637" type="curve" smooth="yes"/>
      <point x="205" y="637"/>
      <point x="232" y="663"/>
      <point x="232" y="692" type="curve" smooth="yes"/>
      <point x="232" y="722"/>
      <point x="207" y="737"/>
      <point x="180" y="737" type="curve" smooth="yes"/>
      <point x="148" y="737"/>
      <point x="121" y="712"/>
      <point x="121" y="683" type="curve" smooth="yes"/>
      <point x="121" y="652"/>
      <point x="146" y="637"/>
    </contour>
  </outline>
</glyph>
<glyph name="k" format="1">
  <advance width="525"/>
  <outline>
    <contour>
      <point x="14" y="0" type="line"/>
      <point x="151" y="0" type="line"/>
      <point x="175" y="119" type="line"/>
      <point x="256" y="200" type="line"/>
      <point x="331" y="0" type="line"/>
      <point x="468" y="0" type="line"/>
      <point x="350" y="279" type="line"/>
      <point x="553" y="496" type="line"/>
      <point x="401" y="496" type="line"/>
      <point x="214" y="295" type="line"/>
      <point x="210" y="295" type="line"/>
      <point x="292" y="701" type="line"/>
      <point x="155" y="701" type="line"/>
    </contour>
    <contour>
      <point x="233" y="730" type="move" name="aboveLC"/>
    </contour>
    <contour>
      <point x="239" y="-22" type="move" name="belowLC"/>
    </contour>
  </outline>
</glyph>
<glyph name="k.sups" format="1">
  <advance width="355"/>
  <outline>
    <contour>
      <point x="43" y="262" type="line"/>
      <point x="140" y="262" type="line"/>
      <point x="156" y="343" type="line"/>
      <point x="206" y="391" type="line"/>
      <point x="256" y="262" type="line"/>
      <point x="352" y="262" type="line"/>
      <point x="272" y="446" type="line"/>
      <point x="408" y="591" type="line"/>
      <point x="302" y="591" type="line"/>
      <point x="183" y="461" type="line"/>
      <point x="179" y="461" type="line"/>
      <point x="232" y="724" type="line"/>
      <point x="135" y="724" type="line"/>
    </contour>
  </outline>
</glyph>
<glyph name="l" format="1">
  <advance width="275"/>
  <outline>
    <contour>
      <point x="234" y="730" type="move" name="aboveLC"/>
    </contour>
    <contour>
      <point x="85" y="-22" type="move" name="belowLC"/>
    </contour>
    <contour>
      <point x="137" y="-12" type="curve" smooth="yes"/>
      <point x="169" y="-12"/>
      <point x="193" y="-7"/>
      <point x="210" y="-1" type="curve"/>
      <point x="214" y="100" type="line"/>
      <point x="205" y="98"/>
      <point x="202" y="98"/>
      <point x="196" y="98" type="curve" smooth="yes"/>
      <point x="186" y="98"/>
      <point x="177" y="104"/>
      <point x="177" y="121" type="curve" smooth="yes"/>
      <point x="177" y="126"/>
      <point x="177" y="130"/>
      <point x="179" y="140" type="curve" smooth="yes"/>
      <point x="292" y="701" type="line"/>
      <point x="155" y="701" type="line"/>
      <point x="44" y="146" type="line" smooth="yes"/>
      <point x="39" y="121"/>
      <point x="37" y="103"/>
      <point x="37" y="85" type="curve" smooth="yes"/>
      <point x="37" y="25"/>
      <point x="66" y="-12"/>
    </contour>
  </outline>
</glyph>
<glyph name="l.supa" format="1">
  <advance width="180"/>
  <outline>
    <contour>
      <point x="43" y="262" type="line"/>
      <point x="140" y="262" type="line"/>
      <point x="232" y="724" type="line"/>
      <point x="135" y="724" type="line"/>
    </contour>
  </outline>
</glyph>
<glyph name="l.sups" format="1">
  <advance width="180"/>
  <outline>
    <contour>
      <point x="64" y="364" type="line"/>
      <point x="60" y="347"/>
      <point x="59" y="334"/>
      <point x="59" y="321" type="curve" smooth="yes"/>
      <point x="59" y="280"/>
      <point x="79" y="254"/>
      <point x="129" y="254" type="curve" smooth="yes"/>
      <point x="150" y="254"/>
      <point x="168" y="257"/>
      <point x="180" y="261" type="curve"/>
      <point x="181" y="332" type="line"/>
      <point x="176" y="330"/>
      <point x="174" y="330"/>
      <point x="170" y="330" type="curve" smooth="yes"/>
      <point x="163" y="330"/>
      <point x="157" y="332"/>
      <point x="157" y="345" type="curve" smooth="yes"/>
      <point x="157" y="348"/>
      <point x="157" y="353"/>
      <point x="159" y="357" type="curve" smooth="yes"/>
      <point x="232" y="724" type="line"/>
      <point x="135" y="724" type="line"/>
    </contour>
  </outline>
</glyph>
<glyph name="l.alt" format="1">
  <advance width="265"/>
  <outline>
    <contour>
      <point x="234" y="730" type="move" name="aboveLC"/>
    </contour>
    <contour>
      <point x="85" y="-22" type="move" name="belowLC"/>
    </contour>
    <contour>
      <point x="14" y="0" type="line"/>
      <point x="151" y="0" type="line"/>
      <point x="292" y="701" type="line"/>
      <point x="155" y="701" type="line"/>
    </contour>
  </outline>
</glyph>
<glyph name="less" format="1">
  <advance width="509"/>
  <outline>
    <contour>
      <point x="485" y="108" type="line"/>
      <point x="485" y="222" type="line"/>
      <point x="315" y="283" type="line"/>
      <point x="186" y="330" type="line"/>
      <point x="186" y="334" type="line"/>
      <point x="315" y="380" type="line"/>
      <point x="485" y="441" type="line"/>
      <point x="485" y="553" type="line"/>
      <point x="46" y="379" type="line"/>
      <point x="46" y="283" type="line"/>
    </contour>
  </outline>
</glyph>
<glyph name="lira" format="1">
  <advance width="509"/>
  <outline>
    <contour>
      <point x="-2" y="0" type="line"/>
      <point x="427" y="0" type="line"/>
      <point x="447" y="115" type="line"/>
      <point x="212" y="115" type="line"/>
      <point x="213" y="119" type="line"/>
      <point x="259" y="173"/>
      <point x="277" y="224"/>
      <point x="277" y="300" type="curve" smooth="yes"/>
      <point x="277" y="332"/>
      <point x="270" y="373"/>
      <point x="270" y="404" type="curve" smooth="yes"/>
      <point x="270" y="501"/>
      <point x="316" y="545"/>
      <point x="371" y="545" type="curve" smooth="yes"/>
      <point x="404" y="545"/>
      <point x="425" y="528"/>
      <point x="447" y="498" type="curve"/>
      <point x="535" y="570" type="line"/>
      <point x="498" y="622"/>
      <point x="448" y="655"/>
      <point x="378" y="655" type="curve" smooth="yes"/>
      <point x="247" y="655"/>
      <point x="143" y="562"/>
      <point x="143" y="422" type="curve" smooth="yes"/>
      <point x="143" y="382"/>
      <point x="153" y="325"/>
      <point x="153" y="284" type="curve" smooth="yes"/>
      <point x="153" y="194"/>
      <point x="101" y="121"/>
      <point x="15" y="84" type="curve"/>
    </contour>
    <contour>
      <point x="68" y="343" type="line"/>
      <point x="409" y="343" type="line"/>
      <point x="424" y="414" type="line"/>
      <point x="158" y="414" type="line"/>
      <point x="83" y="408" type="line"/>
    </contour>
    <contour>
      <point x="43" y="221" type="line"/>
      <point x="383" y="221" type="line"/>
      <point x="397" y="291" type="line"/>
      <point x="137" y="291" type="line"/>
      <point x="58" y="286" type="line"/>
    </contour>
  </outline>
</glyph>
